<svg id="visual" viewBox="0 0 900 450" width="900" height="450" xmlns="http://www.w3.org/2000/svg" xmlns:xlink="http://www.w3.org/1999/xlink" version="1.1"><g stroke-width="1" stroke-linejoin="bevel"><path d="M439 250L546 254L463 194Z" fill="#e9e9e9" stroke="#cfcfcf"></path><path d="M546 254L571 206L463 194Z" fill="#f1f1f1" stroke="#cfcfcf"></path><path d="M546 254L603 200L571 206Z" fill="#ffffff" stroke="#cfcfcf"></path><path d="M571 206L481 87L463 194Z" fill="#fcfcfc" stroke="#cfcfcf"></path><path d="M439 250L518 360L546 254Z" fill="#e9e9e9" stroke="#cfcfcf"></path><path d="M546 254L645 278L603 200Z" fill="#f9f9f9" stroke="#cfcfcf"></path><path d="M453 355L518 360L439 250Z" fill="#e3e3e3" stroke="#cfcfcf"></path><path d="M373 147L361 253L439 250Z" fill="#ffffff" stroke="#cfcfcf"></path><path d="M439 250L375 350L453 355Z" fill="#ebebeb" stroke="#cfcfcf"></path><path d="M481 87L373 147L463 194Z" fill="#ffffff" stroke="#cfcfcf"></path><path d="M463 194L373 147L439 250Z" fill="#eeeeee" stroke="#cfcfcf"></path><path d="M570 59L481 87L571 206Z" fill="#f9f9f9" stroke="#cfcfcf"></path><path d="M652 344L645 278L546 254Z" fill="#ffffff" stroke="#cfcfcf"></path><path d="M361 253L375 350L439 250Z" fill="#eeeeee" stroke="#cfcfcf"></path><path d="M453 355L463 450L518 360Z" fill="#fcfcfc" stroke="#cfcfcf"></path><path d="M518 360L652 344L546 254Z" fill="#f9f9f9" stroke="#cfcfcf"></path><path d="M603 200L570 59L571 206Z" fill="#ebebeb" stroke="#cfcfcf"></path><path d="M607 62L570 59L603 200Z" fill="#e9e9e9" stroke="#cfcfcf"></path><path d="M373 147L296 257L361 253Z" fill="#f1f1f1" stroke="#cfcfcf"></path><path d="M361 253L296 257L375 350Z" fill="#e9e9e9" stroke="#cfcfcf"></path><path d="M693 156L607 62L603 200Z" fill="#ffffff" stroke="#cfcfcf"></path><path d="M366 450L463 450L453 355Z" fill="#eeeeee" stroke="#cfcfcf"></path><path d="M518 360L604 450L652 344Z" fill="#f1f1f1" stroke="#cfcfcf"></path><path d="M463 450L534 450L518 360Z" fill="#ffffff" stroke="#cfcfcf"></path><path d="M652 344L704 283L645 278Z" fill="#e3e3e3" stroke="#cfcfcf"></path><path d="M645 278L693 156L603 200Z" fill="#f4f4f4" stroke="#cfcfcf"></path><path d="M704 283L693 156L645 278Z" fill="#f4f4f4" stroke="#cfcfcf"></path><path d="M389 0L334 76L481 87Z" fill="#e6e6e6" stroke="#cfcfcf"></path><path d="M481 87L334 76L373 147Z" fill="#e9e9e9" stroke="#cfcfcf"></path><path d="M373 147L252 169L296 257Z" fill="#f9f9f9" stroke="#cfcfcf"></path><path d="M604 450L692 353L652 344Z" fill="#ebebeb" stroke="#cfcfcf"></path><path d="M652 344L692 353L704 283Z" fill="#ffffff" stroke="#cfcfcf"></path><path d="M534 450L604 450L518 360Z" fill="#f9f9f9" stroke="#cfcfcf"></path><path d="M561 0L457 0L481 87Z" fill="#f1f1f1" stroke="#cfcfcf"></path><path d="M561 0L481 87L570 59Z" fill="#f9f9f9" stroke="#cfcfcf"></path><path d="M375 350L366 450L453 355Z" fill="#ffffff" stroke="#cfcfcf"></path><path d="M279 369L366 450L375 350Z" fill="#e6e6e6" stroke="#cfcfcf"></path><path d="M613 0L570 59L607 62Z" fill="#e9e9e9" stroke="#cfcfcf"></path><path d="M613 0L561 0L570 59Z" fill="#eeeeee" stroke="#cfcfcf"></path><path d="M296 257L279 369L375 350Z" fill="#f4f4f4" stroke="#cfcfcf"></path><path d="M285 77L252 169L373 147Z" fill="#e3e3e3" stroke="#cfcfcf"></path><path d="M296 257L171 273L279 369Z" fill="#f4f4f4" stroke="#cfcfcf"></path><path d="M457 0L389 0L481 87Z" fill="#f7f7f7" stroke="#cfcfcf"></path><path d="M334 76L285 77L373 147Z" fill="#e9e9e9" stroke="#cfcfcf"></path><path d="M239 0L285 77L334 76Z" fill="#f7f7f7" stroke="#cfcfcf"></path><path d="M734 0L613 0L607 62Z" fill="#f9f9f9" stroke="#cfcfcf"></path><path d="M835 298L777 191L704 283Z" fill="#ebebeb" stroke="#cfcfcf"></path><path d="M704 283L777 191L693 156Z" fill="#f1f1f1" stroke="#cfcfcf"></path><path d="M693 156L748 62L607 62Z" fill="#fcfcfc" stroke="#cfcfcf"></path><path d="M279 369L294 450L366 450Z" fill="#f4f4f4" stroke="#cfcfcf"></path><path d="M197 103L201 166L252 169Z" fill="#f9f9f9" stroke="#cfcfcf"></path><path d="M252 169L171 273L296 257Z" fill="#e3e3e3" stroke="#cfcfcf"></path><path d="M279 369L178 362L294 450Z" fill="#f4f4f4" stroke="#cfcfcf"></path><path d="M809 99L748 62L693 156Z" fill="#ebebeb" stroke="#cfcfcf"></path><path d="M201 166L171 273L252 169Z" fill="#ffffff" stroke="#cfcfcf"></path><path d="M604 450L740 450L692 353Z" fill="#f9f9f9" stroke="#cfcfcf"></path><path d="M817 375L835 298L704 283Z" fill="#f9f9f9" stroke="#cfcfcf"></path><path d="M285 77L197 103L252 169Z" fill="#f1f1f1" stroke="#cfcfcf"></path><path d="M90 203L91 260L171 273Z" fill="#fcfcfc" stroke="#cfcfcf"></path><path d="M239 0L197 103L285 77Z" fill="#f4f4f4" stroke="#cfcfcf"></path><path d="M171 273L178 362L279 369Z" fill="#f9f9f9" stroke="#cfcfcf"></path><path d="M748 62L734 0L607 62Z" fill="#ebebeb" stroke="#cfcfcf"></path><path d="M777 191L809 99L693 156Z" fill="#e6e6e6" stroke="#cfcfcf"></path><path d="M748 62L843 0L734 0Z" fill="#ebebeb" stroke="#cfcfcf"></path><path d="M900 174L809 99L777 191Z" fill="#f1f1f1" stroke="#cfcfcf"></path><path d="M817 375L704 283L692 353Z" fill="#eeeeee" stroke="#cfcfcf"></path><path d="M389 0L239 0L334 76Z" fill="#f1f1f1" stroke="#cfcfcf"></path><path d="M740 450L817 375L692 353Z" fill="#f1f1f1" stroke="#cfcfcf"></path><path d="M740 450L810 450L817 375Z" fill="#f7f7f7" stroke="#cfcfcf"></path><path d="M900 338L900 294L835 298Z" fill="#e3e3e3" stroke="#cfcfcf"></path><path d="M90 203L171 273L201 166Z" fill="#ffffff" stroke="#cfcfcf"></path><path d="M171 273L91 260L178 362Z" fill="#f7f7f7" stroke="#cfcfcf"></path><path d="M90 203L201 166L71 108Z" fill="#ebebeb" stroke="#cfcfcf"></path><path d="M71 108L201 166L197 103Z" fill="#eeeeee" stroke="#cfcfcf"></path><path d="M77 386L146 450L178 362Z" fill="#ffffff" stroke="#cfcfcf"></path><path d="M178 362L146 450L294 450Z" fill="#e9e9e9" stroke="#cfcfcf"></path><path d="M900 338L835 298L817 375Z" fill="#ebebeb" stroke="#cfcfcf"></path><path d="M835 298L900 174L777 191Z" fill="#fcfcfc" stroke="#cfcfcf"></path><path d="M900 294L900 174L835 298Z" fill="#ffffff" stroke="#cfcfcf"></path><path d="M809 99L843 0L748 62Z" fill="#f1f1f1" stroke="#cfcfcf"></path><path d="M239 0L157 0L197 103Z" fill="#ebebeb" stroke="#cfcfcf"></path><path d="M900 450L900 338L817 375Z" fill="#e9e9e9" stroke="#cfcfcf"></path><path d="M900 78L843 0L809 99Z" fill="#f9f9f9" stroke="#cfcfcf"></path><path d="M900 174L900 78L809 99Z" fill="#f7f7f7" stroke="#cfcfcf"></path><path d="M0 350L77 386L91 260Z" fill="#f7f7f7" stroke="#cfcfcf"></path><path d="M91 260L77 386L178 362Z" fill="#fcfcfc" stroke="#cfcfcf"></path><path d="M157 0L71 108L197 103Z" fill="#fcfcfc" stroke="#cfcfcf"></path><path d="M90 203L0 211L91 260Z" fill="#f1f1f1" stroke="#cfcfcf"></path><path d="M810 450L900 450L817 375Z" fill="#e3e3e3" stroke="#cfcfcf"></path><path d="M0 450L70 450L77 386Z" fill="#e3e3e3" stroke="#cfcfcf"></path><path d="M77 386L70 450L146 450Z" fill="#e3e3e3" stroke="#cfcfcf"></path><path d="M900 78L900 0L843 0Z" fill="#e6e6e6" stroke="#cfcfcf"></path><path d="M157 0L69 0L71 108Z" fill="#e6e6e6" stroke="#cfcfcf"></path><path d="M71 108L0 211L90 203Z" fill="#f9f9f9" stroke="#cfcfcf"></path><path d="M0 61L0 211L71 108Z" fill="#f1f1f1" stroke="#cfcfcf"></path><path d="M0 211L0 288L91 260Z" fill="#e6e6e6" stroke="#cfcfcf"></path><path d="M0 288L0 350L91 260Z" fill="#f4f4f4" stroke="#cfcfcf"></path><path d="M69 0L0 61L71 108Z" fill="#ebebeb" stroke="#cfcfcf"></path><path d="M0 350L0 450L77 386Z" fill="#e9e9e9" stroke="#cfcfcf"></path><path d="M69 0L0 0L0 61Z" fill="#f4f4f4" stroke="#cfcfcf"></path></g></svg>
