<svg id="visual" viewBox="0 0 900 450" width="900" height="450" xmlns="http://www.w3.org/2000/svg" xmlns:xlink="http://www.w3.org/1999/xlink" version="1.1"><g stroke-width="1" stroke-linejoin="bevel"><path d="M433 188L375 189L375 260Z" fill="#e9e9e9" stroke="#cfcfcf"></path><path d="M375 260L472 263L433 188Z" fill="#f1f1f1" stroke="#cfcfcf"></path><path d="M375 189L290 201L375 260Z" fill="#e6e6e6" stroke="#cfcfcf"></path><path d="M472 263L516 262L433 188Z" fill="#f4f4f4" stroke="#cfcfcf"></path><path d="M418 60L391 101L433 188Z" fill="#ebebeb" stroke="#cfcfcf"></path><path d="M433 188L391 101L375 189Z" fill="#fcfcfc" stroke="#cfcfcf"></path><path d="M375 189L391 101L290 201Z" fill="#f4f4f4" stroke="#cfcfcf"></path><path d="M290 201L276 279L375 260Z" fill="#e9e9e9" stroke="#cfcfcf"></path><path d="M375 260L461 374L472 263Z" fill="#f9f9f9" stroke="#cfcfcf"></path><path d="M472 263L524 336L516 262Z" fill="#ebebeb" stroke="#cfcfcf"></path><path d="M329 391L461 374L375 260Z" fill="#e3e3e3" stroke="#cfcfcf"></path><path d="M461 374L524 336L472 263Z" fill="#ebebeb" stroke="#cfcfcf"></path><path d="M563 91L418 60L433 188Z" fill="#f9f9f9" stroke="#cfcfcf"></path><path d="M391 101L263 75L290 201Z" fill="#e9e9e9" stroke="#cfcfcf"></path><path d="M620 174L566 161L516 262Z" fill="#e6e6e6" stroke="#cfcfcf"></path><path d="M516 262L566 161L433 188Z" fill="#ffffff" stroke="#cfcfcf"></path><path d="M276 279L329 391L375 260Z" fill="#f9f9f9" stroke="#cfcfcf"></path><path d="M290 201L206 268L276 279Z" fill="#e6e6e6" stroke="#cfcfcf"></path><path d="M276 279L255 381L329 391Z" fill="#ebebeb" stroke="#cfcfcf"></path><path d="M154 170L206 268L290 201Z" fill="#e9e9e9" stroke="#cfcfcf"></path><path d="M352 0L263 75L391 101Z" fill="#eeeeee" stroke="#cfcfcf"></path><path d="M566 161L563 91L433 188Z" fill="#e3e3e3" stroke="#cfcfcf"></path><path d="M202 373L255 381L276 279Z" fill="#eeeeee" stroke="#cfcfcf"></path><path d="M662 274L620 174L516 262Z" fill="#eeeeee" stroke="#cfcfcf"></path><path d="M566 161L620 174L563 91Z" fill="#f1f1f1" stroke="#cfcfcf"></path><path d="M381 450L427 450L461 374Z" fill="#e9e9e9" stroke="#cfcfcf"></path><path d="M461 374L508 450L524 336Z" fill="#f1f1f1" stroke="#cfcfcf"></path><path d="M381 450L461 374L329 391Z" fill="#e9e9e9" stroke="#cfcfcf"></path><path d="M246 450L381 450L329 391Z" fill="#f7f7f7" stroke="#cfcfcf"></path><path d="M527 0L457 0L418 60Z" fill="#fcfcfc" stroke="#cfcfcf"></path><path d="M418 60L352 0L391 101Z" fill="#f9f9f9" stroke="#cfcfcf"></path><path d="M457 0L352 0L418 60Z" fill="#e3e3e3" stroke="#cfcfcf"></path><path d="M508 450L611 340L524 336Z" fill="#f9f9f9" stroke="#cfcfcf"></path><path d="M524 336L611 340L516 262Z" fill="#e9e9e9" stroke="#cfcfcf"></path><path d="M620 174L596 70L563 91Z" fill="#ffffff" stroke="#cfcfcf"></path><path d="M563 91L527 0L418 60Z" fill="#e9e9e9" stroke="#cfcfcf"></path><path d="M427 450L508 450L461 374Z" fill="#f7f7f7" stroke="#cfcfcf"></path><path d="M206 268L202 373L276 279Z" fill="#eeeeee" stroke="#cfcfcf"></path><path d="M255 381L246 450L329 391Z" fill="#eeeeee" stroke="#cfcfcf"></path><path d="M352 0L291 0L263 75Z" fill="#ebebeb" stroke="#cfcfcf"></path><path d="M596 70L527 0L563 91Z" fill="#f4f4f4" stroke="#cfcfcf"></path><path d="M159 119L290 201L263 75Z" fill="#ebebeb" stroke="#cfcfcf"></path><path d="M159 119L154 170L290 201Z" fill="#e3e3e3" stroke="#cfcfcf"></path><path d="M206 268L121 360L202 373Z" fill="#fcfcfc" stroke="#cfcfcf"></path><path d="M611 340L662 274L516 262Z" fill="#eeeeee" stroke="#cfcfcf"></path><path d="M752 62L695 0L596 70Z" fill="#ffffff" stroke="#cfcfcf"></path><path d="M162 0L159 119L263 75Z" fill="#ebebeb" stroke="#cfcfcf"></path><path d="M202 373L246 450L255 381Z" fill="#eeeeee" stroke="#cfcfcf"></path><path d="M72 66L118 154L159 119Z" fill="#ffffff" stroke="#cfcfcf"></path><path d="M159 119L118 154L154 170Z" fill="#fcfcfc" stroke="#cfcfcf"></path><path d="M72 249L121 360L206 268Z" fill="#ffffff" stroke="#cfcfcf"></path><path d="M202 373L187 450L246 450Z" fill="#e9e9e9" stroke="#cfcfcf"></path><path d="M121 360L187 450L202 373Z" fill="#f4f4f4" stroke="#cfcfcf"></path><path d="M72 249L206 268L154 170Z" fill="#f9f9f9" stroke="#cfcfcf"></path><path d="M508 450L630 450L611 340Z" fill="#fcfcfc" stroke="#cfcfcf"></path><path d="M611 340L710 369L662 274Z" fill="#e3e3e3" stroke="#cfcfcf"></path><path d="M710 369L726 239L662 274Z" fill="#f9f9f9" stroke="#cfcfcf"></path><path d="M662 274L727 204L620 174Z" fill="#f1f1f1" stroke="#cfcfcf"></path><path d="M726 239L727 204L662 274Z" fill="#e9e9e9" stroke="#cfcfcf"></path><path d="M695 0L646 0L596 70Z" fill="#e9e9e9" stroke="#cfcfcf"></path><path d="M596 70L646 0L527 0Z" fill="#ffffff" stroke="#cfcfcf"></path><path d="M291 0L162 0L263 75Z" fill="#f9f9f9" stroke="#cfcfcf"></path><path d="M118 154L72 249L154 170Z" fill="#e6e6e6" stroke="#cfcfcf"></path><path d="M0 259L72 249L0 165Z" fill="#fcfcfc" stroke="#cfcfcf"></path><path d="M630 450L710 369L611 340Z" fill="#e9e9e9" stroke="#cfcfcf"></path><path d="M752 62L596 70L620 174Z" fill="#f4f4f4" stroke="#cfcfcf"></path><path d="M162 0L72 66L159 119Z" fill="#f9f9f9" stroke="#cfcfcf"></path><path d="M630 450L709 450L710 369Z" fill="#fcfcfc" stroke="#cfcfcf"></path><path d="M818 334L799 238L726 239Z" fill="#e9e9e9" stroke="#cfcfcf"></path><path d="M727 204L752 62L620 174Z" fill="#fcfcfc" stroke="#cfcfcf"></path><path d="M799 117L752 62L727 204Z" fill="#f1f1f1" stroke="#cfcfcf"></path><path d="M799 238L727 204L726 239Z" fill="#fcfcfc" stroke="#cfcfcf"></path><path d="M818 334L726 239L710 369Z" fill="#f7f7f7" stroke="#cfcfcf"></path><path d="M162 0L78 0L72 66Z" fill="#f1f1f1" stroke="#cfcfcf"></path><path d="M0 165L72 249L118 154Z" fill="#f4f4f4" stroke="#cfcfcf"></path><path d="M72 249L0 359L121 360Z" fill="#f9f9f9" stroke="#cfcfcf"></path><path d="M121 360L56 450L187 450Z" fill="#f9f9f9" stroke="#cfcfcf"></path><path d="M0 165L118 154L72 66Z" fill="#ebebeb" stroke="#cfcfcf"></path><path d="M818 175L799 117L727 204Z" fill="#ebebeb" stroke="#cfcfcf"></path><path d="M0 82L0 165L72 66Z" fill="#ebebeb" stroke="#cfcfcf"></path><path d="M0 359L56 450L121 360Z" fill="#fcfcfc" stroke="#cfcfcf"></path><path d="M799 238L818 175L727 204Z" fill="#f7f7f7" stroke="#cfcfcf"></path><path d="M0 259L0 359L72 249Z" fill="#f1f1f1" stroke="#cfcfcf"></path><path d="M809 450L818 334L710 369Z" fill="#f9f9f9" stroke="#cfcfcf"></path><path d="M799 238L900 247L818 175Z" fill="#e6e6e6" stroke="#cfcfcf"></path><path d="M0 0L0 82L72 66Z" fill="#e3e3e3" stroke="#cfcfcf"></path><path d="M78 0L0 0L72 66Z" fill="#eeeeee" stroke="#cfcfcf"></path><path d="M709 450L809 450L710 369Z" fill="#e3e3e3" stroke="#cfcfcf"></path><path d="M0 359L0 450L56 450Z" fill="#ffffff" stroke="#cfcfcf"></path><path d="M799 117L826 0L752 62Z" fill="#f7f7f7" stroke="#cfcfcf"></path><path d="M752 62L826 0L695 0Z" fill="#f9f9f9" stroke="#cfcfcf"></path><path d="M900 96L826 0L799 117Z" fill="#e3e3e3" stroke="#cfcfcf"></path><path d="M900 96L799 117L818 175Z" fill="#e9e9e9" stroke="#cfcfcf"></path><path d="M900 337L900 247L818 334Z" fill="#ffffff" stroke="#cfcfcf"></path><path d="M818 334L900 247L799 238Z" fill="#f1f1f1" stroke="#cfcfcf"></path><path d="M900 247L900 184L818 175Z" fill="#ffffff" stroke="#cfcfcf"></path><path d="M900 450L900 337L818 334Z" fill="#f7f7f7" stroke="#cfcfcf"></path><path d="M900 184L900 96L818 175Z" fill="#e9e9e9" stroke="#cfcfcf"></path><path d="M900 96L900 0L826 0Z" fill="#f9f9f9" stroke="#cfcfcf"></path><path d="M809 450L900 450L818 334Z" fill="#f7f7f7" stroke="#cfcfcf"></path></g></svg>
