<svg id="visual" viewBox="0 0 900 450" width="900" height="450" xmlns="http://www.w3.org/2000/svg" xmlns:xlink="http://www.w3.org/1999/xlink" version="1.1"><g stroke-width="1" stroke-linejoin="bevel"><path d="M462 246L536 209L437 188Z" fill="#ebebeb" stroke="#cfcfcf"></path><path d="M462 246L526 259L536 209Z" fill="#f1f1f1" stroke="#cfcfcf"></path><path d="M536 209L541 112L437 188Z" fill="#f1f1f1" stroke="#cfcfcf"></path><path d="M541 112L425 108L437 188Z" fill="#ffffff" stroke="#cfcfcf"></path><path d="M347 161L378 270L437 188Z" fill="#ebebeb" stroke="#cfcfcf"></path><path d="M437 188L378 270L462 246Z" fill="#e3e3e3" stroke="#cfcfcf"></path><path d="M462 246L547 328L526 259Z" fill="#f1f1f1" stroke="#cfcfcf"></path><path d="M536 209L603 146L541 112Z" fill="#e3e3e3" stroke="#cfcfcf"></path><path d="M640 257L603 146L536 209Z" fill="#fcfcfc" stroke="#cfcfcf"></path><path d="M425 108L385 107L437 188Z" fill="#f7f7f7" stroke="#cfcfcf"></path><path d="M440 376L547 328L462 246Z" fill="#e6e6e6" stroke="#cfcfcf"></path><path d="M526 259L640 257L536 209Z" fill="#e3e3e3" stroke="#cfcfcf"></path><path d="M385 107L347 161L437 188Z" fill="#ffffff" stroke="#cfcfcf"></path><path d="M547 328L640 257L526 259Z" fill="#f1f1f1" stroke="#cfcfcf"></path><path d="M716 149L626 108L603 146Z" fill="#f1f1f1" stroke="#cfcfcf"></path><path d="M603 146L626 108L541 112Z" fill="#f9f9f9" stroke="#cfcfcf"></path><path d="M541 112L482 0L425 108Z" fill="#f9f9f9" stroke="#cfcfcf"></path><path d="M425 108L381 0L385 107Z" fill="#fcfcfc" stroke="#cfcfcf"></path><path d="M378 270L440 376L462 246Z" fill="#e6e6e6" stroke="#cfcfcf"></path><path d="M516 0L482 0L541 112Z" fill="#ffffff" stroke="#cfcfcf"></path><path d="M621 0L516 0L541 112Z" fill="#ffffff" stroke="#cfcfcf"></path><path d="M378 270L331 343L440 376Z" fill="#f4f4f4" stroke="#cfcfcf"></path><path d="M236 241L331 343L378 270Z" fill="#e9e9e9" stroke="#cfcfcf"></path><path d="M482 0L381 0L425 108Z" fill="#f4f4f4" stroke="#cfcfcf"></path><path d="M385 107L245 60L347 161Z" fill="#ebebeb" stroke="#cfcfcf"></path><path d="M547 328L659 351L640 257Z" fill="#f9f9f9" stroke="#cfcfcf"></path><path d="M640 257L716 149L603 146Z" fill="#e3e3e3" stroke="#cfcfcf"></path><path d="M614 450L659 351L547 328Z" fill="#eeeeee" stroke="#cfcfcf"></path><path d="M208 112L256 199L347 161Z" fill="#f7f7f7" stroke="#cfcfcf"></path><path d="M347 161L256 199L378 270Z" fill="#e9e9e9" stroke="#cfcfcf"></path><path d="M659 351L707 274L640 257Z" fill="#e3e3e3" stroke="#cfcfcf"></path><path d="M707 274L716 149L640 257Z" fill="#e3e3e3" stroke="#cfcfcf"></path><path d="M626 108L621 0L541 112Z" fill="#f9f9f9" stroke="#cfcfcf"></path><path d="M723 79L621 0L626 108Z" fill="#e3e3e3" stroke="#cfcfcf"></path><path d="M367 450L458 450L440 376Z" fill="#e9e9e9" stroke="#cfcfcf"></path><path d="M440 376L521 450L547 328Z" fill="#eeeeee" stroke="#cfcfcf"></path><path d="M458 450L521 450L440 376Z" fill="#e9e9e9" stroke="#cfcfcf"></path><path d="M256 199L236 241L378 270Z" fill="#f4f4f4" stroke="#cfcfcf"></path><path d="M716 149L723 79L626 108Z" fill="#eeeeee" stroke="#cfcfcf"></path><path d="M816 91L723 79L716 149Z" fill="#f7f7f7" stroke="#cfcfcf"></path><path d="M236 241L266 364L331 343Z" fill="#ffffff" stroke="#cfcfcf"></path><path d="M331 343L367 450L440 376Z" fill="#f9f9f9" stroke="#cfcfcf"></path><path d="M266 364L367 450L331 343Z" fill="#ebebeb" stroke="#cfcfcf"></path><path d="M381 0L245 60L385 107Z" fill="#f9f9f9" stroke="#cfcfcf"></path><path d="M256 199L199 162L236 241Z" fill="#f9f9f9" stroke="#cfcfcf"></path><path d="M659 351L718 373L707 274Z" fill="#eeeeee" stroke="#cfcfcf"></path><path d="M521 450L614 450L547 328Z" fill="#f7f7f7" stroke="#cfcfcf"></path><path d="M721 450L718 373L659 351Z" fill="#e9e9e9" stroke="#cfcfcf"></path><path d="M707 274L804 240L716 149Z" fill="#f1f1f1" stroke="#cfcfcf"></path><path d="M208 112L199 162L256 199Z" fill="#e9e9e9" stroke="#cfcfcf"></path><path d="M236 241L190 281L266 364Z" fill="#ffffff" stroke="#cfcfcf"></path><path d="M245 60L208 112L347 161Z" fill="#f7f7f7" stroke="#cfcfcf"></path><path d="M199 162L190 281L236 241Z" fill="#ebebeb" stroke="#cfcfcf"></path><path d="M381 0L249 0L245 60Z" fill="#fcfcfc" stroke="#cfcfcf"></path><path d="M245 60L174 0L208 112Z" fill="#f1f1f1" stroke="#cfcfcf"></path><path d="M842 343L804 240L707 274Z" fill="#f1f1f1" stroke="#cfcfcf"></path><path d="M805 0L737 0L723 79Z" fill="#eeeeee" stroke="#cfcfcf"></path><path d="M723 79L737 0L621 0Z" fill="#f7f7f7" stroke="#cfcfcf"></path><path d="M266 364L263 450L367 450Z" fill="#ebebeb" stroke="#cfcfcf"></path><path d="M200 388L263 450L266 364Z" fill="#f4f4f4" stroke="#cfcfcf"></path><path d="M190 281L200 388L266 364Z" fill="#f4f4f4" stroke="#cfcfcf"></path><path d="M614 450L721 450L659 351Z" fill="#f7f7f7" stroke="#cfcfcf"></path><path d="M718 373L842 343L707 274Z" fill="#eeeeee" stroke="#cfcfcf"></path><path d="M804 240L827 146L716 149Z" fill="#e3e3e3" stroke="#cfcfcf"></path><path d="M827 146L816 91L716 149Z" fill="#f7f7f7" stroke="#cfcfcf"></path><path d="M111 62L98 191L199 162Z" fill="#ffffff" stroke="#cfcfcf"></path><path d="M199 162L98 191L190 281Z" fill="#f4f4f4" stroke="#cfcfcf"></path><path d="M249 0L174 0L245 60Z" fill="#ebebeb" stroke="#cfcfcf"></path><path d="M200 388L207 450L263 450Z" fill="#e3e3e3" stroke="#cfcfcf"></path><path d="M900 0L805 0L816 91Z" fill="#f1f1f1" stroke="#cfcfcf"></path><path d="M816 91L805 0L723 79Z" fill="#e9e9e9" stroke="#cfcfcf"></path><path d="M823 450L842 343L718 373Z" fill="#f7f7f7" stroke="#cfcfcf"></path><path d="M804 240L900 187L827 146Z" fill="#e3e3e3" stroke="#cfcfcf"></path><path d="M111 62L199 162L208 112Z" fill="#f9f9f9" stroke="#cfcfcf"></path><path d="M190 281L96 286L200 388Z" fill="#f4f4f4" stroke="#cfcfcf"></path><path d="M200 388L76 450L207 450Z" fill="#f4f4f4" stroke="#cfcfcf"></path><path d="M98 191L96 286L190 281Z" fill="#eeeeee" stroke="#cfcfcf"></path><path d="M174 0L111 62L208 112Z" fill="#ebebeb" stroke="#cfcfcf"></path><path d="M900 267L900 187L804 240Z" fill="#ffffff" stroke="#cfcfcf"></path><path d="M827 146L900 109L816 91Z" fill="#f9f9f9" stroke="#cfcfcf"></path><path d="M721 450L823 450L718 373Z" fill="#f4f4f4" stroke="#cfcfcf"></path><path d="M842 343L900 267L804 240Z" fill="#f7f7f7" stroke="#cfcfcf"></path><path d="M900 340L900 267L842 343Z" fill="#f7f7f7" stroke="#cfcfcf"></path><path d="M900 187L900 109L827 146Z" fill="#ebebeb" stroke="#cfcfcf"></path><path d="M900 450L900 340L842 343Z" fill="#e3e3e3" stroke="#cfcfcf"></path><path d="M0 245L67 357L96 286Z" fill="#ebebeb" stroke="#cfcfcf"></path><path d="M96 286L67 357L200 388Z" fill="#ebebeb" stroke="#cfcfcf"></path><path d="M0 245L96 286L98 191Z" fill="#ffffff" stroke="#cfcfcf"></path><path d="M900 109L900 0L816 91Z" fill="#eeeeee" stroke="#cfcfcf"></path><path d="M174 0L67 0L111 62Z" fill="#e3e3e3" stroke="#cfcfcf"></path><path d="M0 147L0 245L98 191Z" fill="#e9e9e9" stroke="#cfcfcf"></path><path d="M67 357L76 450L200 388Z" fill="#e6e6e6" stroke="#cfcfcf"></path><path d="M823 450L900 450L842 343Z" fill="#fcfcfc" stroke="#cfcfcf"></path><path d="M0 147L98 191L111 62Z" fill="#f9f9f9" stroke="#cfcfcf"></path><path d="M67 357L0 367L76 450Z" fill="#fcfcfc" stroke="#cfcfcf"></path><path d="M0 84L0 147L111 62Z" fill="#f1f1f1" stroke="#cfcfcf"></path><path d="M67 0L0 84L111 62Z" fill="#e3e3e3" stroke="#cfcfcf"></path><path d="M0 245L0 367L67 357Z" fill="#ffffff" stroke="#cfcfcf"></path><path d="M67 0L0 0L0 84Z" fill="#f1f1f1" stroke="#cfcfcf"></path><path d="M0 367L0 450L76 450Z" fill="#eeeeee" stroke="#cfcfcf"></path></g></svg>
