<svg id="visual" viewBox="0 0 900 450" width="900" height="450" xmlns="http://www.w3.org/2000/svg" xmlns:xlink="http://www.w3.org/1999/xlink" version="1.1"><g stroke-width="1" stroke-linejoin="bevel"><path d="M450 196L389 173L441 259Z" fill="#fcfcfc" stroke="#cfcfcf"></path><path d="M389 173L349 266L441 259Z" fill="#fcfcfc" stroke="#cfcfcf"></path><path d="M450 196L387 117L389 173Z" fill="#fcfcfc" stroke="#cfcfcf"></path><path d="M389 173L265 197L349 266Z" fill="#ffffff" stroke="#cfcfcf"></path><path d="M441 259L525 199L450 196Z" fill="#f1f1f1" stroke="#cfcfcf"></path><path d="M450 196L423 85L387 117Z" fill="#e3e3e3" stroke="#cfcfcf"></path><path d="M349 266L438 342L441 259Z" fill="#fcfcfc" stroke="#cfcfcf"></path><path d="M441 259L564 244L525 199Z" fill="#ffffff" stroke="#cfcfcf"></path><path d="M510 75L423 85L450 196Z" fill="#ffffff" stroke="#cfcfcf"></path><path d="M271 94L389 173L387 117Z" fill="#e6e6e6" stroke="#cfcfcf"></path><path d="M271 94L265 197L389 173Z" fill="#eeeeee" stroke="#cfcfcf"></path><path d="M349 266L345 366L438 342Z" fill="#f9f9f9" stroke="#cfcfcf"></path><path d="M265 328L345 366L349 266Z" fill="#ffffff" stroke="#cfcfcf"></path><path d="M547 358L564 244L441 259Z" fill="#eeeeee" stroke="#cfcfcf"></path><path d="M265 197L238 267L349 266Z" fill="#f9f9f9" stroke="#cfcfcf"></path><path d="M238 267L265 328L349 266Z" fill="#e3e3e3" stroke="#cfcfcf"></path><path d="M651 181L510 75L525 199Z" fill="#f7f7f7" stroke="#cfcfcf"></path><path d="M525 199L510 75L450 196Z" fill="#fcfcfc" stroke="#cfcfcf"></path><path d="M327 0L387 117L423 85Z" fill="#f4f4f4" stroke="#cfcfcf"></path><path d="M327 0L271 94L387 117Z" fill="#e9e9e9" stroke="#cfcfcf"></path><path d="M265 197L172 164L238 267Z" fill="#ffffff" stroke="#cfcfcf"></path><path d="M450 450L547 358L438 342Z" fill="#f9f9f9" stroke="#cfcfcf"></path><path d="M438 342L547 358L441 259Z" fill="#e6e6e6" stroke="#cfcfcf"></path><path d="M547 358L607 246L564 244Z" fill="#f9f9f9" stroke="#cfcfcf"></path><path d="M564 244L651 181L525 199Z" fill="#f7f7f7" stroke="#cfcfcf"></path><path d="M510 75L427 0L423 85Z" fill="#fcfcfc" stroke="#cfcfcf"></path><path d="M267 450L368 450L345 366Z" fill="#ebebeb" stroke="#cfcfcf"></path><path d="M345 366L368 450L438 342Z" fill="#e9e9e9" stroke="#cfcfcf"></path><path d="M368 450L450 450L438 342Z" fill="#ebebeb" stroke="#cfcfcf"></path><path d="M427 0L327 0L423 85Z" fill="#ffffff" stroke="#cfcfcf"></path><path d="M155 64L172 164L271 94Z" fill="#f4f4f4" stroke="#cfcfcf"></path><path d="M271 94L172 164L265 197Z" fill="#fcfcfc" stroke="#cfcfcf"></path><path d="M238 267L177 346L265 328Z" fill="#e3e3e3" stroke="#cfcfcf"></path><path d="M689 290L651 181L607 246Z" fill="#e6e6e6" stroke="#cfcfcf"></path><path d="M607 246L651 181L564 244Z" fill="#f9f9f9" stroke="#cfcfcf"></path><path d="M510 75L561 0L427 0Z" fill="#fcfcfc" stroke="#cfcfcf"></path><path d="M146 255L177 346L238 267Z" fill="#e3e3e3" stroke="#cfcfcf"></path><path d="M265 328L267 450L345 366Z" fill="#f9f9f9" stroke="#cfcfcf"></path><path d="M172 164L146 255L238 267Z" fill="#fcfcfc" stroke="#cfcfcf"></path><path d="M450 450L536 450L547 358Z" fill="#f7f7f7" stroke="#cfcfcf"></path><path d="M547 358L628 378L607 246Z" fill="#f1f1f1" stroke="#cfcfcf"></path><path d="M177 346L267 450L265 328Z" fill="#e3e3e3" stroke="#cfcfcf"></path><path d="M327 0L253 0L271 94Z" fill="#f1f1f1" stroke="#cfcfcf"></path><path d="M663 95L561 0L510 75Z" fill="#eeeeee" stroke="#cfcfcf"></path><path d="M608 450L628 378L547 358Z" fill="#f7f7f7" stroke="#cfcfcf"></path><path d="M651 181L663 95L510 75Z" fill="#ebebeb" stroke="#cfcfcf"></path><path d="M738 210L663 95L651 181Z" fill="#f4f4f4" stroke="#cfcfcf"></path><path d="M628 378L689 290L607 246Z" fill="#e9e9e9" stroke="#cfcfcf"></path><path d="M253 0L212 0L271 94Z" fill="#e9e9e9" stroke="#cfcfcf"></path><path d="M172 164L100 198L146 255Z" fill="#f9f9f9" stroke="#cfcfcf"></path><path d="M212 0L155 64L271 94Z" fill="#e3e3e3" stroke="#cfcfcf"></path><path d="M536 450L608 450L547 358Z" fill="#f7f7f7" stroke="#cfcfcf"></path><path d="M628 378L707 368L689 290Z" fill="#f7f7f7" stroke="#cfcfcf"></path><path d="M107 59L100 198L172 164Z" fill="#e9e9e9" stroke="#cfcfcf"></path><path d="M146 255L104 382L177 346Z" fill="#f1f1f1" stroke="#cfcfcf"></path><path d="M177 346L191 450L267 450Z" fill="#fcfcfc" stroke="#cfcfcf"></path><path d="M104 382L191 450L177 346Z" fill="#e9e9e9" stroke="#cfcfcf"></path><path d="M663 95L637 0L561 0Z" fill="#fcfcfc" stroke="#cfcfcf"></path><path d="M812 297L738 210L689 290Z" fill="#eeeeee" stroke="#cfcfcf"></path><path d="M689 290L738 210L651 181Z" fill="#e9e9e9" stroke="#cfcfcf"></path><path d="M663 95L700 59L637 0Z" fill="#f4f4f4" stroke="#cfcfcf"></path><path d="M691 450L707 368L628 378Z" fill="#e3e3e3" stroke="#cfcfcf"></path><path d="M780 168L700 59L663 95Z" fill="#e9e9e9" stroke="#cfcfcf"></path><path d="M0 260L70 264L0 178Z" fill="#e9e9e9" stroke="#cfcfcf"></path><path d="M100 198L70 264L146 255Z" fill="#fcfcfc" stroke="#cfcfcf"></path><path d="M97 0L107 59L155 64Z" fill="#e3e3e3" stroke="#cfcfcf"></path><path d="M155 64L107 59L172 164Z" fill="#f1f1f1" stroke="#cfcfcf"></path><path d="M70 264L104 382L146 255Z" fill="#ffffff" stroke="#cfcfcf"></path><path d="M608 450L691 450L628 378Z" fill="#e3e3e3" stroke="#cfcfcf"></path><path d="M812 297L780 168L738 210Z" fill="#fcfcfc" stroke="#cfcfcf"></path><path d="M0 450L111 450L104 382Z" fill="#e6e6e6" stroke="#cfcfcf"></path><path d="M104 382L111 450L191 450Z" fill="#f9f9f9" stroke="#cfcfcf"></path><path d="M799 56L706 0L700 59Z" fill="#e6e6e6" stroke="#cfcfcf"></path><path d="M700 59L706 0L637 0Z" fill="#f4f4f4" stroke="#cfcfcf"></path><path d="M776 376L689 290L707 368Z" fill="#e3e3e3" stroke="#cfcfcf"></path><path d="M738 210L780 168L663 95Z" fill="#f4f4f4" stroke="#cfcfcf"></path><path d="M212 0L97 0L155 64Z" fill="#f7f7f7" stroke="#cfcfcf"></path><path d="M0 178L70 264L100 198Z" fill="#e6e6e6" stroke="#cfcfcf"></path><path d="M691 450L776 376L707 368Z" fill="#f4f4f4" stroke="#cfcfcf"></path><path d="M0 178L100 198L0 122Z" fill="#e6e6e6" stroke="#cfcfcf"></path><path d="M70 264L0 374L104 382Z" fill="#ffffff" stroke="#cfcfcf"></path><path d="M0 122L100 198L107 59Z" fill="#e3e3e3" stroke="#cfcfcf"></path><path d="M776 376L812 297L689 290Z" fill="#f7f7f7" stroke="#cfcfcf"></path><path d="M0 0L0 122L107 59Z" fill="#f4f4f4" stroke="#cfcfcf"></path><path d="M780 168L799 56L700 59Z" fill="#f4f4f4" stroke="#cfcfcf"></path><path d="M900 109L799 56L780 168Z" fill="#f9f9f9" stroke="#cfcfcf"></path><path d="M0 260L0 374L70 264Z" fill="#f4f4f4" stroke="#cfcfcf"></path><path d="M97 0L0 0L107 59Z" fill="#ffffff" stroke="#cfcfcf"></path><path d="M0 374L0 450L104 382Z" fill="#e3e3e3" stroke="#cfcfcf"></path><path d="M900 0L821 0L799 56Z" fill="#e6e6e6" stroke="#cfcfcf"></path><path d="M799 56L821 0L706 0Z" fill="#f9f9f9" stroke="#cfcfcf"></path><path d="M691 450L839 450L776 376Z" fill="#e3e3e3" stroke="#cfcfcf"></path><path d="M776 376L900 369L812 297Z" fill="#ffffff" stroke="#cfcfcf"></path><path d="M812 297L900 258L780 168Z" fill="#ebebeb" stroke="#cfcfcf"></path><path d="M900 369L900 258L812 297Z" fill="#fcfcfc" stroke="#cfcfcf"></path><path d="M900 258L900 176L780 168Z" fill="#f7f7f7" stroke="#cfcfcf"></path><path d="M900 176L900 109L780 168Z" fill="#e6e6e6" stroke="#cfcfcf"></path><path d="M839 450L900 369L776 376Z" fill="#ebebeb" stroke="#cfcfcf"></path><path d="M900 109L900 0L799 56Z" fill="#eeeeee" stroke="#cfcfcf"></path><path d="M839 450L900 450L900 369Z" fill="#fcfcfc" stroke="#cfcfcf"></path></g></svg>
