<?xml version="1.0" encoding="utf-8"?>
<!-- Generator: Adobe Illustrator 28.6.0, SVG Export Plug-In . SVG Version: 9.03 Build 54939)  -->
<svg version="1.1" id="Layer_1" xmlns="http://www.w3.org/2000/svg" xmlns:xlink="http://www.w3.org/1999/xlink" x="0px" y="0px"
	 viewBox="0 0 1431.3 386" style="enable-background:new 0 0 1431.3 386;" xml:space="preserve">
<style type="text/css">
	.st0{fill:#016691;}
	.st1{fill:#049390;}

		.st2{clip-path:url(#SVGID_00000181052237492010938850000009655721070372270984_);fill:none;stroke:#FFFFFF;stroke-width:2.1024;stroke-miterlimit:10;}

		.st3{clip-path:url(#SVGID_00000072982164508992520020000004336808060511009710_);fill:none;stroke:#FFFFFF;stroke-width:2.1024;stroke-linejoin:bevel;stroke-miterlimit:10;}

		.st4{clip-path:url(#SVGID_00000035490569250351047600000003249467704850289854_);fill:none;stroke:#FFFFFF;stroke-width:2.1024;stroke-miterlimit:10;}

		.st5{clip-path:url(#SVGID_00000012459317637018457550000007976546515502772370_);fill:none;stroke:#FFFFFF;stroke-width:2.1024;stroke-linejoin:bevel;stroke-miterlimit:10;}

		.st6{clip-path:url(#SVGID_00000005266531192123128140000014039491931983749039_);fill:none;stroke:#FFFFFF;stroke-width:2.1024;stroke-linejoin:bevel;stroke-miterlimit:10;}

		.st7{clip-path:url(#SVGID_00000125583737903567506600000004097583863493452961_);fill:none;stroke:#FFFFFF;stroke-width:2.1024;stroke-linejoin:bevel;stroke-miterlimit:10;}

		.st8{clip-path:url(#SVGID_00000120544737293784011230000001113490038714038165_);fill:none;stroke:#FFFFFF;stroke-width:2.1024;stroke-linejoin:bevel;stroke-miterlimit:10;}

		.st9{clip-path:url(#SVGID_00000001655851825801654690000018391841574175128450_);fill:none;stroke:#FFFFFF;stroke-width:2.1024;stroke-linejoin:bevel;stroke-miterlimit:10;}

		.st10{clip-path:url(#SVGID_00000021115921540867199190000010225779486471429535_);fill:none;stroke:#FFFFFF;stroke-width:2.1024;stroke-linejoin:bevel;stroke-miterlimit:10;}

		.st11{clip-path:url(#SVGID_00000068636702733882377090000004462429779688290690_);fill:none;stroke:#FFFFFF;stroke-width:2.1024;stroke-linejoin:bevel;stroke-miterlimit:10;}

		.st12{clip-path:url(#SVGID_00000089569333384939319460000002184172870824682676_);fill:none;stroke:#FFFFFF;stroke-width:2.1024;stroke-linejoin:bevel;stroke-miterlimit:10;}

		.st13{clip-path:url(#SVGID_00000011003972028223997140000002224482132805027484_);fill:none;stroke:#FFFFFF;stroke-width:2.1024;stroke-linejoin:bevel;stroke-miterlimit:10;}

		.st14{clip-path:url(#SVGID_00000084511572865556111420000010660278239245957039_);fill:none;stroke:#FFFFFF;stroke-width:2.1024;stroke-linejoin:bevel;stroke-miterlimit:10;}
	.st15{fill:none;}
	.st16{fill:#343741;}
</style>
<g>
	<g>
		<g>
			<circle class="st0" cx="191" cy="192.7" r="184.2"/>
			<g>
				<path class="st1" d="M101.9,38.8c-1.7-1.8-4.2-2.8-6.7-2.3c-1.6,0.3-2.9,1.7-1.2,3c1.3,1,3.1,0.4,4.5,1.2
					c0.9,0.5,1.4,1.4,2.6,1.2c1.4-0.3,1.6-1.8,0.8-2.8C102,39,102,38.9,101.9,38.8z"/>
				<path class="st1" d="M245,107.3c0.8,3.2,5.3,3.7,7.8,4.6c1.8,0.7,3.7,1.4,5-0.6c1.9-2.9-1-5.4-2.3-7.7c-2.1-3.7,1.4-7.9-1-11.3
					c-1.7-2.5-4.9-2.2-7.3-1.2h-0.1c0,0-0.1,0-0.1,0.1c0,0-0.1,0-0.1,0.1c-0.1,0.1-0.2,0.1-0.3,0.2c-0.3,0.2-0.5,0.6-0.5,1.1
					c-0.1,0.3-0.2,0.6-0.1,0.9c-0.2,0.5-0.3,1.1-0.4,1.7c-0.1,0.9,0,1.8,0.5,2.7c0.2,0.3,0.5,0.5,0.8,0.7c0.2,0.2,0.4,0.3,0.7,0.5
					c0.1,0.1,0.3,0.2,0.3,0.3c1.3,2-0.7,3.4-2,5.1c0,0-0.1,0.1-0.2,0.1c-0.3,0.3-0.5,0.6-0.6,1C244.9,106.1,244.9,106.6,245,107.3z"
					/>
				<path class="st1" d="M289.4,300.8c-1.1,2.6-1.7,8.2,0.6,10.1c0.1,0.2,0.3,0.4,0.5,0.6c0.3,0.2,0.8,0.1,1.1,0.1
					c0.3,0,0.6,0,0.9,0c2.8-0.4,5.4-2.9,6.8-5.3s1.9-5.3,3.3-7.6c1.7-2.7,4.4-4.6,6.4-7.1c0.3-0.4,0.7-1,1-1.6
					c0.6-0.9,1-1.8,1.2-2.9c0.1-0.5,0.1-1.1,0-1.7c-0.1-1.2-0.6-2.1-2-2.1c0,0-1.1,0.1-1.2,0.2c-0.1,0-0.4,0.2-0.4,0.3
					c-3.5,2.3-8.3,1-11.2,4.3c-1,1.1-1.4,3-1.9,4.5c-0.3,1.2-2.3,3.9-2.7,4.6C290.9,298.3,290,299.4,289.4,300.8z"/>
				<path class="st1" d="M289.7,58.2c1.8,1.9,3.4,4.1,6.3,3.9c3.3-0.2,0.8-0.7,5.8,1.1c1.3,0.5,0.6,1,2.2,0.8c0.4,0,0.7-0.6,1-0.8
					s2.9-2.3,3.2-3.1c0.6-1.1,0.4-1.7-0.6-2.5c-1.1-0.9-3.6-1.1-4.9-1.4c-1.9-0.5-3.7-1-5.6-1.4c-2.8-0.7-5.5-1-8.3-0.5
					c-0.3-0.1-0.7,0-1,0.2h-0.1c-0.1,0-0.2,0.2-0.1,0.3c0,0,0,0,0,0.1C286.9,56.2,289,57.5,289.7,58.2z"/>
				<path class="st1" d="M341,197.2c1.8,4.7,4.3,8.4,9,10.4c4.2,1.7,9,1.5,13.1,3.6c5.5,2.8,4.7,7.2,7.8,11.3
					c0.3,0.4,0.7,0.8,1.1,1.1c3.1-16.7,3.8-33.7,2.1-50.8c-2.3-23.5-9.1-46.1-20.1-67.1c-1-1.9-2-3.7-3-5.6c-1.6-0.4-3.2-1-4.8-1.3
					c-1.2-0.3-2.3-0.3-3.4-0.3c-0.7,0-1.4,0-2,0.1c-0.4,0-0.9,0-1.4,0.1c-3.6,0.1-0.9-0.3-2.7-2.5c-0.7-0.8-1.4-1.6-2.6-1.3
					c-1.1,0.3-0.9,1.1-1.5,1.6c-3.2,2.9-4.5,7.3-9.6,5c-0.7-0.2-1.4-0.4-2.1-0.7c0.9-0.7,1.8-1.3,2.7-2c0.3-0.1,1.7,0.9,2,0.8
					c0.2-0.1,0.3-0.1,0.5-0.2c0.7-0.1,1.3-0.5,1.7-1.2c0.8-0.9,1.1-2,0.5-3.7c-0.5-1.4-1.3-2.2-2.6-3c-2.4-1.5-5.4-1.8-7.9-3.2
					c-2.6-1.4-4.7-3.5-7-5.3c-4.1-3.1-8.6-5.4-13.7-3.7c-0.7,0.1-1.3,0.2-2,0.3c-2.2,0.4-4.4,1.1-6.4,2.3c-3.9,1.8-7.6,4.1-12,4.9
					c-0.7,0.1-1.4,0.3-2.1,0.5c-0.9,0.2-1.7,0.6-2.5,1.1c-2.2,1.2-3.8,3.2-3.1,6.3c0.4,1.8,1.5,2.9,3.2,3.8c4.4,2.2,8,1.1,10.4,6.8
					c0.1,0.2,0.2,0.4,0.3,0.6c0.2,1.5,0.5,2.9,1.9,3.1h0.1c0.7,0.1,1.7-0.4,3.6-1.6c1-0.7,4.3-2.2,4.4-3.8c0-0.7-0.2-1-0.6-1.3
					c-0.2-0.3-0.5-0.5-0.8-0.7c0-0.1-0.1-0.2-0.1-0.3c-0.3-2,1.5-5.2,3.8-6.9c0.8-0.3,1.6-0.7,2.3-1.1c0.2,0,0.4-0.1,0.5-0.1
					c0.2-0.1,0.5-0.3,0.7-0.4c0.8,1.2,1.7,2.3,2.5,3.5c0,0-1.3,0-1.4,0c-0.4,0.3-1.3,0.4-1.8,0.8c-1.6,1.3-1.9,2.7-1.5,4.2
					c0.1,1,0.5,2,1.3,2.7c0.1,0.2,0.2,0.3,0.3,0.5c0.6,0.8,6.5,0.8,1.6,4.2c-0.1,0.1-2.4-0.5-2.7-0.4c-1.2,0.3-1.5,0.7-2.2,1.6
					c-0.4,0.5-0.4,1.5-0.8,2c-0.6,0.8-5.2,3.9-6.6,3.7c-0.3,0-0.5-0.2-0.8-0.3c-0.6-0.4-1.1-0.8-1.7-1.2c-0.7-0.6-1.4-1.1-2-1.4
					c-2.5-1.2-2.7-0.6-4.5-3.6c-1.8-3.1-0.4-3-1.3-5.3c-0.9-2.1-2.8-1.8-4.3-0.4c-1.2,1.1-1.1,2.5-2,3.8c-1.3,1.8-2.6,2-5.1,2.4
					c-0.3,0-1.6-0.6-1.8-0.5c-2.6,0.8-4.4,3.2-7,4.1c-3.5,1.2-5.9,0.2-9.3,0.1c-0.5,0-1.5-0.3-2-0.1c-1.2,0.4-2.5,0.9-2.6,2.5v0.1
					v0.1v0.1c-1,0.5-0.3,0.9,0.7,1.2l0,0c0,0,0,0,0,0.1l0.1,0.1l0.1,0.1c1.5,1.2,0.5,2.3-2.9,3.2c-2.2,1.7-3.1,2.6-3.4,2.9l-0.1-0.1
					c0-0.3-0.1-0.9-1.1-1.3c-1.5-0.6-2.1-2.2-3.9-2.2c-1.6,0-2.6,0.8-3.5,2c-1.3,1.7-1.5,2.9-3.1,4.7c0.4-0.4-3.1,2.6-3.3,2.9
					s-0.3,0.5-0.4,0.8c-0.3,0.5-0.4,1.1-0.3,1.7c0.1,2.9,3.3,5.1,6.2,6.4c5.4,2.4,11.6,2.4,17.2,0.6c2.8-0.9,5.4-2.4,7.7-4.2
					c2.2-1.8,4.5-4.1,7.7-4.2c0.2,0,0.5,0,0.9,0.1c0.1,0,0.2,0.1,0.4,0.1c2,0.9,4,1.7,6,2.6c0.4,0.3,0.8,0.5,1,0.7
					c2.7,2.1,1.9,5.1,3.7,7.6c0.4,0.6,1.6,1.3,1.9,1.9c0.5,1-1,5.5-2.3,6.6c-0.2,0.2-1.4-0.5-1.6-0.2c-0.1,0.1-0.2,0.3-0.3,0.4
					c-0.4,0.3-0.7,0.8-0.7,1.4c-0.3,0.9-0.1,1.9,1.1,2.7c1.9,1.3,4.1,0,5.9-0.4c1.5-0.3,6.5,0.6,7.7-1.1c0.6-0.9,0.6-0.8,0.5-2.2
					c-0.1-1.1-1.1-2.1-1.7-2.9c-1.9-2.3-3.8-3.2-5.3-6.2c-0.4-0.9-0.9-1.8-1.3-2.7c0.9-0.9,1.8-1.7,2.7-2.6c0.1,0,0.4,1.6,0.5,1.6
					c0.3,0.3,0.6,1.2,0.8,1.6c3.6,6,8.8,7.7,8.9,15.8c0,0.2,0,0.4,0,0.6c-0.1,0.1-0.1,0.3-0.2,0.4c-0.1,0.1-0.1,0.1,0,0.1
					c-0.1,0.4-0.2,0.7-0.2,1.1c0,0.3,0.1,0.6,0.3,0.8c0.2,0.9,0.8,1.4,2.6,1c0.8-0.2,1.2-0.6,1.5-1.1c0.4-0.4,0.7-0.9,0.9-1.5
					c0.1-0.1,0.2-0.2,0.2-0.3c1.2-1,3.3-0.8,3.9,1.2c0,0.2,0,0.5,0.1,0.7c0,0.1,0,0.2,0,0.3c-0.1,0.5-0.2,1.1-0.2,1.6
					c0,0.3,0,0.5,0.1,0.7c0,0.5,0,1.1,0.2,1.6c1,3.1,3.9,5.9,6.8,7.3c0.1,0,0.1,0,0.2,0.1c0.3,0.1,0.6,0.3,0.8,0.4
					c0.3,0.1,0.9-0.6,1.2-0.6c6.9,0.9,6.3-0.1,8.1,2.4c-0.5,2.2-1.6,4.1-3.3,5.8c-0.9,0.8-2,1.4-3,1.9c-2.8-0.7-6-0.6-8.7-1.5
					c-2.8-0.9-5.5-2-8-3.6c-1.1-0.8-2.1-1.6-3.2-2.4c-0.7-1.1-1.4-2.2-2.2-3.3c-1.7-1-1.5-0.6-2.1-0.4c-0.3,0-0.5,0.1-0.8,0.2
					c-0.2,0-0.4,0-0.7,0c-0.6,0.2-1.2,0.4-1.8,0.7c-3.1,0.3-5.9-0.3-8.2-2c-2-1.2-4.1-3-5.6-4.7c-3.1-3.4-1.5-7.8-2.8-10.9
					c-0.1-0.5-0.3-1-0.7-1.4c-0.3-0.3-0.7-0.6-1.2-0.7c-0.3-0.2-0.7-0.4-1.2-0.6c-3.5-1.3-7.7-1.3-11.3-1.9
					c-6.3-1-11.1-2.4-16.8-5.2c-0.4-0.2-0.8-0.4-1.3-0.6c-0.7-0.4-1.4-0.8-2.3-0.9c-0.1,0-0.2,0-0.3,0c-0.9-0.1-1.6,0.2-2,1.4
					c-1,1.6-3.6,1.7-5.8,2c-0.1,0-0.2,0-0.3,0c-0.2,0-0.5,0.1-0.7,0.1c-0.6,0.1-1.1,0.3-1.6,0.5c-2.8,1.3-4.8,3.9-7.6,5.2
					c-1.2,0.6-2.5,1.1-3.7,1.6c-1,0.3-2.1,0.7-3.1,1.1c-1.7,0.6-3.4,1.4-5,2.3c-1.8,0.9-3.6,1.9-5.3,3.1c-1.6,1.2-4.3,2.9-5.2,5
					c-0.7,1.6,0.4,5.1,0,7.1c-1.2,5-10.2,9.6-8.2,15.3c1,2.9,4,3.8,5.6,6.7c0.6,0.9,1,3.2,1.2,3.9c0.3,1.7,0.5,3.5,1.1,5.2
					c1.9,4.7,6.3,7.5,10.9,9c7.5,2.5,15.8,1.9,23.4,3.8c5.1,1.3,8.8,4.9,13.5,7.2c1.7,0.8,3.4,1.6,5.2,2.4c0.5,4-3.7,7.1-4.6,11
					c-0.5,2.1-0.1,3.4,0.5,5.4c2.5,8.6,3,17-2.4,24.8c-1.7,2.5-3.8,4.2-5.3,6.3c-0.6,0.7-1.1,1.5-1.4,2.4c-0.1,0.3-0.2,0.6-0.3,0.9
					c-0.3,0.9-0.4,1.9-0.4,3c0,1.3,0.4,2.7,0.5,4c0.4,3.9-0.4,6.5-1.4,10.1c-0.7,2.9-1.3,4.8-1,7.7c0.3,2.9,1.4,5.7,1.8,8.5
					c0.6,3.8-1.2,5.9-1.5,9.3c-0.1,0.7,0,1.3,0.1,1.7c0,0.1,0.1,0.2,0.1,0.3c0,0.1,0.1,0.1,0.1,0.1c0.1,0.1,0.1,0.2,0.2,0.3
					c0,0.1,0.1,0.1,0.2,0.1c1.4,1.5,4.7,1,7.2,0.9c2.4-0.1,4.7-0.3,7-0.7c3.7-0.4,7.3-1.2,10.7-2.8c2.3-1,4.4-2.4,6.4-3.9
					c3.1-2.1,6.2-4.6,9.2-7.6c1.8-1.8,3.6-3.8,4.6-6.2c1.9-4.8-0.8-9.7,6.4-12.7c0.6-0.2,1.2-0.4,1.8-0.6c2.5-0.5,5.2-0.8,7.5-1.8
					l0,0c1.4-0.6,2.7-1.4,3.9-2.9c3.5-4.2,4.2-10.3,5.2-15.5c1-5.7,2.9-9.2,8.2-12.3c3.8-2.2,7.7-4.2,11.6-6.3
					c4.9-2.7,10.9-5.7,14-10.6c1-1.5,1.3-2,1.2-2.5c0-0.1,0-0.2,0-0.3c-0.1-0.4-0.4-0.6-0.8-0.7c-0.1-0.1-0.2-0.2-0.3-0.3
					c-1.7-1.8-6.3-1.6-9.5-2.1c-0.3-0.1-0.5-0.1-0.8-0.1c-0.5-0.1-1-0.3-1.4-0.5c-4.3-2.2-4.3-7.6-5.6-11.7c-1.8-6-3.8-12.8-7-18.3
					c-0.5-4.1-0.3-10,3.3-11.4c0.1,0,0.1,0,0.2-0.1c0.2,0.2,0.5,0.4,0.7,0.6c-0.4,0.5-0.7,0.9,0.3,0.6c1.8,4.2,2.3,9,3.5,13.3
					c0.4,1.5,0.9,2.9,1.4,4.2c0.5,1.4,1,2.7,1.6,4.1c0.5,1,1,2,1.4,3c0.5,1.2,1,2.5,1.3,3.8c0.8,3,0.7,5.3,0.8,6.9
					c0,0.2,0,0.4,0,0.6c0,0.4,0,0.7,0.1,1.1c0.3,0.6,1,0.7,1.7,0.7c0.9,0.1,2.3,0,4.4-0.4c4.8-0.9,8.8-3.1,13.2-4.9
					c3.9-1.6,8.2-1.7,11.1-5.1c0.6-0.7,1-1.4,1.2-2c0.2-0.4,0.5-0.7,0.4-1.2c0-0.4-0.2-0.7-0.5-1.1c-1.2-2.5-5.9-3.9-8.8-5.1
					c-4.5-1.8-9.2-4.2-8.8-10c0.2-3.4-1.2-0.6,3.8-4.6C340.2,194.6,340.6,195.9,341,197.2z"/>
				<path class="st1" d="M243.3,95.6c-0.1-0.4-0.2-0.6-0.4-0.7c-0.2-0.2-0.4-0.3-0.8,0c0,0,0,0.1-0.1,0.1s-0.1,0-0.2,0
					c-1.7,0.5-3.8,1.2-5.2,2.2c-2.5,1.8-1.1,5,1.4,6c1.1,0.4,3.6,1.2,4.7,0.6c0.4-0.2,0.4-0.5,0.6-0.8c0.5-0.9,0.9-2.2,1.1-3.2
					c0.1-0.5,0.1-0.9-0.1-1.3c-0.2-0.4-0.5-0.8-0.7-1.1c-0.3-0.6-0.2-0.6-0.4-1.6C243.3,95.7,243.3,95.7,243.3,95.6z"/>
				<path class="st1" d="M56.1,147.3c0.2,1.4,1.5,1.8,2.6,2.2c1.7,0.5,3.3,0.7,4.9,1.4c1.5,0.7,2.5,1.8,3.9,2.7
					c2.5,1.5,4.6-0.1,3.9-3c-0.3-1.5-1.5-2.8-2.8-3.6c-0.4-0.2-1-0.3-1.6-0.4c-0.4-0.1-0.8-0.1-1.1-0.1c-0.5,0-0.9,0-1.3-0.1
					c0,0,0,0-0.1,0c-0.4-0.1-1.1-0.2-1.9-0.5c-0.1-0.1-0.2-0.1-0.3-0.2c-0.1-0.2-0.4-0.1-0.4,0.1C59.3,145.3,55.8,144.8,56.1,147.3z
					"/>
				<path class="st1" d="M79.6,49.2c1.2-0.2,2.7-1.5,3.7-2.1c0.8-0.5,2.3-1,2.7-1.9c0.4-0.8,0.1-1.8-0.7-2.3
					c-0.1-0.1-0.2-0.1-0.3-0.2c-2.7,2-5.4,4-8,6.1c0.3,0.1,0.7,0.1,1.2,0.2C79,49.2,78.8,49.3,79.6,49.2z"/>
				<path class="st1" d="M195.4,59.5c0.7,1.2,1.9,1.2,3.1,1c3.6-0.4,7.3-1.8,10.7-3c1.6-0.6,6.3-2.4,3.3-4.6c-1.5-1.1-3.5-0.1-5,0.4
					c-3.9,1.2-7.8,2.1-11.7,0.7c-0.2-0.1-0.3,0.1-0.2,0.3C194,54.8,194.7,58.4,195.4,59.5z"/>
				<path class="st1" d="M222.6,22c-1.9-1.1-2.9-1.1-5.1-0.6c-1.1,0.4-2.2,0.8-3.3,1.2c-2.9,0.1-5.6-0.6-8.1-1.9
					c-1.5-0.4-2.6-0.8-4.3-0.9c-8.5-0.8-18.4,1.7-26.5,3.7c-4.9,1.2-10,3.1-15.2,3c-4-0.1-7.5-2.6-11.5-2.4c-0.5,0-1,0.1-1.6,0.3
					c-1.1-0.7-2.3-0.6-4-0.2c-6.4,1.6-12.3,5-18.9,6.3c-4.9,1-9.8,1.6-14,4.4c-4,2.6-9.8,6.9-12.3,10.8c0,0.1,0,0.1,0,0.2
					c0.3,2.6-0.3,4.8-1.8,6.6c-1.6,0.2-3.2,0.4-4.7,0.6c0.1-0.7-0.2-2.9-0.1-2.7c-0.3-0.9-0.8-1.3-1.8-1.7c-3.9-1.4-5.1,3.7-5.8,6.2
					c-1.4,4.9-4.8,8.6-9.6,8.6c-0.8-0.1-1.6-0.2-2.4-0.2c-0.3-0.1-0.6-0.1-1-0.2c-2.8,0.9-3.8-0.7-2.8-4.7c0.5-0.1,1.1-0.1,1.6-0.2
					c1.2-0.6,2.7-0.2,3.9-1c1.6-1.1,3.1-3.4,1.6-5.3c-0.8-0.9-1.5-0.8-2.4-0.7c-7.8,6.6-15,13.8-21.7,21.7
					C35,91.5,23.2,113,15.9,136.5c-0.9,2.9-1.7,5.7-2.4,8.6c0.3,0.3,0.5,0.5,0.8,0.8c0.1,0.1,0.3,0.1,0.3-0.1c0,0,0-0.2,0.1-0.3
					c0.4-0.6,0.4-1.4,0.2-2.1c0-0.4,0-0.7,0-0.6c2.2-3.7,2.8-1,2.8,1.4c0,1.3-0.3,3.8-0.4,4.7c-0.3,2.1-0.9,4.2,1,5.7
					c2.8,2.1,8.2,1.1,11.3,2.2c3.7,1.4,5.5,3.8,8.7,5.6c2.3,1.3,4.3,1.6,6.7,3c4.4,2.5,2.3,1.8,4,4.8c0.4,0.8,0.8,1.5,1.6,1.9
					c0.2,0.1,0.4,0.2,0.5,0.2c0.3,0.4,0.9,0.6,1.1,0.9c1.2,2,0.3,0.1,0.6,0.4c0.9,1,7,8.5,6.4,10.4c0,0.2-0.1,0.3-0.2,0.5
					c-0.3,0.3-0.6,0.5-0.9,0.8c-0.3,0.3-0.6,0.6-0.9,1c-0.4,0.3-0.7,0.7-0.9,1c-0.8,1.3-1.2,2.7-1.4,4.2c-1.3,9,5.6,16,8.5,23.9
					c1.1,3,0.9,6.2,3.2,8.5c1.8,1.8,4.6,2.4,6.2,4.5c3,3.9,2.9,8,2.7,12.6c-0.2,4.3,0.8,8.2,1.8,12.3c1.7,7,0.7,13.1,0.2,20.1
					c-0.8,10,3.1,19.4,6.1,28.8c2.1,6.6,3.4,18.2,9.3,22.6c1.3,1,2.7,1.4,4.2,2.1c2.6,1.2,2.9,1.2,6.2,3.6c0.1,0.1,0.9,1.3,1,1.3
					c1.3,0.4,1.3,1.3,2.6,0.4c1.1-0.8,0.9-2.6,0.5-3.6s-1.7-1.6-2.3-2.4c-2.7-3.3-2.5-5.9-2.1-9.9c0.1-1.2,0.1-2.2,0.1-3.1
					c0-1.3-0.1-2.6-0.5-3.8c-0.1-0.3-0.1-0.6-0.2-0.9c-0.4-2.2,0-4.2,0.2-6.3c0.3-0.6,0.4-1.3,0.3-1.9c-0.1-0.3-0.2-0.6-0.3-0.9
					c0-0.2,0-0.3-0.1-0.5c-0.5-2.5-3.9-5.7-1.9-8.8c0.7-1.1,3.8-3.4,5.4-3.6c0.4-0.1,1,0.6,1.4,0.5c0.2-0.1,0.4-0.1,0.6-0.1
					s0.3,0,0.5,0c0.4,0,0.7,0,1.3-0.6c0.2-0.2,0.2-1.7,0.2-1.9c0.1-0.8,0.3-1.6,0.4-2.4c-0.4-2.3,0.2-2.9,1.6-1.8h0.1
					c0.1-0.1,0.2-0.1,0.3-0.2c1,0.1,1.8-0.6,2.4-1.4c0.2-0.2,0.4-0.5,0.7-0.9c1.2-1.9,1.2-4.8,2.7-6.8c0.6-0.8,1.8-1.5,2.5-2.2
					c0.8-0.8,1.6-1.7,2-2.8c0.2-0.7,0.3-1.3,0.2-2c0-0.2,0-0.4-0.1-0.6c-0.3-2.1-1.3-4.2-0.1-6.1c3-4.5,8.2-3.1,12.5-3.4
					c0.4,0,0.8,0,1.1,0c0.8-0.1,1.5-0.4,2.2-0.8c1.3-0.7,2.4-1.9,3.1-3.9c0-0.1,0.1-0.2,0.1-0.4c0.1-0.6,0.4-2.9,0.3-4.2
					c-0.1-1.3-0.8-3.7-0.9-5.2c0-0.2,0-0.4-0.1-0.6c-0.2-3.4-0.3-6,1.7-8.8c1.1-1.5,2.3-2.5,3.4-3.9c0.7-0.9,1.5-1.6,1.9-2.7
					c2.1-5.5-4.3-12.6-8.5-15.4c-4.4-2.9-9.6-4.8-14.3-6.9c-0.8-0.3-1.9-0.8-3.2-1.2c-2.3-1-4.5-2.1-6.8-3.1
					c-0.2-0.1-0.4-0.2-0.6-0.3c-0.2-0.2-0.4-0.3-0.6-0.5c-1.6-1.8-1.7-4.5-2.7-6.5c-1.5-3-3.9-4.8-6.9-6.2c-1.6-0.7-3.2-1.2-4.8-1.8
					c-1.7-0.6-3.5-1.3-5-2.2c-3-1.9-2.9-4.4-4.9-7.1c-0.1-0.2-0.2-0.3-0.3-0.5c-0.2-0.5-0.5-0.9-0.9-1.3c-0.1-0.1-0.2-0.1-0.3-0.2
					c0,0,0,0-0.1,0S88,170,87.9,170c-0.3-0.2-0.8-0.3-1.4-0.4c-1.4-0.2-2.4,1-3.6,1.3c-4.5,0.8-8.1-1.1-12-2.4
					c-2.2-0.7-3.6-0.4-5.6,0.4c-2.2,1-3.3,3.6-7,2.3c-0.3-0.1-0.5-0.2-0.7-0.3c-0.6-0.4-1.3-0.8-2-0.9h-0.1h-0.1
					c-0.3,0-0.6-0.1-1.1,0c0.7-2.8,0.3-8,0-9.5c-0.1-0.6-0.2-1-0.4-1.3c-0.1-0.4-0.3-0.7-0.6-1c-0.4-0.3-0.8-0.5-1.3-0.6
					c-0.1-0.1-0.2-0.2-0.2-0.2c-2-2.1-2.3-4.3-3.1-6.5c-0.2-0.7,0-1.8-0.8-2.3c-1-0.6-1.1-0.5-1.6-0.2c-0.1,0-0.2,0.1-0.2,0.1
					c-0.2,0.1-0.4,0.1-0.6,0.2c0.1,0-2.6,1.5-5,3c-1.8,0.6-3.8,0.9-4.8,0.2c-4.7-3.2-3.3-8.1-1.2-12.2c3-6,7.2-6.7,13.2-6.7
					c6.4,0,8.1,0.9,10.6,7.3c0.1,0.3,0.2,0.6,0.4,0.9c0.1,0.6,0.4,1.1,0.7,1.6c0.1,0.2,0.3,0.3,0.5,0.4c0.8,0.9,1.8,1.2,3.1-0.2
					c1.1-1.1,0-4.4-0.1-5.9c0-1.4-0.2-4.1,0.5-5.4c1.4-2.4,5.1-3.5,7-4.9c0.2-0.1,0.3-0.2,0.4-0.3c0.3-0.1,0.6-0.3,0.9-0.5
					c0.7-0.5,1.1-1.4,1.4-2.2c0.9-1.5,1.5-3.3,2.9-5.5c5.2-8.7,12.2-9.5,21.3-10.7c2.4-0.3,9.9,0,11.2-2.7c0.6-1.2,0.4-1.7,0-2.1
					c-0.3-0.4-0.7-0.7-1.1-0.9c-0.1-0.1-0.2-0.1-0.3-0.2c-0.9-0.7-0.8,0.2-1.7-0.2c-3.1,0.1-1.3-1,5.4-3.3c-0.3,0.4-0.6,0.8-0.8,1.2
					c0,0.1,0,0.2,0,0.3c-0.2,0.3-0.3,0.7-0.4,1c-0.1,0.2-0.1,0.4,0.1,1c0,0.1,0.1,0.2,0.2,0.1c2.7-0.8,8-1.3,10-3.7
					c0.9-1,1-1.6,0.8-2.1c0-0.2-0.1-0.5-0.2-0.8c-0.2-0.4-0.5-0.7-0.8-1c0-0.1-0.1-0.3-0.1-0.4c-0.6-2.3,1.1-5.4-0.4-7.4
					c-0.5-0.7-1.8-0.7-2.3-1.3c-0.1-0.1-1.4-4.9-1.6-5.9c-0.1-0.6,0.2-1.6,0.3-2.3c0-0.2-0.1-0.5-0.2-0.7l-0.1-0.1
					c-0.2-0.5-0.6-0.8-1.6-1.1c-1.2-0.3-2,0.5-3,0.6c-2.8,0.5-0.5,1.6-4.5,0.4c-4.6-1.4-1.3-0.4-2.8-2.7c-0.1-0.2-0.2-0.4-0.3-0.6
					c-0.1-0.4-0.2-0.8-0.4-1.2c-0.2-0.7-0.6-1.3-2-1.6c-3.4-0.6-5.7,4.5-9.1,4.6c-0.2,0-0.3,0.2-0.2,0.3c2.1,2.6-0.9,5.6-3.5,8.1
					c-0.7,0.5-1.3,1.1-1.8,1.7C86,84.7,86,84.7,86,84.8c-0.4,0.5-0.8,0.9-1,1.3c0.1-0.1-1.4,3.6-1.3,3.5c-2.1-0.2-4.3-0.5-6.4-0.7
					c0.2-0.5,0.3-1,0.4-1.5c-0.1-0.1-0.2-0.3-0.3-0.6v-0.1c-0.1-0.3-0.2-0.6-0.3-0.7c-0.7-0.9-2.3-0.5-3.2-1
					c-2.1-0.1-3.3-1.4-3.7-3.8c-1.2-0.8-1.8-1.7-2-2.6c4.9-1.5,8-6.9,12.9-8.7c2-0.7,4.2-1.2,6-2.3c2.5-1.5,4-3.9,6.3-5.7
					c2.6-2,4.9-2.1,7.5-3.7c0.4-0.3,1-1.2,1.3-1.6c0.4-0.7,0.8-1.4,1.1-1.9l0.2-0.3l0.2-0.3c0.2-0.2,0.3-0.3,0.5-0.5
					c0.3-0.3,0.7-0.5,1.1-0.7c0.8,0,1.3,1.2,1.5,3.7c2.1,2.3,2.5,3.5,1.2,3.6c-0.1,0.1-0.2,0.2-0.3,0.2c-1,0.1-2,0.2-2.9,0.7
					l-0.1,0.1c-0.5,0.2-1,0.4-1.3,0.9c-1,1.5-0.7,1.6-0.4,3.2c0,0.1,0.1,0.2,0.2,0.1c3.9-0.4,11.9,7.3,16,3.2
					c0.3-0.3,0.5-0.8,0.8-1.1c0.2-0.6,0.3-1.1,0.4-1.7c1.2-2.3,2.7-3.5,4.7-3.7c0.2-0.1,0.3-0.2,0.4-0.3c0.3-0.1,0.5-0.2,0.8-0.3
					c0.2-0.1,0.4-0.3,0.6-0.5c0.3-0.3,0.5-0.6,0.7-1.3c0.4-1.4-0.2-2.8-1.1-3.9c-1.3-1.7-3.8-2.3-5.5-3.4c-5.7-3.6-7.6-8.8,0.6-13.9
					c0.3-0.2,0.6-0.3,0.9-0.5c1.2-0.5,2.4-1.1,3.6-1.7c3.8-1.9,7.5-3.8,11.3-5.8c2.2,0.4,3.5,0.9,3.9,1.4c0.4,0.6-0.6,1.4-1.1,1.7
					s-2.3,0.9-2.3,0.9c-0.1,0-0.2,0.1-0.3,0.1c-0.6,0.4-1.3,0.7-1.8,1.2c-1.1,1.1-1.4,1.4-1.6,3c0,0.1,0,0.1,0.1,0.2
					c0.1,0.1,0.2,0.1,0.3,0.1c0.3,0.2,0.6,0.3,1,0.3c1,0,1.6-0.7,3.3-1C143.2,37,146,39,148,45c-0.4,0.5-0.7,0.9-1,1.5
					c0.1-1.8-0.7,2.9-0.5,2.4c-1.2,3.1-2.7,6.1-4.1,9c-0.7,1.4-1.1,2.2-1.5,3.8c-0.5,2.1-0.8,5.1-0.4,7.3c0.7,4,2.7,4.8,5.2,4.1
					c0.8-0.2,1.6-0.5,2.3-1c0.6-0.2,1.2-0.7,1.9-1.2c0,0,0.4-0.3,0.3-0.3c0,0,1.7-1.5,2.1-1.9c4.7-4.1,9.2-9.6,10.6-10.6
					c4-2.8,9.2-2.4,13.9-3.2c3.9-0.7,7-1.8,10.3-4c3.9-2.6,7.3-4.6,11.4-6.8c1.9-1,1.4-0.5,2.7-1.9c1.1-1.3,0.7-1.8,0.1-2.2
					c0-0.1,0-0.2-0.1-0.2c-0.2-0.3-0.5-0.6-0.6-0.9c0.3-0.6,1.5-1.5,4.3-3.1c0.2-0.1,0.3-0.2,0.4-0.2c0.4,0,0.8-0.1,1.1-0.1
					c0.3,0.2,0.3,0.6,1.7-0.5c1.3-1,0.9-1.8,1.8-3c2.7-3.7,3.3-4.1,6.6-5.5c2.5-1.1,4.4-1.9,6-4C222.7,22.2,222.7,22,222.6,22z"/>
			</g>
		</g>
		<g>
			<g>
				<defs>
					<circle id="SVGID_00000039128293159350873920000011775709485707675521_" cx="191" cy="193" r="184.2"/>
				</defs>
				<clipPath id="SVGID_00000126303645585751916930000013602009700922041002_">
					<use xlink:href="#SVGID_00000039128293159350873920000011775709485707675521_"  style="overflow:visible;"/>
				</clipPath>

					<path style="clip-path:url(#SVGID_00000126303645585751916930000013602009700922041002_);fill:none;stroke:#FFFFFF;stroke-width:2.1024;stroke-miterlimit:10;" d="
					M93.2,28.1c0,0,147.6-37,278.1,84.4"/>
			</g>
			<g>
				<defs>
					<circle id="SVGID_00000057868119121987135950000016609737922819998100_" cx="191" cy="193" r="184.2"/>
				</defs>
				<clipPath id="SVGID_00000177464016461708439520000004884160853769950627_">
					<use xlink:href="#SVGID_00000057868119121987135950000016609737922819998100_"  style="overflow:visible;"/>
				</clipPath>

					<path style="clip-path:url(#SVGID_00000177464016461708439520000004884160853769950627_);fill:none;stroke:#FFFFFF;stroke-width:2.1024;stroke-linejoin:bevel;stroke-miterlimit:10;" d="
					M384.9,172.2C318.8,58.6,157.8,46,157.8,46l17.5-22.5L195.7,54l32.2-21.1l13.7,30.3L267.8,46l8.8,32.8l25.1-15.6l13.3,37.5
					l38.8-1.9"/>
			</g>
			<g>
				<defs>
					<circle id="SVGID_00000085227500844386266140000013348263878257857669_" cx="191" cy="193" r="184.2"/>
				</defs>
				<clipPath id="SVGID_00000134970254756649554730000009184728350445739683_">
					<use xlink:href="#SVGID_00000085227500844386266140000013348263878257857669_"  style="overflow:visible;"/>
				</clipPath>

					<path style="clip-path:url(#SVGID_00000134970254756649554730000009184728350445739683_);fill:none;stroke:#FFFFFF;stroke-width:2.1024;stroke-miterlimit:10;" d="
					M209.1,83.1c39.8,12.8,149.6,55.9,175.8,148.4"/>
			</g>
			<g>
				<defs>
					<circle id="SVGID_00000077305882812895764730000000442375089815956138_" cx="191" cy="193" r="184.2"/>
				</defs>
				<clipPath id="SVGID_00000083808114015987695610000016441073652258740924_">
					<use xlink:href="#SVGID_00000077305882812895764730000000442375089815956138_"  style="overflow:visible;"/>
				</clipPath>

					<polyline style="clip-path:url(#SVGID_00000083808114015987695610000016441073652258740924_);fill:none;stroke:#FFFFFF;stroke-width:2.1024;stroke-linejoin:bevel;stroke-miterlimit:10;" points="
					157.8,1.8 175.2,23.5 222.7,1.8 227.9,32.9 258.4,12.8 267.8,46 294.2,30.6 301.7,63.2 325.5,56.5 				"/>
			</g>
			<g>
				<defs>
					<circle id="SVGID_00000141425871930498288970000001721691921031152057_" cx="191" cy="193" r="184.2"/>
				</defs>
				<clipPath id="SVGID_00000109023253967944103290000009058656185078704011_">
					<use xlink:href="#SVGID_00000141425871930498288970000001721691921031152057_"  style="overflow:visible;"/>
				</clipPath>

					<polyline style="clip-path:url(#SVGID_00000109023253967944103290000009058656185078704011_);fill:none;stroke:#FFFFFF;stroke-width:2.1024;stroke-linejoin:bevel;stroke-miterlimit:10;" points="
					375,164.7 343.5,161.7 354.1,132 311.4,133.9 315.1,100.8 283,112.8 276.6,78.8 246.8,96.6 241.7,63.2 209.1,83.1 195.7,54
					"/>
			</g>
			<g>
				<defs>
					<circle id="SVGID_00000086680637662542815210000002116595253932205499_" cx="191" cy="193" r="184.2"/>
				</defs>
				<clipPath id="SVGID_00000134251115075437252470000006512512668713564825_">
					<use xlink:href="#SVGID_00000086680637662542815210000002116595253932205499_"  style="overflow:visible;"/>
				</clipPath>

					<path style="clip-path:url(#SVGID_00000134251115075437252470000006512512668713564825_);fill:none;stroke:#FFFFFF;stroke-width:2.1024;stroke-linejoin:bevel;stroke-miterlimit:10;" d="
					M274.7,143.5"/>
			</g>
			<g>
				<defs>
					<circle id="SVGID_00000007390252797911280640000005047361170513665165_" cx="191" cy="193" r="184.2"/>
				</defs>
				<clipPath id="SVGID_00000143587269850477987850000003332678849784147847_">
					<use xlink:href="#SVGID_00000007390252797911280640000005047361170513665165_"  style="overflow:visible;"/>
				</clipPath>

					<path style="clip-path:url(#SVGID_00000143587269850477987850000003332678849784147847_);fill:none;stroke:#FFFFFF;stroke-width:2.1024;stroke-linejoin:bevel;stroke-miterlimit:10;" d="
					M351.8,234.9l-26.3,39H367C368.9,265.7,354,244,351.8,234.9"/>
			</g>
			<g>
				<defs>
					<circle id="SVGID_00000115479825012097860370000004822291898249825171_" cx="191" cy="193" r="184.2"/>
				</defs>
				<clipPath id="SVGID_00000106133476169926945800000018224267130108832659_">
					<use xlink:href="#SVGID_00000115479825012097860370000004822291898249825171_"  style="overflow:visible;"/>
				</clipPath>

					<path style="clip-path:url(#SVGID_00000106133476169926945800000018224267130108832659_);fill:none;stroke:#FFFFFF;stroke-width:2.1024;stroke-linejoin:bevel;stroke-miterlimit:10;" d="
					M274.7,143.5"/>
			</g>
			<g>
				<defs>
					<circle id="SVGID_00000080908189849498080030000007505141890323336872_" cx="191" cy="193" r="184.2"/>
				</defs>
				<clipPath id="SVGID_00000125596008898642265860000017323212895355303332_">
					<use xlink:href="#SVGID_00000080908189849498080030000007505141890323336872_"  style="overflow:visible;"/>
				</clipPath>

					<path style="clip-path:url(#SVGID_00000125596008898642265860000017323212895355303332_);fill:none;stroke:#FFFFFF;stroke-width:2.1024;stroke-linejoin:bevel;stroke-miterlimit:10;" d="
					M314.2,240c5.8,12.5,9.4,23.9,11.5,33.9l-40.9-5.2L314.2,240"/>
			</g>
			<g>
				<defs>
					<circle id="SVGID_00000036940181465713317540000000572714539698862513_" cx="191" cy="193" r="184.2"/>
				</defs>
				<clipPath id="SVGID_00000038415081008264403180000016132469023675721868_">
					<use xlink:href="#SVGID_00000036940181465713317540000000572714539698862513_"  style="overflow:visible;"/>
				</clipPath>

					<path style="clip-path:url(#SVGID_00000038415081008264403180000016132469023675721868_);fill:none;stroke:#FFFFFF;stroke-width:2.1024;stroke-linejoin:bevel;stroke-miterlimit:10;" d="
					M298.2,209.4"/>
			</g>
			<g>
				<defs>
					<circle id="SVGID_00000155112817930919649060000006766385644522627251_" cx="191" cy="193" r="184.2"/>
				</defs>
				<clipPath id="SVGID_00000051361902678115907990000013402962452583946905_">
					<use xlink:href="#SVGID_00000155112817930919649060000006766385644522627251_"  style="overflow:visible;"/>
				</clipPath>

					<polyline style="clip-path:url(#SVGID_00000051361902678115907990000013402962452583946905_);fill:none;stroke:#FFFFFF;stroke-width:2.1024;stroke-linejoin:bevel;stroke-miterlimit:10;" points="
					274.7,143.5 309.6,180 298.2,209.4 328.5,205.6 314.2,240 351.8,234.9 376.7,209.4 328.5,205.6 343.5,161.7 309.6,180
					311.4,133.9 274.7,143.5 283,112.8 251.7,123.9 246.8,96.6 				"/>
			</g>
			<g>
				<defs>
					<circle id="SVGID_00000086689166955385652310000001598823739939876505_" cx="191" cy="193" r="184.2"/>
				</defs>
				<clipPath id="SVGID_00000183214853635572232180000009815242302493429384_">
					<use xlink:href="#SVGID_00000086689166955385652310000001598823739939876505_"  style="overflow:visible;"/>
				</clipPath>

					<path style="clip-path:url(#SVGID_00000183214853635572232180000009815242302493429384_);fill:none;stroke:#FFFFFF;stroke-width:2.1024;stroke-linejoin:bevel;stroke-miterlimit:10;" d="
					M332.3,320.8l-6.7-47c0,0-19.1,20.9-31.8,33.2L332.3,320.8z"/>
			</g>
			<g>
				<defs>
					<circle id="SVGID_00000176019100656253284400000015658947293943546788_" cx="191" cy="193" r="184.2"/>
				</defs>
				<clipPath id="SVGID_00000018234737944891056660000003676510673899820458_">
					<use xlink:href="#SVGID_00000176019100656253284400000015658947293943546788_"  style="overflow:visible;"/>
				</clipPath>

					<polyline style="clip-path:url(#SVGID_00000018234737944891056660000003676510673899820458_);fill:none;stroke:#FFFFFF;stroke-width:2.1024;stroke-linejoin:bevel;stroke-miterlimit:10;" points="
					309.6,180 328.5,205.6 351.8,234.9 				"/>
			</g>
			<g>
				<circle id="SVGID_1_" class="st15" cx="191" cy="193" r="184.2"/>
			</g>
		</g>
	</g>
</g>
<g>
	<path class="st16" d="M1222.9,720.2"/>
</g>
<path class="st16" d="M-13,12.2"/>
<g>
	<path class="st1" d="M553.4,124.3v138.8h-30.9v-17.7c-10.4,12.7-26.8,19.5-44.7,19.5c-35.6,0-59.8-19.5-59.8-61.4v-79.3h32.5v74.9
		c0,25.2,12,37.2,32.5,37.2c22.6,0,38-14,38-41.9v-70.2L553.4,124.3L553.4,124.3z"/>
	<path class="st0" d="M684.5,263.1L648.8,215L613,263.1h-35.9l54.1-70.5l-51.7-68.4h36.1l34.1,45.5l34.1-45.5h35.1l-52,67.9l54.3,71
		H684.5z"/>
	<path class="st0" d="M858.7,181.8v81.4H828v-16.9c-7.8,12-22.9,18.7-43.7,18.7c-31.7,0-51.7-17.4-51.7-41.6
		c0-23.1,15.6-41.3,57.7-41.3h35.9V180c0-19-11.4-30.2-34.6-30.2c-15.6,0-31.7,5.2-42.1,13.8l-12.7-23.7
		c14.8-11.4,36.4-17.2,58.8-17.2C835.5,122.7,858.7,141.7,858.7,181.8z M826.2,219.7v-16.1h-33.5c-22.1,0-28.1,8.3-28.1,18.5
		c0,11.7,9.9,19.2,26.5,19.2C806.9,241.3,820.7,234,826.2,219.7z"/>
	<path class="st0" d="M980.6,122.7v30.9c-2.9-0.5-5.2-0.8-7.5-0.8c-24.7,0-40.3,14.6-40.3,42.9V263h-32.5V124.3h30.9v20.3
		C940.6,130,957.5,122.7,980.6,122.7z"/>
	<path class="st0" d="M1088.5,122.7v30.9c-2.9-0.5-5.2-0.8-7.5-0.8c-24.7,0-40.3,14.6-40.3,42.9V263h-32.5V124.3h30.9v20.3
		C1048.5,130,1065.4,122.7,1088.5,122.7z"/>
	<path class="st0" d="M1231.5,181.8v81.4h-30.7v-16.9c-7.8,12-22.9,18.7-43.7,18.7c-31.7,0-51.7-17.4-51.7-41.6
		c0-23.1,15.6-41.3,57.7-41.3h35.9V180c0-19-11.4-30.2-34.6-30.2c-15.6,0-31.7,5.2-42.1,13.8l-12.7-23.7
		c14.8-11.4,36.4-17.2,58.8-17.2C1208.4,122.7,1231.5,141.7,1231.5,181.8z M1199,219.7v-16.1h-33.5c-22.1,0-28.1,8.3-28.1,18.5
		c0,11.7,9.9,19.2,26.5,19.2C1179.8,241.3,1193.5,234,1199,219.7z"/>
	<path class="st0" d="M1400.5,124.3l-65,150c-12.7,31.5-30.4,41.1-53.6,41.1c-13.8,0-28.3-4.7-37.2-12.7l13-23.9
		c6.2,6,15.1,9.6,23.9,9.6c11.4,0,18.2-5.5,24.4-19.2l2.3-5.5l-60.6-139.4h33.8l43.7,102.7l43.9-102.7L1400.5,124.3L1400.5,124.3z"
		/>
</g>
</svg>
