<?xml version="1.0" encoding="utf-8"?>
<!-- Generator: Adobe Illustrator 28.6.0, SVG Export Plug-In . SVG Version: 9.03 Build 54939)  -->
<svg version="1.1" id="Layer_1" xmlns="http://www.w3.org/2000/svg" xmlns:xlink="http://www.w3.org/1999/xlink" x="0px" y="0px"
	 viewBox="0 0 1431.3 386" style="enable-background:new 0 0 1431.3 386;" xml:space="preserve">
<style type="text/css">
	.st0{fill:#0F4565;}
	.st1{fill:#E38017;}

		.st2{clip-path:url(#SVGID_00000083083787914186908250000002658582480203890364_);fill:none;stroke:#FFFFFF;stroke-width:2.1024;stroke-miterlimit:10;}

		.st3{clip-path:url(#SVGID_00000083083787914186908250000002658582480203890364_);fill:none;stroke:#FFFFFF;stroke-width:2.1024;stroke-linejoin:bevel;stroke-miterlimit:10;}
	.st4{fill:#343741;}
</style>
<g>
	<g>
		<g>
			<circle class="st0" cx="191" cy="192.7" r="184.2"/>
			<g>
				<path class="st1" d="M101.9,38.8c-1.7-1.8-4.2-2.8-6.7-2.3c-1.6,0.3-2.9,1.7-1.2,3c1.3,1,3.1,0.4,4.5,1.2
					c0.9,0.5,1.4,1.4,2.6,1.2c1.4-0.3,1.6-1.8,0.8-2.8C102,39,102,38.9,101.9,38.8z"/>
				<path class="st1" d="M245,107.3c0.8,3.2,5.3,3.7,7.8,4.6c1.8,0.7,3.7,1.4,5-0.6c1.9-2.9-1-5.4-2.3-7.7c-2.1-3.7,1.4-7.9-1-11.3
					c-1.7-2.5-4.9-2.2-7.3-1.2c0,0-0.1,0-0.1,0c0,0-0.1,0-0.1,0.1c0,0-0.1,0-0.1,0.1c-0.1,0.1-0.2,0.1-0.3,0.2
					c-0.3,0.2-0.5,0.6-0.5,1.1c-0.1,0.3-0.2,0.6-0.1,0.9c-0.2,0.5-0.3,1.1-0.4,1.7c-0.1,0.9,0,1.8,0.5,2.7c0.2,0.3,0.5,0.5,0.8,0.7
					c0.2,0.2,0.4,0.3,0.7,0.5c0.1,0.1,0.3,0.2,0.3,0.3c1.3,2-0.7,3.4-2,5.1c0,0-0.1,0.1-0.2,0.1c-0.3,0.3-0.5,0.6-0.6,1
					C244.9,106.1,244.9,106.6,245,107.3z"/>
				<path class="st1" d="M289.4,300.8c-1.1,2.6-1.7,8.2,0.6,10.1c0.1,0.2,0.3,0.4,0.5,0.6c0.3,0.2,0.8,0.1,1.1,0.1
					c0.3,0,0.6,0,0.9,0c2.8-0.4,5.4-2.9,6.8-5.3c1.4-2.4,1.9-5.3,3.3-7.6c1.7-2.7,4.4-4.6,6.4-7.1c0.3-0.4,0.7-1,1-1.6
					c0.6-0.9,1-1.8,1.2-2.9c0.1-0.5,0.1-1.1,0-1.7c-0.1-1.2-0.6-2.1-2-2.1c0,0-1.1,0.1-1.2,0.2c-0.1,0-0.4,0.2-0.4,0.3
					c-3.5,2.3-8.3,1-11.2,4.3c-1,1.1-1.4,3-1.9,4.5c-0.3,1.2-2.3,3.9-2.7,4.6C290.9,298.3,290,299.4,289.4,300.8z"/>
				<path class="st1" d="M289.7,58.2c1.8,1.9,3.4,4.1,6.3,3.9c3.3-0.2,0.8-0.7,5.8,1.1c1.3,0.5,0.6,1,2.2,0.8c0.4,0,0.7-0.6,1-0.8
					c0.3-0.2,2.9-2.3,3.2-3.1c0.6-1.1,0.4-1.7-0.6-2.5c-1.1-0.9-3.6-1.1-4.9-1.4c-1.9-0.5-3.7-1-5.6-1.4c-2.8-0.7-5.5-1-8.3-0.5
					c-0.3-0.1-0.7,0-1,0.2c0,0-0.1,0-0.1,0c-0.1,0-0.2,0.2-0.1,0.3c0,0,0,0,0,0.1C286.9,56.2,289,57.5,289.7,58.2z"/>
				<path class="st1" d="M341,197.2c1.8,4.7,4.3,8.4,9,10.4c4.2,1.7,9,1.5,13.1,3.6c5.5,2.8,4.7,7.2,7.8,11.3
					c0.3,0.4,0.7,0.8,1.1,1.1c3.1-16.7,3.8-33.7,2.1-50.8c-2.3-23.5-9.1-46.1-20.1-67.1c-1-1.9-2-3.7-3-5.6c-1.6-0.4-3.2-1-4.8-1.3
					c-1.2-0.3-2.3-0.3-3.4-0.3c-0.7,0-1.4,0-2,0.1c-0.4,0-0.9,0-1.4,0.1c-3.6,0.1-0.9-0.3-2.7-2.5c-0.7-0.8-1.4-1.6-2.6-1.3
					c-1.1,0.3-0.9,1.1-1.5,1.6c-3.2,2.9-4.5,7.3-9.6,5c-0.7-0.2-1.4-0.4-2.1-0.7c0.9-0.7,1.8-1.3,2.7-2c0.3-0.1,1.7,0.9,2,0.8
					c0.2-0.1,0.3-0.1,0.5-0.2c0.7-0.1,1.3-0.5,1.7-1.2c0.8-0.9,1.1-2,0.5-3.7c-0.5-1.4-1.3-2.2-2.6-3c-2.4-1.5-5.4-1.8-7.9-3.2
					c-2.6-1.4-4.7-3.5-7-5.3c-4.1-3.1-8.6-5.4-13.7-3.7c-0.7,0.1-1.3,0.2-2,0.3c-2.2,0.4-4.4,1.1-6.4,2.3c-3.9,1.8-7.6,4.1-12,4.9
					c-0.7,0.1-1.4,0.3-2.1,0.5c-0.9,0.2-1.7,0.6-2.5,1.1c-2.2,1.2-3.8,3.2-3.1,6.3c0.4,1.8,1.5,2.9,3.2,3.8c4.4,2.2,8,1.1,10.4,6.8
					c0.1,0.2,0.2,0.4,0.3,0.6c0.2,1.5,0.5,2.9,1.9,3.1c0,0,0.1,0,0.1,0c0.7,0.1,1.7-0.4,3.6-1.6c1-0.7,4.3-2.2,4.4-3.8
					c0-0.7-0.2-1-0.6-1.3c-0.2-0.3-0.5-0.5-0.8-0.7c0-0.1-0.1-0.2-0.1-0.3c-0.3-2,1.5-5.2,3.8-6.9c0.8-0.3,1.6-0.7,2.3-1.1
					c0.2,0,0.4-0.1,0.5-0.1c0.2-0.1,0.5-0.3,0.7-0.4c0.8,1.2,1.7,2.3,2.5,3.5c0,0-1.3,0-1.4,0c-0.4,0.3-1.3,0.4-1.8,0.8
					c-1.6,1.3-1.9,2.7-1.5,4.2c0.1,1,0.5,2,1.3,2.7c0.1,0.2,0.2,0.3,0.3,0.5c0.6,0.8,6.5,0.8,1.6,4.2c-0.1,0.1-2.4-0.5-2.7-0.4
					c-1.2,0.3-1.5,0.7-2.2,1.6c-0.4,0.5-0.4,1.5-0.8,2c-0.6,0.8-5.2,3.9-6.6,3.7c-0.3,0-0.5-0.2-0.8-0.3c-0.6-0.4-1.1-0.8-1.7-1.2
					c-0.7-0.6-1.4-1.1-2-1.4c-2.5-1.2-2.7-0.6-4.5-3.6c-1.8-3.1-0.4-3-1.3-5.3c-0.9-2.1-2.8-1.8-4.3-0.4c-1.2,1.1-1.1,2.5-2,3.8
					c-1.3,1.8-2.6,2-5.1,2.4c-0.3,0-1.6-0.6-1.8-0.5c-2.6,0.8-4.4,3.2-7,4.1c-3.5,1.2-5.9,0.2-9.3,0.1c-0.5,0-1.5-0.3-2-0.1
					c-1.2,0.4-2.5,0.9-2.6,2.5c0,0,0,0.1,0,0.1c0,0,0,0.1,0,0.1c0,0,0,0.1,0,0.1c-1,0.5-0.3,0.9,0.7,1.2c0,0,0,0,0,0c0,0,0,0,0,0.1
					c0,0,0.1,0.1,0.1,0.1c0,0,0.1,0.1,0.1,0.1c1.5,1.2,0.5,2.3-2.9,3.2c-2.2,1.7-3.1,2.6-3.4,2.9c0,0-0.1-0.1-0.1-0.1
					c0-0.3-0.1-0.9-1.1-1.3c-1.5-0.6-2.1-2.2-3.9-2.2c-1.6,0-2.6,0.8-3.5,2c-1.3,1.7-1.5,2.9-3.1,4.7c0.4-0.4-3.1,2.6-3.3,2.9
					c-0.2,0.3-0.3,0.5-0.4,0.8c-0.3,0.5-0.4,1.1-0.3,1.7c0.1,2.9,3.3,5.1,6.2,6.4c5.4,2.4,11.6,2.4,17.2,0.6
					c2.8-0.9,5.4-2.4,7.7-4.2c2.2-1.8,4.5-4.1,7.7-4.2c0.2,0,0.5,0,0.9,0.1c0.1,0,0.2,0.1,0.4,0.1c2,0.9,4,1.7,6,2.6
					c0.4,0.3,0.8,0.5,1,0.7c2.7,2.1,1.9,5.1,3.7,7.6c0.4,0.6,1.6,1.3,1.9,1.9c0.5,1-1,5.5-2.3,6.6c-0.2,0.2-1.4-0.5-1.6-0.2
					c-0.1,0.1-0.2,0.3-0.3,0.4c-0.4,0.3-0.7,0.8-0.7,1.4c-0.3,0.9-0.1,1.9,1.1,2.7c1.9,1.3,4.1,0,5.9-0.4c1.5-0.3,6.5,0.6,7.7-1.1
					c0.6-0.9,0.6-0.8,0.5-2.2c-0.1-1.1-1.1-2.1-1.7-2.9c-1.9-2.3-3.8-3.2-5.3-6.2c-0.4-0.9-0.9-1.8-1.3-2.7c0.9-0.9,1.8-1.7,2.7-2.6
					c0.1,0,0.4,1.6,0.5,1.6c0.3,0.3,0.6,1.2,0.8,1.6c3.6,6,8.8,7.7,8.9,15.8c0,0.2,0,0.4,0,0.6c-0.1,0.1-0.1,0.3-0.2,0.4
					c-0.1,0.1-0.1,0.1,0,0.1c-0.1,0.4-0.2,0.7-0.2,1.1c0,0.3,0.1,0.6,0.3,0.8c0.2,0.9,0.8,1.4,2.6,1c0.8-0.2,1.2-0.6,1.5-1.1
					c0.4-0.4,0.7-0.9,0.9-1.5c0.1-0.1,0.2-0.2,0.2-0.3c1.2-1,3.3-0.8,3.9,1.2c0,0.2,0,0.5,0.1,0.7c0,0.1,0,0.2,0,0.3
					c-0.1,0.5-0.2,1.1-0.2,1.6c0,0.3,0,0.5,0.1,0.7c0,0.5,0,1.1,0.2,1.6c1,3.1,3.9,5.9,6.8,7.3c0.1,0,0.1,0,0.2,0.1
					c0.3,0.1,0.6,0.3,0.8,0.4c0.3,0.1,0.9-0.6,1.2-0.6c6.9,0.9,6.3-0.1,8.1,2.4c-0.5,2.2-1.6,4.1-3.3,5.8c-0.9,0.8-2,1.4-3,1.9
					c-2.8-0.7-6-0.6-8.7-1.5c-2.8-0.9-5.5-2-8-3.6c-1.1-0.8-2.1-1.6-3.2-2.4c-0.7-1.1-1.4-2.2-2.2-3.3c-1.7-1-1.5-0.6-2.1-0.4
					c-0.3,0-0.5,0.1-0.8,0.2c-0.2,0-0.4,0-0.7,0c-0.6,0.2-1.2,0.4-1.8,0.7c-3.1,0.3-5.9-0.3-8.2-2c-2-1.2-4.1-3-5.6-4.7
					c-3.1-3.4-1.5-7.8-2.8-10.9c-0.1-0.5-0.3-1-0.7-1.4c-0.3-0.3-0.7-0.6-1.2-0.7c-0.3-0.2-0.7-0.4-1.2-0.6
					c-3.5-1.3-7.7-1.3-11.3-1.9c-6.3-1-11.1-2.4-16.8-5.2c-0.4-0.2-0.8-0.4-1.3-0.6c-0.7-0.4-1.4-0.8-2.3-0.9c-0.1,0-0.2,0-0.3,0
					c-0.9-0.1-1.6,0.2-2,1.4c-1,1.6-3.6,1.7-5.8,2c-0.1,0-0.2,0-0.3,0c-0.2,0-0.5,0.1-0.7,0.1c-0.6,0.1-1.1,0.3-1.6,0.5
					c-2.8,1.3-4.8,3.9-7.6,5.2c-1.2,0.6-2.5,1.1-3.7,1.6c-1,0.3-2.1,0.7-3.1,1.1c-1.7,0.6-3.4,1.4-5,2.3c-1.8,0.9-3.6,1.9-5.3,3.1
					c-1.6,1.2-4.3,2.9-5.2,5c-0.7,1.6,0.4,5.1,0,7.1c-1.2,5-10.2,9.6-8.2,15.3c1,2.9,4,3.8,5.6,6.7c0.6,0.9,1,3.2,1.2,3.9
					c0.3,1.7,0.5,3.5,1.1,5.2c1.9,4.7,6.3,7.5,10.9,9c7.5,2.5,15.8,1.9,23.4,3.8c5.1,1.3,8.8,4.9,13.5,7.2c1.7,0.8,3.4,1.6,5.2,2.4
					c0.5,4-3.7,7.1-4.6,11c-0.5,2.1-0.1,3.4,0.5,5.4c2.5,8.6,3,17-2.4,24.8c-1.7,2.5-3.8,4.2-5.3,6.3c-0.6,0.7-1.1,1.5-1.4,2.4
					c-0.1,0.3-0.2,0.6-0.3,0.9c-0.3,0.9-0.4,1.9-0.4,3c0,1.3,0.4,2.7,0.5,4c0.4,3.9-0.4,6.5-1.4,10.1c-0.7,2.9-1.3,4.8-1,7.7
					c0.3,2.9,1.4,5.7,1.8,8.5c0.6,3.8-1.2,5.9-1.5,9.3c-0.1,0.7,0,1.3,0.1,1.7c0,0.1,0.1,0.2,0.1,0.3c0,0.1,0.1,0.1,0.1,0.1
					c0.1,0.1,0.1,0.2,0.2,0.3c0,0.1,0.1,0.1,0.2,0.1c1.4,1.5,4.7,1,7.2,0.9c2.4-0.1,4.7-0.3,7-0.7c3.7-0.4,7.3-1.2,10.7-2.8
					c2.3-1,4.4-2.4,6.4-3.9c3.1-2.1,6.2-4.6,9.2-7.6c1.8-1.8,3.6-3.8,4.6-6.2c1.9-4.8-0.8-9.7,6.4-12.7c0.6-0.2,1.2-0.4,1.8-0.6
					c2.5-0.5,5.2-0.8,7.5-1.8c0,0,0,0,0,0c1.4-0.6,2.7-1.4,3.9-2.9c3.5-4.2,4.2-10.3,5.2-15.5c1-5.7,2.9-9.2,8.2-12.3
					c3.8-2.2,7.7-4.2,11.6-6.3c4.9-2.7,10.9-5.7,14-10.6c1-1.5,1.3-2,1.2-2.5c0-0.1,0-0.2,0-0.3c-0.1-0.4-0.4-0.6-0.8-0.7
					c-0.1-0.1-0.2-0.2-0.3-0.3c-1.7-1.8-6.3-1.6-9.5-2.1c-0.3-0.1-0.5-0.1-0.8-0.1c-0.5-0.1-1-0.3-1.4-0.5
					c-4.3-2.2-4.3-7.6-5.6-11.7c-1.8-6-3.8-12.8-7-18.3c-0.5-4.1-0.3-10,3.3-11.4c0.1,0,0.1,0,0.2-0.1c0.2,0.2,0.5,0.4,0.7,0.6
					c-0.4,0.5-0.7,0.9,0.3,0.6c1.8,4.2,2.3,9,3.5,13.3c0.4,1.5,0.9,2.9,1.4,4.2c0.5,1.4,1,2.7,1.6,4.1c0.5,1,1,2,1.4,3
					c0.5,1.2,1,2.5,1.3,3.8c0.8,3,0.7,5.3,0.8,6.9c0,0.2,0,0.4,0,0.6c0,0.4,0,0.7,0.1,1.1c0.3,0.6,1,0.7,1.7,0.7
					c0.9,0.1,2.3,0,4.4-0.4c4.8-0.9,8.8-3.1,13.2-4.9c3.9-1.6,8.2-1.7,11.1-5.1c0.6-0.7,1-1.4,1.2-2c0.2-0.4,0.5-0.7,0.4-1.2
					c0-0.4-0.2-0.7-0.5-1.1c-1.2-2.5-5.9-3.9-8.8-5.1c-4.5-1.8-9.2-4.2-8.8-10c0.2-3.4-1.2-0.6,3.8-4.6
					C340.2,194.6,340.6,195.9,341,197.2z"/>
				<path class="st1" d="M243.3,95.6c-0.1-0.4-0.2-0.6-0.4-0.7c-0.2-0.2-0.4-0.3-0.8,0c0,0,0,0.1-0.1,0.1c-0.1,0-0.1,0-0.2,0
					c-1.7,0.5-3.8,1.2-5.2,2.2c-2.5,1.8-1.1,5,1.4,6c1.1,0.4,3.6,1.2,4.7,0.6c0.4-0.2,0.4-0.5,0.6-0.8c0.5-0.9,0.9-2.2,1.1-3.2
					c0.1-0.5,0.1-0.9-0.1-1.3c-0.2-0.4-0.5-0.8-0.7-1.1c-0.3-0.6-0.2-0.6-0.4-1.6C243.3,95.7,243.3,95.7,243.3,95.6z"/>
				<path class="st1" d="M56.1,147.3c0.2,1.4,1.5,1.8,2.6,2.2c1.7,0.5,3.3,0.7,4.9,1.4c1.5,0.7,2.5,1.8,3.9,2.7
					c2.5,1.5,4.6-0.1,3.9-3c-0.3-1.5-1.5-2.8-2.8-3.6c-0.4-0.2-1-0.3-1.6-0.4c-0.4-0.1-0.8-0.1-1.1-0.1c-0.5,0-0.9,0-1.3-0.1
					c0,0,0,0-0.1,0c-0.4-0.1-1.1-0.2-1.9-0.5c-0.1-0.1-0.2-0.1-0.3-0.2c-0.1-0.2-0.4-0.1-0.4,0.1C59.3,145.3,55.8,144.8,56.1,147.3z
					"/>
				<path class="st1" d="M79.6,49.2c1.2-0.2,2.7-1.5,3.7-2.1c0.8-0.5,2.3-1,2.7-1.9c0.4-0.8,0.1-1.8-0.7-2.3
					c-0.1-0.1-0.2-0.1-0.3-0.2c-2.7,2-5.4,4-8,6.1c0.3,0.1,0.7,0.1,1.2,0.2C79,49.2,78.8,49.3,79.6,49.2z"/>
				<path class="st1" d="M195.4,59.5c0.7,1.2,1.9,1.2,3.1,1c3.6-0.4,7.3-1.8,10.7-3c1.6-0.6,6.3-2.4,3.3-4.6c-1.5-1.1-3.5-0.1-5,0.4
					c-3.9,1.2-7.8,2.1-11.7,0.7c-0.2-0.1-0.3,0.1-0.2,0.3C194,54.8,194.7,58.4,195.4,59.5z"/>
				<path class="st1" d="M222.6,22c-1.9-1.1-2.9-1.1-5.1-0.6c-1.1,0.4-2.2,0.8-3.3,1.2c-2.9,0.1-5.6-0.6-8.1-1.9
					c-1.5-0.4-2.6-0.8-4.3-0.9c-8.5-0.8-18.4,1.7-26.5,3.7c-4.9,1.2-10,3.1-15.2,3c-4-0.1-7.5-2.6-11.5-2.4c-0.5,0-1,0.1-1.6,0.3
					c-1.1-0.7-2.3-0.6-4-0.2c-6.4,1.6-12.3,5-18.9,6.3c-4.9,1-9.8,1.6-14,4.4c-4,2.6-9.8,6.9-12.3,10.8c0,0.1,0,0.1,0,0.2
					c0.3,2.6-0.3,4.8-1.8,6.6c-1.6,0.2-3.2,0.4-4.7,0.6c0.1-0.7-0.2-2.9-0.1-2.7c-0.3-0.9-0.8-1.3-1.8-1.7c-3.9-1.4-5.1,3.7-5.8,6.2
					c-1.4,4.9-4.8,8.6-9.6,8.6c-0.8-0.1-1.6-0.2-2.4-0.2c-0.3-0.1-0.6-0.1-1-0.2c-2.8,0.9-3.8-0.7-2.8-4.7c0.5-0.1,1.1-0.1,1.6-0.2
					c1.2-0.6,2.7-0.2,3.9-1c1.6-1.1,3.1-3.4,1.6-5.3c-0.8-0.9-1.5-0.8-2.4-0.7c-7.8,6.6-15,13.8-21.7,21.7
					C35,91.5,23.2,113,15.9,136.5c-0.9,2.9-1.7,5.7-2.4,8.6c0.3,0.3,0.5,0.5,0.8,0.8c0.1,0.1,0.3,0.1,0.3-0.1c0,0,0-0.2,0.1-0.3
					c0.4-0.6,0.4-1.4,0.2-2.1c0-0.4,0-0.7,0-0.6c2.2-3.7,2.8-1,2.8,1.4c0,1.3-0.3,3.8-0.4,4.7c-0.3,2.1-0.9,4.2,1,5.7
					c2.8,2.1,8.2,1.1,11.3,2.2c3.7,1.4,5.5,3.8,8.7,5.6c2.3,1.3,4.3,1.6,6.7,3c4.4,2.5,2.3,1.8,4,4.8c0.4,0.8,0.8,1.5,1.6,1.9
					c0.2,0.1,0.4,0.2,0.5,0.2c0.3,0.4,0.9,0.6,1.1,0.9c1.2,2,0.3,0.1,0.6,0.4c0.9,1,7,8.5,6.4,10.4c0,0.2-0.1,0.3-0.2,0.5
					c-0.3,0.3-0.6,0.5-0.9,0.8c-0.3,0.3-0.6,0.6-0.9,1c-0.4,0.3-0.7,0.7-0.9,1c-0.8,1.3-1.2,2.7-1.4,4.2c-1.3,9,5.6,16,8.5,23.9
					c1.1,3,0.9,6.2,3.2,8.5c1.8,1.8,4.6,2.4,6.2,4.5c3,3.9,2.9,8,2.7,12.6c-0.2,4.3,0.8,8.2,1.8,12.3c1.7,7,0.7,13.1,0.2,20.1
					c-0.8,10,3.1,19.4,6.1,28.8c2.1,6.6,3.4,18.2,9.3,22.6c1.3,1,2.7,1.4,4.2,2.1c2.6,1.2,2.9,1.2,6.2,3.6c0.1,0.1,0.9,1.3,1,1.3
					c1.3,0.4,1.3,1.3,2.6,0.4c1.1-0.8,0.9-2.6,0.5-3.6c-0.4-1-1.7-1.6-2.3-2.4c-2.7-3.3-2.5-5.9-2.1-9.9c0.1-1.2,0.1-2.2,0.1-3.1
					c0-1.3-0.1-2.6-0.5-3.8c-0.1-0.3-0.1-0.6-0.2-0.9c-0.4-2.2,0-4.2,0.2-6.3c0.3-0.6,0.4-1.3,0.3-1.9c-0.1-0.3-0.2-0.6-0.3-0.9
					c0-0.2,0-0.3-0.1-0.5c-0.5-2.5-3.9-5.7-1.9-8.8c0.7-1.1,3.8-3.4,5.4-3.6c0.4-0.1,1,0.6,1.4,0.5c0.2-0.1,0.4-0.1,0.6-0.1
					c0.2,0,0.3,0,0.5,0c0.4,0,0.7,0,1.3-0.6c0.2-0.2,0.2-1.7,0.2-1.9c0.1-0.8,0.3-1.6,0.4-2.4c-0.4-2.3,0.2-2.9,1.6-1.8
					c0,0,0.1,0,0.1,0c0.1-0.1,0.2-0.1,0.3-0.2c1,0.1,1.8-0.6,2.4-1.4c0.2-0.2,0.4-0.5,0.7-0.9c1.2-1.9,1.2-4.8,2.7-6.8
					c0.6-0.8,1.8-1.5,2.5-2.2c0.8-0.8,1.6-1.7,2-2.8c0.2-0.7,0.3-1.3,0.2-2c0-0.2,0-0.4-0.1-0.6c-0.3-2.1-1.3-4.2-0.1-6.1
					c3-4.5,8.2-3.1,12.5-3.4c0.4,0,0.8,0,1.1,0c0.8-0.1,1.5-0.4,2.2-0.8c1.3-0.7,2.4-1.9,3.1-3.9c0-0.1,0.1-0.2,0.1-0.4
					c0.1-0.6,0.4-2.9,0.3-4.2c-0.1-1.3-0.8-3.7-0.9-5.2c0-0.2,0-0.4-0.1-0.6c-0.2-3.4-0.3-6,1.7-8.8c1.1-1.5,2.3-2.5,3.4-3.9
					c0.7-0.9,1.5-1.6,1.9-2.7c2.1-5.5-4.3-12.6-8.5-15.4c-4.4-2.9-9.6-4.8-14.3-6.9c-0.8-0.3-1.9-0.8-3.2-1.2
					c-2.3-1-4.5-2.1-6.8-3.1c-0.2-0.1-0.4-0.2-0.6-0.3c-0.2-0.2-0.4-0.3-0.6-0.5c-1.6-1.8-1.7-4.5-2.7-6.5c-1.5-3-3.9-4.8-6.9-6.2
					c-1.6-0.7-3.2-1.2-4.8-1.8c-1.7-0.6-3.5-1.3-5-2.2c-3-1.9-2.9-4.4-4.9-7.1c-0.1-0.2-0.2-0.3-0.3-0.5c-0.2-0.5-0.5-0.9-0.9-1.3
					c-0.1-0.1-0.2-0.1-0.3-0.2c0,0,0,0-0.1,0c-0.1,0-0.1-0.1-0.2-0.1c-0.3-0.2-0.8-0.3-1.4-0.4c-1.4-0.2-2.4,1-3.6,1.3
					c-4.5,0.8-8.1-1.1-12-2.4c-2.2-0.7-3.6-0.4-5.6,0.4c-2.2,1-3.3,3.6-7,2.3c-0.3-0.1-0.5-0.2-0.7-0.3c-0.6-0.4-1.3-0.8-2-0.9
					c0,0-0.1,0-0.1,0c0,0-0.1,0-0.1,0c-0.3,0-0.6-0.1-1.1,0c0.7-2.8,0.3-8,0-9.5c-0.1-0.6-0.2-1-0.4-1.3c-0.1-0.4-0.3-0.7-0.6-1
					c-0.4-0.3-0.8-0.5-1.3-0.6c-0.1-0.1-0.2-0.2-0.2-0.2c-2-2.1-2.3-4.3-3.1-6.5c-0.2-0.7,0-1.8-0.8-2.3c-1-0.6-1.1-0.5-1.6-0.2
					c-0.1,0-0.2,0.1-0.2,0.1c-0.2,0.1-0.4,0.1-0.6,0.2c0.1,0-2.6,1.5-5,3c-1.8,0.6-3.8,0.9-4.8,0.2c-4.7-3.2-3.3-8.1-1.2-12.2
					c3-6,7.2-6.7,13.2-6.7c6.4,0,8.1,0.9,10.6,7.3c0.1,0.3,0.2,0.6,0.4,0.9c0.1,0.6,0.4,1.1,0.7,1.6c0.1,0.2,0.3,0.3,0.5,0.4
					c0.8,0.9,1.8,1.2,3.1-0.2c1.1-1.1,0-4.4-0.1-5.9c0-1.4-0.2-4.1,0.5-5.4c1.4-2.4,5.1-3.5,7-4.9c0.2-0.1,0.3-0.2,0.4-0.3
					c0.3-0.1,0.6-0.3,0.9-0.5c0.7-0.5,1.1-1.4,1.4-2.2c0.9-1.5,1.5-3.3,2.9-5.5c5.2-8.7,12.2-9.5,21.3-10.7c2.4-0.3,9.9,0,11.2-2.7
					c0.6-1.2,0.4-1.7,0-2.1c-0.3-0.4-0.7-0.7-1.1-0.9c-0.1-0.1-0.2-0.1-0.3-0.2c-0.9-0.7-0.8,0.2-1.7-0.2c-3.1,0.1-1.3-1,5.4-3.3
					c-0.3,0.4-0.6,0.8-0.8,1.2c0,0.1,0,0.2,0,0.3c-0.2,0.3-0.3,0.7-0.4,1c-0.1,0.2-0.1,0.4,0.1,1c0,0.1,0.1,0.2,0.2,0.1
					c2.7-0.8,8-1.3,10-3.7c0.9-1,1-1.6,0.8-2.1c0-0.2-0.1-0.5-0.2-0.8c-0.2-0.4-0.5-0.7-0.8-1c0-0.1-0.1-0.3-0.1-0.4
					c-0.6-2.3,1.1-5.4-0.4-7.4c-0.5-0.7-1.8-0.7-2.3-1.3c-0.1-0.1-1.4-4.9-1.6-5.9c-0.1-0.6,0.2-1.6,0.3-2.3c0-0.2-0.1-0.5-0.2-0.7
					c0,0-0.1-0.1-0.1-0.1c-0.2-0.5-0.6-0.8-1.6-1.1c-1.2-0.3-2,0.5-3,0.6c-2.8,0.5-0.5,1.6-4.5,0.4c-4.6-1.4-1.3-0.4-2.8-2.7
					c-0.1-0.2-0.2-0.4-0.3-0.6c-0.1-0.4-0.2-0.8-0.4-1.2c-0.2-0.7-0.6-1.3-2-1.6c-3.4-0.6-5.7,4.5-9.1,4.6c-0.2,0-0.3,0.2-0.2,0.3
					c2.1,2.6-0.9,5.6-3.5,8.1c-0.7,0.5-1.3,1.1-1.8,1.7c-0.1,0.1-0.1,0.1-0.1,0.2c-0.4,0.5-0.8,0.9-1,1.3c0.1-0.1-1.4,3.6-1.3,3.5
					c-2.1-0.2-4.3-0.5-6.4-0.7c0.2-0.5,0.3-1,0.4-1.5c-0.1-0.1-0.2-0.3-0.3-0.6c0,0,0-0.1,0-0.1c-0.1-0.3-0.2-0.6-0.3-0.7
					c-0.7-0.9-2.3-0.5-3.2-1c-2.1-0.1-3.3-1.4-3.7-3.8c-1.2-0.8-1.8-1.7-2-2.6c4.9-1.5,8-6.9,12.9-8.7c2-0.7,4.2-1.2,6-2.3
					c2.5-1.5,4-3.9,6.3-5.7c2.6-2,4.9-2.1,7.5-3.7c0.4-0.3,1-1.2,1.3-1.6c0.4-0.7,0.8-1.4,1.1-1.9l0.2-0.3l0.2-0.3
					c0.2-0.2,0.3-0.3,0.5-0.5c0.3-0.3,0.7-0.5,1.1-0.7c0.8,0,1.3,1.2,1.5,3.7c2.1,2.3,2.5,3.5,1.2,3.6c-0.1,0.1-0.2,0.2-0.3,0.2
					c-1,0.1-2,0.2-2.9,0.7c0,0-0.1,0.1-0.1,0.1c-0.5,0.2-1,0.4-1.3,0.9c-1,1.5-0.7,1.6-0.4,3.2c0,0.1,0.1,0.2,0.2,0.1
					c3.9-0.4,11.9,7.3,16,3.2c0.3-0.3,0.5-0.8,0.8-1.1c0.2-0.6,0.3-1.1,0.4-1.7c1.2-2.3,2.7-3.5,4.7-3.7c0.2-0.1,0.3-0.2,0.4-0.3
					c0.3-0.1,0.5-0.2,0.8-0.3c0.2-0.1,0.4-0.3,0.6-0.5c0.3-0.3,0.5-0.6,0.7-1.3c0.4-1.4-0.2-2.8-1.1-3.9c-1.3-1.7-3.8-2.3-5.5-3.4
					c-5.7-3.6-7.6-8.8,0.6-13.9c0.3-0.2,0.6-0.3,0.9-0.5c1.2-0.5,2.4-1.1,3.6-1.7c3.8-1.9,7.5-3.8,11.3-5.8c2.2,0.4,3.5,0.9,3.9,1.4
					c0.4,0.6-0.6,1.4-1.1,1.7c-0.5,0.3-2.3,0.9-2.3,0.9c-0.1,0-0.2,0.1-0.3,0.1c-0.6,0.4-1.3,0.7-1.8,1.2c-1.1,1.1-1.4,1.4-1.6,3
					c0,0.1,0,0.1,0.1,0.2c0.1,0.1,0.2,0.1,0.3,0.1c0.3,0.2,0.6,0.3,1,0.3c1,0,1.6-0.7,3.3-1C143.2,37,146,39,148,45
					c-0.4,0.5-0.7,0.9-1,1.5c0.1-1.8-0.7,2.9-0.5,2.4c-1.2,3.1-2.7,6.1-4.1,9c-0.7,1.4-1.1,2.2-1.5,3.8c-0.5,2.1-0.8,5.1-0.4,7.3
					c0.7,4,2.7,4.8,5.2,4.1c0.8-0.2,1.6-0.5,2.3-1c0.6-0.2,1.2-0.7,1.9-1.2c0,0,0.4-0.3,0.3-0.3c0,0,1.7-1.5,2.1-1.9
					c4.7-4.1,9.2-9.6,10.6-10.6c4-2.8,9.2-2.4,13.9-3.2c3.9-0.7,7-1.8,10.3-4c3.9-2.6,7.3-4.6,11.4-6.8c1.9-1,1.4-0.5,2.7-1.9
					c1.1-1.3,0.7-1.8,0.1-2.2c0-0.1,0-0.2-0.1-0.2c-0.2-0.3-0.5-0.6-0.6-0.9c0.3-0.6,1.5-1.5,4.3-3.1c0.2-0.1,0.3-0.2,0.4-0.2
					c0.4,0,0.8-0.1,1.1-0.1c0.3,0.2,0.3,0.6,1.7-0.5c1.3-1,0.9-1.8,1.8-3c2.7-3.7,3.3-4.1,6.6-5.5c2.5-1.1,4.4-1.9,6-4
					C222.7,22.2,222.7,22,222.6,22z"/>
			</g>
		</g>
		<g>
			<defs>
				<circle id="SVGID_1_" cx="191" cy="193" r="184.2"/>
			</defs>
			<clipPath id="SVGID_00000168816366292836984750000001150016342728920217_">
				<use xlink:href="#SVGID_1_"  style="overflow:visible;"/>
			</clipPath>

				<path style="clip-path:url(#SVGID_00000168816366292836984750000001150016342728920217_);fill:none;stroke:#FFFFFF;stroke-width:2.1024;stroke-miterlimit:10;" d="
				M93.2,28.1c0,0,147.6-37,278.1,84.4"/>

				<path style="clip-path:url(#SVGID_00000168816366292836984750000001150016342728920217_);fill:none;stroke:#FFFFFF;stroke-width:2.1024;stroke-linejoin:bevel;stroke-miterlimit:10;" d="
				M384.9,172.2C318.8,58.6,157.8,46,157.8,46l17.5-22.5L195.7,54l32.2-21.1l13.7,30.3L267.8,46l8.8,32.8l25.1-15.6l13.3,37.5
				l38.8-1.9"/>

				<path style="clip-path:url(#SVGID_00000168816366292836984750000001150016342728920217_);fill:none;stroke:#FFFFFF;stroke-width:2.1024;stroke-miterlimit:10;" d="
				M209.1,83.1c39.8,12.8,149.6,55.9,175.8,148.4"/>

				<polyline style="clip-path:url(#SVGID_00000168816366292836984750000001150016342728920217_);fill:none;stroke:#FFFFFF;stroke-width:2.1024;stroke-linejoin:bevel;stroke-miterlimit:10;" points="
				157.8,1.8 175.2,23.5 222.7,1.8 227.9,32.9 258.4,12.8 267.8,46 294.2,30.6 301.7,63.2 325.5,56.5 			"/>

				<polyline style="clip-path:url(#SVGID_00000168816366292836984750000001150016342728920217_);fill:none;stroke:#FFFFFF;stroke-width:2.1024;stroke-linejoin:bevel;stroke-miterlimit:10;" points="
				375,164.7 343.5,161.7 354.1,132 311.4,133.9 315.1,100.8 283,112.8 276.6,78.8 246.8,96.6 241.7,63.2 209.1,83.1 195.7,54
				"/>

				<path style="clip-path:url(#SVGID_00000168816366292836984750000001150016342728920217_);fill:none;stroke:#FFFFFF;stroke-width:2.1024;stroke-linejoin:bevel;stroke-miterlimit:10;" d="
				M274.7,143.5"/>

				<path style="clip-path:url(#SVGID_00000168816366292836984750000001150016342728920217_);fill:none;stroke:#FFFFFF;stroke-width:2.1024;stroke-linejoin:bevel;stroke-miterlimit:10;" d="
				M351.8,234.9l-26.3,39l41.5,0C368.9,265.7,354,244,351.8,234.9"/>

				<path style="clip-path:url(#SVGID_00000168816366292836984750000001150016342728920217_);fill:none;stroke:#FFFFFF;stroke-width:2.1024;stroke-linejoin:bevel;stroke-miterlimit:10;" d="
				M274.7,143.5"/>

				<path style="clip-path:url(#SVGID_00000168816366292836984750000001150016342728920217_);fill:none;stroke:#FFFFFF;stroke-width:2.1024;stroke-linejoin:bevel;stroke-miterlimit:10;" d="
				M314.2,240c5.8,12.5,9.4,23.9,11.5,33.9l-54.3,0L314.2,240"/>

				<path style="clip-path:url(#SVGID_00000168816366292836984750000001150016342728920217_);fill:none;stroke:#FFFFFF;stroke-width:2.1024;stroke-linejoin:bevel;stroke-miterlimit:10;" d="
				M298.2,209.4"/>

				<polyline style="clip-path:url(#SVGID_00000168816366292836984750000001150016342728920217_);fill:none;stroke:#FFFFFF;stroke-width:2.1024;stroke-linejoin:bevel;stroke-miterlimit:10;" points="
				274.7,143.5 309.6,180 298.2,209.4 328.5,205.6 314.2,240 351.8,234.9 376.7,209.4 328.5,205.6 343.5,161.7 309.6,180
				311.4,133.9 274.7,143.5 283,112.8 251.7,123.9 246.8,96.6 			"/>

				<path style="clip-path:url(#SVGID_00000168816366292836984750000001150016342728920217_);fill:none;stroke:#FFFFFF;stroke-width:2.1024;stroke-linejoin:bevel;stroke-miterlimit:10;" d="
				M332.3,320.8l-6.7-47c0,0-19.1,20.9-31.8,33.2L332.3,320.8z"/>

				<polyline style="clip-path:url(#SVGID_00000168816366292836984750000001150016342728920217_);fill:none;stroke:#FFFFFF;stroke-width:2.1024;stroke-linejoin:bevel;stroke-miterlimit:10;" points="
				309.6,180 328.5,205.6 351.8,234.9 			"/>
		</g>
	</g>
</g>
<g>
	<path class="st1" d="M542.9,117.3v147.9h-18.8c-4.2,0-6.8-2-8-5.9l-2.3-13.8c-3.1,3.3-6.4,6.3-9.8,9c-3.4,2.7-7.1,5-10.9,7
		c-3.9,1.9-8,3.4-12.4,4.5c-4.4,1.1-9.1,1.6-14.1,1.6c-8.1,0-15.3-1.4-21.5-4.1c-6.2-2.7-11.4-6.5-15.6-11.5
		c-4.2-4.9-7.4-10.8-9.5-17.8c-2.1-6.9-3.2-14.5-3.2-22.8v-94.1H448v94.1c0,10,2.3,17.7,6.9,23.2c4.6,5.5,11.6,8.3,21,8.3
		c6.9,0,13.3-1.6,19.2-4.7c5.9-3.1,11.5-7.5,16.7-13V117.3H542.9z"/>
	<path class="st0" d="M707.9,265.2h-29.9c-2.4,0-4.3-0.6-5.7-1.9c-1.4-1.3-2.5-2.7-3.4-4.2l-34.1-54.7c-0.9,3.3-2,6.1-3.5,8.6
		l-30.9,46.1c-1.1,1.5-2.2,2.9-3.6,4.2c-1.3,1.3-3,1.9-5.1,1.9h-27.8l51.2-76.3L566,117.3h29.9c2.4,0,4.2,0.4,5.3,1.1
		c1.1,0.7,2.1,1.8,3,3.3l33.5,52.2c0.9-3.2,2.2-6.2,4.1-9.1l28.3-42.5c1.9-3.3,4.4-4.9,7.4-4.9h28.6l-49.2,70.3L707.9,265.2z"/>
	<path class="st0" d="M725.3,137.9c16.7-15.6,36.6-23.3,59.7-23.3c8.5,0,16.1,1.4,22.7,4.1c6.6,2.8,12.2,6.6,16.7,11.7
		c4.5,5,7.9,11,10.3,17.9c2.4,6.9,3.6,14.6,3.6,23v94h-13.9c-3,0-5.3-0.5-6.8-1.4c-1.5-0.9-2.9-2.8-3.9-5.6l-3-12
		c-3.8,3.4-7.5,6.4-11.2,9.1c-3.7,2.7-7.5,4.9-11.4,6.7c-3.9,1.8-8.1,3.2-12.6,4.1c-4.5,0.9-9.5,1.4-14.9,1.4
		c-6,0-11.6-0.8-16.7-2.5c-5.2-1.6-9.6-4.1-13.4-7.5c-3.8-3.3-6.7-7.5-8.9-12.4c-2.2-4.9-3.3-10.7-3.3-17.4c0-5.7,1.5-11.3,4.6-16.7
		c3-5.4,8.1-10.3,15.1-14.6c7-4.3,16.2-7.9,27.7-10.7c11.5-2.8,25.6-4.4,42.4-4.8v-9.9c0-10.6-2.3-18.6-6.8-23.8
		c-4.5-5.2-11.2-7.8-20-7.8c-6,0-11,0.7-15.1,2.2c-4.1,1.5-7.6,3.1-10.6,4.9c-3,1.7-5.7,3.4-8,4.9c-2.3,1.5-4.8,2.2-7.4,2.2
		c-2.1,0-3.9-0.6-5.4-1.7c-1.5-1.1-2.7-2.5-3.7-4.1L725.3,137.9z M808,200.6c-11.1,0.4-20.5,1.3-28.1,2.7
		c-7.6,1.4-13.8,3.2-18.6,5.4c-4.7,2.2-8.1,4.8-10.2,7.8c-2.1,3-3.1,6.3-3.1,9.9c0,3.5,0.6,6.5,1.7,8.9c1.1,2.5,2.7,4.5,4.6,6.1
		c2,1.6,4.3,2.8,7,3.5c2.7,0.7,5.6,1.1,8.8,1.1c8.1,0,15.1-1.5,21-4.6c5.8-3,11.5-7.5,17-13.3V200.6z"/>
	<path class="st0" d="M904.1,144.8c4.6-9.4,10.2-16.7,16.8-22.1c6.6-5.4,14.5-8,23.6-8c3.2,0,6.2,0.4,9,1.1c2.8,0.7,5.3,1.8,7.5,3.3
		l-2.2,23.5c-0.4,1.6-1,2.8-1.8,3.4c-0.8,0.6-1.9,0.9-3.3,0.9c-1.5,0-3.5-0.3-6.2-0.8c-2.7-0.5-5.6-0.8-8.6-0.8
		c-4.3,0-8.2,0.6-11.5,1.9c-3.3,1.3-6.3,3.1-9,5.5c-2.7,2.4-5,5.4-7,8.8s-3.9,7.4-5.7,11.9v91.9h-31.2V117.3h18.1
		c3.3,0,5.6,0.6,6.8,1.8c1.3,1.2,2.1,3.3,2.6,6.3L904.1,144.8z"/>
	<path class="st0" d="M1011.1,144.8c4.6-9.4,10.2-16.7,16.8-22.1c6.6-5.4,14.5-8,23.6-8c3.2,0,6.2,0.4,9,1.1
		c2.8,0.7,5.3,1.8,7.5,3.3l-2.2,23.5c-0.4,1.6-1,2.8-1.8,3.4c-0.8,0.6-1.9,0.9-3.3,0.9c-1.5,0-3.5-0.3-6.2-0.8
		c-2.7-0.5-5.6-0.8-8.6-0.8c-4.3,0-8.2,0.6-11.5,1.9c-3.3,1.3-6.3,3.1-9,5.5c-2.7,2.4-5,5.4-7,8.8s-3.9,7.4-5.7,11.9v91.9h-31.2
		V117.3h18.1c3.3,0,5.6,0.6,6.8,1.8c1.3,1.2,2.1,3.3,2.6,6.3L1011.1,144.8z"/>
	<path class="st0" d="M1082.9,137.9c16.7-15.6,36.6-23.3,59.7-23.3c8.5,0,16.1,1.4,22.7,4.1c6.6,2.8,12.2,6.6,16.7,11.7
		c4.5,5,7.9,11,10.3,17.9c2.4,6.9,3.6,14.6,3.6,23v94h-13.9c-3,0-5.3-0.5-6.8-1.4c-1.5-0.9-2.9-2.8-3.9-5.6l-3-12
		c-3.8,3.4-7.5,6.4-11.2,9.1c-3.7,2.7-7.5,4.9-11.4,6.7c-3.9,1.8-8.1,3.2-12.6,4.1c-4.5,0.9-9.5,1.4-14.9,1.4
		c-6,0-11.6-0.8-16.7-2.5c-5.2-1.6-9.6-4.1-13.4-7.5c-3.8-3.3-6.7-7.5-8.9-12.4c-2.2-4.9-3.3-10.7-3.3-17.4c0-5.7,1.5-11.3,4.6-16.7
		c3-5.4,8.1-10.3,15.1-14.6c7-4.3,16.2-7.9,27.7-10.7c11.5-2.8,25.6-4.4,42.4-4.8v-9.9c0-10.6-2.3-18.6-6.8-23.8
		c-4.5-5.2-11.2-7.8-20-7.8c-6,0-11,0.7-15.1,2.2c-4.1,1.5-7.6,3.1-10.6,4.9c-3,1.7-5.7,3.4-8,4.9c-2.3,1.5-4.8,2.2-7.4,2.2
		c-2.1,0-3.9-0.6-5.4-1.7c-1.5-1.1-2.7-2.5-3.7-4.1L1082.9,137.9z M1165.5,200.6c-11.1,0.4-20.5,1.3-28.1,2.7
		c-7.6,1.4-13.8,3.2-18.6,5.4c-4.7,2.2-8.1,4.8-10.2,7.8c-2.1,3-3.1,6.3-3.1,9.9c0,3.5,0.6,6.5,1.7,8.9c1.1,2.5,2.7,4.5,4.6,6.1
		c2,1.6,4.3,2.8,7,3.5c2.7,0.7,5.6,1.1,8.8,1.1c8.1,0,15.1-1.5,21-4.6c5.8-3,11.5-7.5,17-13.3V200.6z"/>
	<path class="st0" d="M1359.6,117.3l-81.5,189.9c-1.1,2.2-2.3,4-3.8,5.2c-1.5,1.3-3.8,1.9-6.9,1.9h-23.1l27.3-59.2l-60.3-137.9h27.1
		c2.6,0,4.6,0.6,6,1.8c1.4,1.2,2.4,2.6,3.1,4.3l35.2,84c0.9,2.4,1.7,4.8,2.4,7.2c0.7,2.4,1.4,4.8,2.1,7.3c0.8-2.5,1.5-5,2.3-7.4
		c0.8-2.4,1.6-4.8,2.6-7.2l33.8-83.8c0.7-1.7,1.8-3.2,3.4-4.4c1.6-1.2,3.4-1.7,5.3-1.7H1359.6z"/>
</g>
<path class="st4" d="M-13,12.2"/>
</svg>
