<?xml version="1.0" encoding="UTF-8" standalone="no"?>
<!-- Created with Inkscape (http://www.inkscape.org/) -->

<svg
   width="600mm"
   height="120mm"
   viewBox="0 0 600 120"
   version="1.1"
   id="svg1"
   xml:space="preserve"
   inkscape:export-filename="uxarray_quad_tri.svg"
   inkscape:export-xdpi="96"
   inkscape:export-ydpi="96"
   sodipodi:docname="drawing.svg"
   inkscape:version="1.3.2 (091e20e, 2023-11-25, custom)"
   xmlns:inkscape="http://www.inkscape.org/namespaces/inkscape"
   xmlns:sodipodi="http://sodipodi.sourceforge.net/DTD/sodipodi-0.dtd"
   xmlns:xlink="http://www.w3.org/1999/xlink"
   xmlns="http://www.w3.org/2000/svg"
   xmlns:svg="http://www.w3.org/2000/svg"><sodipodi:namedview
     id="namedview1"
     pagecolor="#ffffff"
     bordercolor="#000000"
     borderopacity="0.25"
     inkscape:showpageshadow="2"
     inkscape:pageopacity="0.0"
     inkscape:pagecheckerboard="true"
     inkscape:deskcolor="#d1d1d1"
     inkscape:document-units="mm"
     inkscape:zoom="0.35355339"
     inkscape:cx="1203.4957"
     inkscape:cy="281.4285"
     inkscape:window-width="2560"
     inkscape:window-height="1369"
     inkscape:window-x="-8"
     inkscape:window-y="-8"
     inkscape:window-maximized="1"
     inkscape:current-layer="PatchCollection_1"
     showgrid="true"><inkscape:grid
       id="grid24"
       units="mm"
       originx="0"
       originy="0"
       spacingx="0.99999999"
       spacingy="0.99999999"
       empcolor="#0099e5"
       empopacity="0.30196078"
       color="#0099e5"
       opacity="0.14902"
       empspacing="5"
       dotted="false"
       gridanglex="30"
       gridanglez="30"
       visible="true" /></sodipodi:namedview><defs
     id="defs1"><style
       type="text/css"
       id="style1">*{stroke-linejoin: round; stroke-linecap: butt}</style><style
       type="text/css"
       id="style1-0">*{stroke-linejoin: round; stroke-linecap: butt}</style><style
       type="text/css"
       id="style1-7">*{stroke-linejoin: round; stroke-linecap: butt}</style><style
       type="text/css"
       id="style1-03">*{stroke-linejoin: round; stroke-linecap: butt}</style><path
       id="DejaVuSans-34-6"
       d="M 2419,4116 825,1625 h 1594 z m -166,550 h 794 V 1625 h 666 V 1100 H 3047 V 0 H 2419 V 1100 H 313 v 609 z"
       transform="scale(0.015625)" /><path
       id="DejaVuSans-2e-21"
       d="m 684,794 h 660 V 0 H 684 Z"
       transform="scale(0.015625)" /><path
       id="DejaVuSans-35-0"
       d="M 691,4666 H 3169 V 4134 H 1269 V 2991 q 137,47 274,70 138,23 276,23 781,0 1237,-428 457,-428 457,-1159 Q 3513,744 3044,326 2575,-91 1722,-91 1428,-91 1123,-41 819,9 494,109 v 635 q 281,-153 581,-228 300,-75 634,-75 541,0 856,284 316,284 316,772 0,487 -316,771 -315,285 -856,285 -253,0 -505,-56 -251,-56 -513,-175 z"
       transform="scale(0.015625)" /><path
       id="DejaVuSans-b0-75"
       d="m 1600,4347 q -250,0 -422,-174 -172,-173 -172,-423 0,-247 172,-417 172,-170 422,-170 250,0 422,170 172,170 172,417 0,247 -174,422 -173,175 -420,175 z m 0,403 q 200,0 384,-77 185,-76 319,-220 144,-140 216,-319 72,-178 72,-384 0,-412 -289,-698 -289,-286 -708,-286 -422,0 -704,281 -281,281 -281,703 0,419 287,709 288,291 704,291 z"
       transform="scale(0.015625)" /><path
       id="DejaVuSans-57-8"
       d="m 213,4666 h 637 l 981,-3944 978,3944 h 710 l 981,-3944 978,3944 h 641 L 4947,0 H 4153 L 3169,4050 2175,0 h -794 z"
       transform="scale(0.015625)" /><path
       id="DejaVuSans-33-4"
       d="m 2597,2516 q 453,-97 707,-404 255,-306 255,-756 0,-690 -475,-1069 -475,-378 -1350,-378 -293,0 -604,58 -311,58 -642,174 v 609 q 262,-153 574,-231 313,-78 654,-78 593,0 904,234 311,234 311,681 0,413 -289,645 -289,233 -804,233 h -544 v 519 h 569 q 465,0 712,186 247,186 247,536 0,359 -255,551 -254,193 -729,193 -260,0 -557,-57 -297,-56 -653,-174 v 562 q 360,100 674,150 314,50 592,50 719,0 1137,-327 419,-326 419,-882 0,-388 -222,-655 -222,-267 -631,-370 z"
       transform="scale(0.015625)" /><path
       id="DejaVuSans-31-42"
       d="M 794,531 H 1825 V 4091 L 703,3866 v 575 l 1116,225 h 631 V 531 H 3481 V 0 H 794 Z"
       transform="scale(0.015625)" /><path
       id="DejaVuSans-30-7"
       d="m 2034,4250 q -487,0 -733,-480 -245,-479 -245,-1442 0,-959 245,-1439 246,-480 733,-480 491,0 736,480 246,480 246,1439 0,963 -246,1442 -245,480 -736,480 z m 0,500 q 785,0 1199,-621 414,-620 414,-1801 0,-1178 -414,-1799 -414,-620 -1199,-620 -784,0 -1198,620 -414,621 -414,1799 0,1181 414,1801 414,621 1198,621 z"
       transform="scale(0.015625)" /><path
       id="DejaVuSans-45-2"
       d="M 628,4666 H 3578 V 4134 H 1259 V 2753 H 3481 V 2222 H 1259 V 531 H 3634 V 0 H 628 Z"
       transform="scale(0.015625)" /><path
       id="DejaVuSans-4e-4"
       d="m 628,4666 h 850 L 3547,763 v 3903 h 612 V 0 H 3309 L 1241,3903 V 0 H 628 Z"
       transform="scale(0.015625)" /><path
       id="DejaVuSans-32-0"
       d="M 1228,531 H 3431 V 0 H 469 v 531 q 359,372 979,998 621,627 780,809 303,340 423,576 121,236 121,464 0,372 -261,606 -261,235 -680,235 -297,0 -627,-103 -329,-103 -704,-313 v 638 q 381,153 712,231 332,78 607,78 725,0 1156,-363 431,-362 431,-968 0,-288 -108,-546 -107,-257 -392,-607 -78,-91 -497,-524 Q 1991,1309 1228,531 Z"
       transform="scale(0.015625)" /><path
       id="DejaVuSans-36-1"
       d="m 2113,2584 q -425,0 -674,-291 -248,-290 -248,-796 0,-503 248,-796 249,-292 674,-292 425,0 673,292 248,293 248,796 0,506 -248,796 -248,291 -673,291 z m 1253,1979 v -575 q -238,112 -480,171 -242,60 -480,60 -625,0 -955,-422 -329,-422 -376,-1275 184,272 462,417 279,145 613,145 703,0 1111,-427 408,-426 408,-1160 0,-719 -425,-1154 -425,-434 -1131,-434 -810,0 -1238,620 -428,621 -428,1799 0,1106 525,1764 525,658 1409,658 238,0 480,-47 242,-47 505,-140 z"
       transform="scale(0.015625)" /><clipPath
       id="p9a3dcce87f-6"><path
         d="M 31.19999,7895.8952 V 7.2 H 10111.2 V 7895.8952 H 31.19999"
         id="path53-0" /></clipPath></defs><g
     inkscape:label="Layer 1"
     inkscape:groupmode="layer"
     id="layer1"><text
       xml:space="preserve"
       style="font-style:normal;font-variant:normal;font-weight:normal;font-stretch:normal;font-size:105.833px;font-family:'Work Sans';-inkscape-font-specification:'Work Sans';fill:#2f3d1c;fill-opacity:1;stroke-width:0.264999"
       x="145.22008"
       y="88.173271"
       id="text1"><tspan
         sodipodi:role="line"
         id="tspan1"
         style="font-style:normal;font-variant:normal;font-weight:bold;font-stretch:normal;font-size:105.833px;font-family:'Work Sans';-inkscape-font-specification:'Work Sans Bold';fill:#2f3d1c;fill-opacity:1;stroke-width:0.265"
         x="145.22008"
         y="88.173271">UX<tspan
   style="font-style:normal;font-variant:normal;font-weight:bold;font-stretch:normal;font-size:105.833px;font-family:'Work Sans';-inkscape-font-specification:'Work Sans Bold';fill:#be712a;fill-opacity:1"
   id="tspan3">array</tspan></tspan></text><g
       id="figure_1"
       transform="matrix(0.01980606,0,0,0.01980606,-2.0192189,24.633041)"><g
         id="patch_1"><path
           d="M 0,7918.0952 H 10118.4 V 0 H 0 Z"
           style="fill:none"
           id="path1" /></g><g
         id="axes_1"
         transform="matrix(0.85655086,0,0,0.85655086,130.50039,-1218.4236)"><g
           id="patch_2"><path
             d="M 31.19999,7895.8952 V 7.2 H 10111.2 V 7895.8952 H 31.19999"
             style="fill:none"
             id="path2" /></g><g
           id="PatchCollection_1"
           transform="matrix(1.0368325,0,0,1.0368325,-647.93776,-634.67062)"><path
             d="M 5071.2,7238.5048 H 9453.8096 L 7262.5048,3951.5476 Z"
             clip-path="url(#p9a3dcce87f-6)"
             style="fill:#be712a;stroke:#ffffff;stroke-width:150"
             id="path3" /><path
             d="M 5071.2,7238.5048 7262.5048,3951.5476 5071.2,664.59035 2879.8952,3951.5476 Z"
             clip-path="url(#p9a3dcce87f-6)"
             style="fill:#2f3d1c;stroke:#ffffff;stroke-width:150"
             id="path4" /><path
             d="M 2879.8952,3951.5476 5071.2,664.59035 H 688.59034 Z"
             clip-path="url(#p9a3dcce87f-6)"
             style="fill:#be712a;stroke:#ffffff;stroke-width:150"
             id="path5" /></g><g
           id="patch_3"
           transform="translate(-48.158258,-35.024188)" /><g
           id="text_1"><!-- 4.5°W --><g
             transform="matrix(0.1,0,0,-0.1,125.36882,7908.4936)"
             id="g10"><defs
               id="defs6" /><use
               xlink:href="#DejaVuSans-34-6"
               id="use6" /><use
               xlink:href="#DejaVuSans-2e-21"
               x="63.623047"
               id="use7" /><use
               xlink:href="#DejaVuSans-35-0"
               x="95.410156"
               id="use8" /><use
               xlink:href="#DejaVuSans-b0-75"
               x="159.0332"
               id="use9" /><use
               xlink:href="#DejaVuSans-57-8"
               x="209.0332"
               id="use10" /></g></g><g
           id="text_2"><!-- 3°W --><g
             transform="matrix(0.1,0,0,-0.1,1773.6178,7908.4936)"
             id="g13"><defs
               id="defs10" /><use
               xlink:href="#DejaVuSans-33-4"
               id="use11" /><use
               xlink:href="#DejaVuSans-b0-75"
               x="63.623047"
               id="use12" /><use
               xlink:href="#DejaVuSans-57-8"
               x="113.62305"
               id="use13" /></g></g><g
           id="text_3"><!-- 1.5°W --><g
             transform="matrix(0.1,0,0,-0.1,3412.3261,7908.4936)"
             id="g18"><defs
               id="defs13" /><use
               xlink:href="#DejaVuSans-31-42"
               id="use14" /><use
               xlink:href="#DejaVuSans-2e-21"
               x="63.623047"
               id="use15" /><use
               xlink:href="#DejaVuSans-35-0"
               x="95.410156"
               id="use16" /><use
               xlink:href="#DejaVuSans-b0-75"
               x="159.0332"
               id="use17" /><use
               xlink:href="#DejaVuSans-57-8"
               x="209.0332"
               id="use18" /></g></g><g
           id="text_4"><!-- 0° --><g
             transform="matrix(0.1,0,0,-0.1,5065.5187,7908.4936)"
             id="g20"><defs
               id="defs18" /><use
               xlink:href="#DejaVuSans-30-7"
               id="use19" /><use
               xlink:href="#DejaVuSans-b0-75"
               x="63.623047"
               id="use20" /></g></g><g
           id="text_5"><!-- 1.5°E --><g
             transform="matrix(0.1,0,0,-0.1,6701.0677,7908.4936)"
             id="g25"><defs
               id="defs20" /><use
               xlink:href="#DejaVuSans-31-42"
               id="use21" /><use
               xlink:href="#DejaVuSans-2e-21"
               x="63.623047"
               id="use22" /><use
               xlink:href="#DejaVuSans-35-0"
               x="95.410156"
               id="use23" /><use
               xlink:href="#DejaVuSans-b0-75"
               x="159.0332"
               id="use24" /><use
               xlink:href="#DejaVuSans-45-2"
               x="209.0332"
               id="use25" /></g></g><g
           id="text_6"><!-- 3°E --><g
             transform="matrix(0.1,0,0,-0.1,8349.3166,7908.4936)"
             id="g28"><use
               xlink:href="#DejaVuSans-33-4"
               id="use26" /><use
               xlink:href="#DejaVuSans-b0-75"
               x="63.623047"
               id="use27" /><use
               xlink:href="#DejaVuSans-45-2"
               x="113.62305"
               id="use28" /></g></g><g
           id="text_7"><!-- 4.5°E --><g
             transform="matrix(0.1,0,0,-0.1,9988.0249,7908.4936)"
             id="g33"><use
               xlink:href="#DejaVuSans-34-6"
               id="use29" /><use
               xlink:href="#DejaVuSans-2e-21"
               x="63.623047"
               id="use30" /><use
               xlink:href="#DejaVuSans-35-0"
               x="95.410156"
               id="use31" /><use
               xlink:href="#DejaVuSans-b0-75"
               x="159.0332"
               id="use32" /><use
               xlink:href="#DejaVuSans-45-2"
               x="209.0332"
               id="use33" /></g></g><g
           id="text_8"><!-- 0° --><g
             transform="matrix(0.1,0,0,-0.1,14.8375,7241.2642)"
             id="g35"><use
               xlink:href="#DejaVuSans-30-7"
               id="use34" /><use
               xlink:href="#DejaVuSans-b0-75"
               x="63.623047"
               id="use35" /></g></g><g
           id="text_9"><!-- 1°N --><g
             transform="matrix(0.1,0,0,-0.1,7.35625,6145.6118)"
             id="g38"><defs
               id="defs35" /><use
               xlink:href="#DejaVuSans-31-42"
               id="use36" /><use
               xlink:href="#DejaVuSans-b0-75"
               x="63.623047"
               id="use37" /><use
               xlink:href="#DejaVuSans-4e-4"
               x="113.62305"
               id="use38" /></g></g><g
           id="text_10"><!-- 2°N --><g
             transform="matrix(0.1,0,0,-0.1,7.35625,5049.9594)"
             id="g41"><defs
               id="defs38" /><use
               xlink:href="#DejaVuSans-32-0"
               id="use39" /><use
               xlink:href="#DejaVuSans-b0-75"
               x="63.623047"
               id="use40" /><use
               xlink:href="#DejaVuSans-4e-4"
               x="113.62305"
               id="use41" /></g></g><g
           id="text_11"><!-- 3°N --><g
             transform="matrix(0.1,0,0,-0.1,7.35625,3954.307)"
             id="g44"><use
               xlink:href="#DejaVuSans-33-4"
               id="use42" /><use
               xlink:href="#DejaVuSans-b0-75"
               x="63.623047"
               id="use43" /><use
               xlink:href="#DejaVuSans-4e-4"
               x="113.62305"
               id="use44" /></g></g><g
           id="text_12"><!-- 4°N --><g
             transform="matrix(0.1,0,0,-0.1,7.35625,2858.6546)"
             id="g47"><use
               xlink:href="#DejaVuSans-34-6"
               id="use45" /><use
               xlink:href="#DejaVuSans-b0-75"
               x="63.623047"
               id="use46" /><use
               xlink:href="#DejaVuSans-4e-4"
               x="113.62305"
               id="use47" /></g></g><g
           id="text_13"><!-- 5°N --><g
             transform="matrix(0.1,0,0,-0.1,7.35625,1763.0021)"
             id="g50"><use
               xlink:href="#DejaVuSans-35-0"
               id="use48" /><use
               xlink:href="#DejaVuSans-b0-75"
               x="63.623047"
               id="use49" /><use
               xlink:href="#DejaVuSans-4e-4"
               x="113.62305"
               id="use50" /></g></g><g
           id="text_14"><!-- 6°N --><g
             transform="matrix(0.1,0,0,-0.1,7.35625,667.34973)"
             id="g53"><defs
               id="defs50" /><use
               xlink:href="#DejaVuSans-36-1"
               id="use51" /><use
               xlink:href="#DejaVuSans-b0-75"
               x="63.623047"
               id="use52" /><use
               xlink:href="#DejaVuSans-4e-4"
               x="113.62305"
               id="use53" /></g></g></g></g></g></svg>
