<?xml version="1.0" encoding="utf-8"?>
<!-- Generator: Adobe Illustrator 28.6.0, SVG Export Plug-In . SVG Version: 9.03 Build 54939)  -->
<svg version="1.1" id="Layer_1" xmlns="http://www.w3.org/2000/svg" xmlns:xlink="http://www.w3.org/1999/xlink" x="0px" y="0px"
	 viewBox="0 0 570.5 512.5" style="enable-background:new 0 0 570.5 512.5;" xml:space="preserve">
<style type="text/css">
	.st0{fill:#016691;}
	.st1{fill:#049390;}

		.st2{clip-path:url(#SVGID_00000067953559270835244090000006373217936161304448_);fill:none;stroke:#FFFFFF;stroke-width:2.1024;stroke-miterlimit:10;}

		.st3{clip-path:url(#SVGID_00000130620204452786618870000010262381101461583795_);fill:none;stroke:#FFFFFF;stroke-width:2.1024;stroke-linejoin:bevel;stroke-miterlimit:10;}

		.st4{clip-path:url(#SVGID_00000124856937535830244160000005899320887778548392_);fill:none;stroke:#FFFFFF;stroke-width:2.1024;stroke-miterlimit:10;}

		.st5{clip-path:url(#SVGID_00000160159163379600747540000012655490694229377184_);fill:none;stroke:#FFFFFF;stroke-width:2.1024;stroke-linejoin:bevel;stroke-miterlimit:10;}

		.st6{clip-path:url(#SVGID_00000039833848103868973960000002286118781232594364_);fill:none;stroke:#FFFFFF;stroke-width:2.1024;stroke-linejoin:bevel;stroke-miterlimit:10;}

		.st7{clip-path:url(#SVGID_00000093145902331076946840000003150558010723931831_);fill:none;stroke:#FFFFFF;stroke-width:2.1024;stroke-linejoin:bevel;stroke-miterlimit:10;}

		.st8{clip-path:url(#SVGID_00000042717991397176546750000001748299089261324973_);fill:none;stroke:#FFFFFF;stroke-width:2.1024;stroke-linejoin:bevel;stroke-miterlimit:10;}

		.st9{clip-path:url(#SVGID_00000028298024785290640830000014818642564708315313_);fill:none;stroke:#FFFFFF;stroke-width:2.1024;stroke-linejoin:bevel;stroke-miterlimit:10;}

		.st10{clip-path:url(#SVGID_00000181084023860918859530000008625553007896457130_);fill:none;stroke:#FFFFFF;stroke-width:2.1024;stroke-linejoin:bevel;stroke-miterlimit:10;}

		.st11{clip-path:url(#SVGID_00000099657895841074574460000004960396470884176815_);fill:none;stroke:#FFFFFF;stroke-width:2.1024;stroke-linejoin:bevel;stroke-miterlimit:10;}

		.st12{clip-path:url(#SVGID_00000140000162309241160100000018389724268919883928_);fill:none;stroke:#FFFFFF;stroke-width:2.1024;stroke-linejoin:bevel;stroke-miterlimit:10;}

		.st13{clip-path:url(#SVGID_00000162316171274868038790000013592897925497443719_);fill:none;stroke:#FFFFFF;stroke-width:2.1024;stroke-linejoin:bevel;stroke-miterlimit:10;}

		.st14{clip-path:url(#SVGID_00000003785652559416642980000017515892891749735829_);fill:none;stroke:#FFFFFF;stroke-width:2.1024;stroke-linejoin:bevel;stroke-miterlimit:10;}
	.st15{fill:none;}
	.st16{fill:#343741;}
	.st17{fill:#FFFFFF;}
</style>
<g>
	<g>
		<g>
			<circle class="st0" cx="285.2" cy="186.5" r="184.2"/>
			<g>
				<path class="st1" d="M196.1,32.6c-1.7-1.8-4.2-2.8-6.7-2.3c-1.6,0.3-2.9,1.7-1.2,3c1.3,1,3.1,0.4,4.5,1.2
					c0.9,0.5,1.4,1.4,2.6,1.2c1.4-0.3,1.6-1.8,0.8-2.8C196.2,32.8,196.2,32.7,196.1,32.6z"/>
				<path class="st1" d="M339.3,101.1c0.8,3.2,5.3,3.7,7.8,4.6c1.8,0.7,3.7,1.4,5-0.6c1.9-2.9-1-5.4-2.3-7.7
					c-2.1-3.7,1.4-7.9-1-11.3c-1.7-2.5-4.9-2.2-7.3-1.2h-0.1c0,0-0.1,0-0.1,0.1c0,0-0.1,0-0.1,0.1c-0.1,0.1-0.2,0.1-0.3,0.2
					c-0.3,0.2-0.5,0.6-0.5,1.1c-0.1,0.3-0.2,0.6-0.1,0.9c-0.2,0.5-0.3,1.1-0.4,1.7c-0.1,0.9,0,1.8,0.5,2.7c0.2,0.3,0.5,0.5,0.8,0.7
					c0.2,0.2,0.4,0.3,0.7,0.5c0.1,0.1,0.3,0.2,0.3,0.3c1.3,2-0.7,3.4-2,5.1c0,0-0.1,0.1-0.2,0.1c-0.3,0.3-0.5,0.6-0.6,1
					C339.2,99.9,339.1,100.4,339.3,101.1z"/>
				<path class="st1" d="M383.7,294.6c-1.1,2.6-1.7,8.2,0.6,10.1c0.1,0.2,0.3,0.4,0.5,0.6c0.3,0.2,0.8,0.1,1.1,0.1
					c0.3,0,0.6,0,0.9,0c2.8-0.4,5.4-2.9,6.8-5.3s1.9-5.3,3.3-7.6c1.7-2.7,4.4-4.6,6.4-7.1c0.3-0.4,0.7-1,1-1.6
					c0.6-0.9,1-1.8,1.2-2.9c0.1-0.5,0.1-1.1,0-1.7c-0.1-1.2-0.6-2.1-2-2.1c0,0-1.1,0.1-1.2,0.2c-0.1,0-0.4,0.2-0.4,0.3
					c-3.5,2.3-8.3,1-11.2,4.3c-1,1.1-1.4,3-1.9,4.5c-0.3,1.2-2.3,3.9-2.7,4.6C385.1,292.1,384.2,293.2,383.7,294.6z"/>
				<path class="st1" d="M383.9,52c1.8,1.9,3.4,4.1,6.3,3.9c3.3-0.2,0.8-0.7,5.8,1.1c1.3,0.5,0.6,1,2.2,0.8c0.4,0,0.7-0.6,1-0.8
					s2.9-2.3,3.2-3.1c0.6-1.1,0.4-1.7-0.6-2.5c-1.1-0.9-3.6-1.1-4.9-1.4c-1.9-0.5-3.7-1-5.6-1.4c-2.8-0.7-5.5-1-8.3-0.5
					c-0.3-0.1-0.7,0-1,0.2h-0.1c-0.1,0-0.2,0.2-0.1,0.3c0,0,0,0,0,0.1C381.1,50,383.2,51.3,383.9,52z"/>
				<path class="st1" d="M435.3,191c1.8,4.7,4.3,8.4,9,10.4c4.2,1.7,9,1.5,13.1,3.6c5.5,2.8,4.7,7.2,7.8,11.3
					c0.3,0.4,0.7,0.8,1.1,1.1c3.1-16.7,3.8-33.7,2.1-50.8c-2.3-23.5-9.1-46.1-20.1-67.1c-1-1.9-2-3.7-3-5.6c-1.6-0.4-3.2-1-4.8-1.3
					c-1.2-0.3-2.3-0.3-3.4-0.3c-0.7,0-1.4,0-2,0.1c-0.4,0-0.9,0-1.4,0.1c-3.6,0.1-0.9-0.3-2.7-2.5c-0.7-0.8-1.4-1.6-2.6-1.3
					c-1.1,0.3-0.9,1.1-1.5,1.6c-3.2,2.9-4.5,7.3-9.6,5c-0.7-0.2-1.4-0.4-2.1-0.7c0.9-0.7,1.8-1.3,2.7-2c0.3-0.1,1.7,0.9,2,0.8
					c0.2-0.1,0.3-0.1,0.5-0.2c0.7-0.1,1.3-0.5,1.7-1.2c0.8-0.9,1.1-2,0.5-3.7c-0.5-1.4-1.3-2.2-2.6-3c-2.4-1.5-5.4-1.8-7.9-3.2
					c-2.6-1.4-4.7-3.5-7-5.3c-4.1-3.1-8.6-5.4-13.7-3.7c-0.7,0.1-1.3,0.2-2,0.3c-2.2,0.4-4.4,1.1-6.4,2.3c-3.9,1.8-7.6,4.1-12,4.9
					c-0.7,0.1-1.4,0.3-2.1,0.5c-0.9,0.2-1.7,0.6-2.5,1.1c-2.2,1.2-3.8,3.2-3.1,6.3c0.4,1.8,1.5,2.9,3.2,3.8c4.4,2.2,8,1.1,10.4,6.8
					c0.1,0.2,0.2,0.4,0.3,0.6c0.2,1.5,0.5,2.9,1.9,3.1h0.1c0.7,0.1,1.7-0.4,3.6-1.6c1-0.7,4.3-2.2,4.4-3.8c0-0.7-0.2-1-0.6-1.3
					c-0.2-0.3-0.5-0.5-0.8-0.7c0-0.1-0.1-0.2-0.1-0.3c-0.3-2,1.5-5.2,3.8-6.9c0.8-0.3,1.6-0.7,2.3-1.1c0.2,0,0.4-0.1,0.5-0.1
					c0.2-0.1,0.5-0.3,0.7-0.4c0.8,1.2,1.7,2.3,2.5,3.5c0,0-1.3,0-1.4,0c-0.4,0.3-1.3,0.4-1.8,0.8c-1.6,1.3-1.9,2.7-1.5,4.2
					c0.1,1,0.5,2,1.3,2.7c0.1,0.2,0.2,0.3,0.3,0.5c0.6,0.8,6.5,0.8,1.6,4.2c-0.1,0.1-2.4-0.5-2.7-0.4c-1.2,0.3-1.5,0.7-2.2,1.6
					c-0.4,0.5-0.4,1.5-0.8,2c-0.6,0.8-5.2,3.9-6.6,3.7c-0.3,0-0.5-0.2-0.8-0.3c-0.6-0.4-1.1-0.8-1.7-1.2c-0.7-0.6-1.4-1.1-2-1.4
					c-2.5-1.2-2.7-0.6-4.5-3.6c-1.8-3.1-0.4-3-1.3-5.3c-0.9-2.1-2.8-1.8-4.3-0.4c-1.2,1.1-1.1,2.5-2,3.8c-1.3,1.8-2.6,2-5.1,2.4
					c-0.3,0-1.6-0.6-1.8-0.5c-2.6,0.8-4.4,3.2-7,4.1c-3.5,1.2-5.9,0.2-9.3,0.1c-0.5,0-1.5-0.3-2-0.1c-1.2,0.4-2.5,0.9-2.6,2.5v0.1
					v0.1v0.1c-1,0.5-0.3,0.9,0.7,1.2l0,0c0,0,0,0,0,0.1l0.1,0.1l0.1,0.1c1.5,1.2,0.5,2.3-2.9,3.2c-2.2,1.7-3.1,2.6-3.4,2.9l-0.1-0.1
					c0-0.3-0.1-0.9-1.1-1.3c-1.5-0.6-2.1-2.2-3.9-2.2c-1.6,0-2.6,0.8-3.5,2c-1.3,1.7-1.5,2.9-3.1,4.7c0.4-0.4-3.1,2.6-3.3,2.9
					c-0.2,0.3-0.3,0.5-0.4,0.8c-0.3,0.5-0.4,1.1-0.3,1.7c0.1,2.9,3.3,5.1,6.2,6.4c5.4,2.4,11.6,2.4,17.2,0.6
					c2.8-0.9,5.4-2.4,7.7-4.2c2.2-1.8,4.5-4.1,7.7-4.2c0.2,0,0.5,0,0.9,0.1c0.1,0,0.2,0.1,0.4,0.1c2,0.9,4,1.7,6,2.6
					c0.4,0.3,0.8,0.5,1,0.7c2.7,2.1,1.9,5.1,3.7,7.6c0.4,0.6,1.6,1.3,1.9,1.9c0.5,1-1,5.5-2.3,6.6c-0.2,0.2-1.4-0.5-1.6-0.2
					c-0.1,0.1-0.2,0.3-0.3,0.4c-0.4,0.3-0.7,0.8-0.7,1.4c-0.3,0.9-0.1,1.9,1.1,2.7c1.9,1.3,4.1,0,5.9-0.4c1.5-0.3,6.5,0.6,7.7-1.1
					c0.6-0.9,0.6-0.8,0.5-2.2c-0.1-1.1-1.1-2.1-1.7-2.9c-1.9-2.3-3.8-3.2-5.3-6.2c-0.4-0.9-0.9-1.8-1.3-2.7c0.9-0.9,1.8-1.7,2.7-2.6
					c0.1,0,0.4,1.6,0.5,1.6c0.3,0.3,0.6,1.2,0.8,1.6c3.6,6,8.8,7.7,8.9,15.8c0,0.2,0,0.4,0,0.6c-0.1,0.1-0.1,0.3-0.2,0.4
					c-0.1,0.1-0.1,0.1,0,0.1c-0.1,0.4-0.2,0.7-0.2,1.1c0,0.3,0.1,0.6,0.3,0.8c0.2,0.9,0.8,1.4,2.6,1c0.8-0.2,1.2-0.6,1.5-1.1
					c0.4-0.4,0.7-0.9,0.9-1.5c0.1-0.1,0.2-0.2,0.2-0.3c1.2-1,3.3-0.8,3.9,1.2c0,0.2,0,0.5,0.1,0.7c0,0.1,0,0.2,0,0.3
					c-0.1,0.5-0.2,1.1-0.2,1.6c0,0.3,0,0.5,0.1,0.7c0,0.5,0,1.1,0.2,1.6c1,3.1,3.9,5.9,6.8,7.3c0.1,0,0.1,0,0.2,0.1
					c0.3,0.1,0.6,0.3,0.8,0.4c0.3,0.1,0.9-0.6,1.2-0.6c6.9,0.9,6.3-0.1,8.1,2.4c-0.5,2.2-1.6,4.1-3.3,5.8c-0.9,0.8-2,1.4-3,1.9
					c-2.8-0.7-6-0.6-8.7-1.5c-2.8-0.9-5.5-2-8-3.6c-1.1-0.8-2.1-1.6-3.2-2.4c-0.7-1.1-1.4-2.2-2.2-3.3c-1.7-1-1.5-0.6-2.1-0.4
					c-0.3,0-0.5,0.1-0.8,0.2c-0.2,0-0.4,0-0.7,0c-0.6,0.2-1.2,0.4-1.8,0.7c-3.1,0.3-5.9-0.3-8.2-2c-2-1.2-4.1-3-5.6-4.7
					c-3.1-3.4-1.5-7.8-2.8-10.9c-0.1-0.5-0.3-1-0.7-1.4c-0.3-0.3-0.7-0.6-1.2-0.7c-0.3-0.2-0.7-0.4-1.2-0.6
					c-3.5-1.3-7.7-1.3-11.3-1.9c-6.3-1-11.1-2.4-16.8-5.2c-0.4-0.2-0.8-0.4-1.3-0.6c-0.7-0.4-1.4-0.8-2.3-0.9c-0.1,0-0.2,0-0.3,0
					c-0.9-0.1-1.6,0.2-2,1.4c-1,1.6-3.6,1.7-5.8,2c-0.1,0-0.2,0-0.3,0c-0.2,0-0.5,0.1-0.7,0.1c-0.6,0.1-1.1,0.3-1.6,0.5
					c-2.8,1.3-4.8,3.9-7.6,5.2c-1.2,0.6-2.5,1.1-3.7,1.6c-1,0.3-2.1,0.7-3.1,1.1c-1.7,0.6-3.4,1.4-5,2.3c-1.8,0.9-3.6,1.9-5.3,3.1
					c-1.6,1.2-4.3,2.9-5.2,5c-0.7,1.6,0.4,5.1,0,7.1c-1.2,5-10.2,9.6-8.2,15.3c1,2.9,4,3.8,5.6,6.7c0.6,0.9,1,3.2,1.2,3.9
					c0.3,1.7,0.5,3.5,1.1,5.2c1.9,4.7,6.3,7.5,10.9,9c7.5,2.5,15.8,1.9,23.4,3.8c5.1,1.3,8.8,4.9,13.5,7.2c1.7,0.8,3.4,1.6,5.2,2.4
					c0.5,4-3.7,7.1-4.6,11c-0.5,2.1-0.1,3.4,0.5,5.4c2.5,8.6,3,17-2.4,24.8c-1.7,2.5-3.8,4.2-5.3,6.3c-0.6,0.7-1.1,1.5-1.4,2.4
					c-0.1,0.3-0.2,0.6-0.3,0.9c-0.3,0.9-0.4,1.9-0.4,3c0,1.3,0.4,2.7,0.5,4c0.4,3.9-0.4,6.5-1.4,10.1c-0.7,2.9-1.3,4.8-1,7.7
					c0.3,2.9,1.4,5.7,1.8,8.5c0.6,3.8-1.2,5.9-1.5,9.3c-0.1,0.7,0,1.3,0.1,1.7c0,0.1,0.1,0.2,0.1,0.3c0,0.1,0.1,0.1,0.1,0.1
					c0.1,0.1,0.1,0.2,0.2,0.3c0,0.1,0.1,0.1,0.2,0.1c1.4,1.5,4.7,1,7.2,0.9c2.4-0.1,4.7-0.3,7-0.7c3.7-0.4,7.3-1.2,10.7-2.8
					c2.3-1,4.4-2.4,6.4-3.9c3.1-2.1,6.2-4.6,9.2-7.6c1.8-1.8,3.6-3.8,4.6-6.2c1.9-4.8-0.8-9.7,6.4-12.7c0.6-0.2,1.2-0.4,1.8-0.6
					c2.5-0.5,5.2-0.8,7.5-1.8l0,0c1.4-0.6,2.7-1.4,3.9-2.9c3.5-4.2,4.2-10.3,5.2-15.5c1-5.7,2.9-9.2,8.2-12.3
					c3.8-2.2,7.7-4.2,11.6-6.3c4.9-2.7,10.9-5.7,14-10.6c1-1.5,1.3-2,1.2-2.5c0-0.1,0-0.2,0-0.3c-0.1-0.4-0.4-0.6-0.8-0.7
					c-0.1-0.1-0.2-0.2-0.3-0.3c-1.7-1.8-6.3-1.6-9.5-2.1c-0.3-0.1-0.5-0.1-0.8-0.1c-0.5-0.1-1-0.3-1.4-0.5
					c-4.3-2.2-4.3-7.6-5.6-11.7c-1.8-6-3.8-12.8-7-18.3c-0.5-4.1-0.3-10,3.3-11.4c0.1,0,0.1,0,0.2-0.1c0.2,0.2,0.5,0.4,0.7,0.6
					c-0.4,0.5-0.7,0.9,0.3,0.6c1.8,4.2,2.3,9,3.5,13.3c0.4,1.5,0.9,2.9,1.4,4.2c0.5,1.4,1,2.7,1.6,4.1c0.5,1,1,2,1.4,3
					c0.5,1.2,1,2.5,1.3,3.8c0.8,3,0.7,5.3,0.8,6.9c0,0.2,0,0.4,0,0.6c0,0.4,0,0.7,0.1,1.1c0.3,0.6,1,0.7,1.7,0.7
					c0.9,0.1,2.3,0,4.4-0.4c4.8-0.9,8.8-3.1,13.2-4.9c3.9-1.6,8.2-1.7,11.1-5.1c0.6-0.7,1-1.4,1.2-2c0.2-0.4,0.5-0.7,0.4-1.2
					c0-0.4-0.2-0.7-0.5-1.1c-1.2-2.5-5.9-3.9-8.8-5.1c-4.5-1.8-9.2-4.2-8.8-10c0.2-3.4-1.2-0.6,3.8-4.6
					C434.4,188.4,434.8,189.7,435.3,191z"/>
				<path class="st1" d="M337.5,89.4c-0.1-0.4-0.2-0.6-0.4-0.7c-0.2-0.2-0.4-0.3-0.8,0c0,0,0,0.1-0.1,0.1s-0.1,0-0.2,0
					c-1.7,0.5-3.8,1.2-5.2,2.2c-2.5,1.8-1.1,5,1.4,6c1.1,0.4,3.6,1.2,4.7,0.6c0.4-0.2,0.4-0.5,0.6-0.8c0.5-0.9,0.9-2.2,1.1-3.2
					c0.1-0.5,0.1-0.9-0.1-1.3s-0.5-0.8-0.7-1.1c-0.3-0.6-0.2-0.6-0.4-1.6C337.5,89.5,337.6,89.5,337.5,89.4z"/>
				<path class="st1" d="M150.3,141.1c0.2,1.4,1.5,1.8,2.6,2.2c1.7,0.5,3.3,0.7,4.9,1.4c1.5,0.7,2.5,1.8,3.9,2.7
					c2.5,1.5,4.6-0.1,3.9-3c-0.3-1.5-1.5-2.8-2.8-3.6c-0.4-0.2-1-0.3-1.6-0.4c-0.4-0.1-0.8-0.1-1.1-0.1c-0.5,0-0.9,0-1.3-0.1
					c0,0,0,0-0.1,0c-0.4-0.1-1.1-0.2-1.9-0.5c-0.1-0.1-0.2-0.1-0.3-0.2c-0.1-0.2-0.4-0.1-0.4,0.1
					C153.6,139.1,150.1,138.6,150.3,141.1z"/>
				<path class="st1" d="M173.8,43c1.2-0.2,2.7-1.5,3.7-2.1c0.8-0.5,2.3-1,2.7-1.9c0.4-0.8,0.1-1.8-0.7-2.3
					c-0.1-0.1-0.2-0.1-0.3-0.2c-2.7,2-5.4,4-8,6.1c0.3,0.1,0.7,0.1,1.2,0.2C173.2,43,173.1,43.1,173.8,43z"/>
				<path class="st1" d="M289.6,53.3c0.7,1.2,1.9,1.2,3.1,1c3.6-0.4,7.3-1.8,10.7-3c1.6-0.6,6.3-2.4,3.3-4.6c-1.5-1.1-3.5-0.1-5,0.4
					c-3.9,1.2-7.8,2.1-11.7,0.7c-0.2-0.1-0.3,0.1-0.2,0.3C288.2,48.6,289,52.2,289.6,53.3z"/>
				<path class="st1" d="M316.8,15.8c-1.9-1.1-2.9-1.1-5.1-0.6c-1.1,0.4-2.2,0.8-3.3,1.2c-2.9,0.1-5.6-0.6-8.1-1.9
					c-1.5-0.4-2.6-0.8-4.3-0.9c-8.5-0.8-18.4,1.7-26.5,3.7c-4.9,1.2-10,3.1-15.2,3c-4-0.1-7.5-2.6-11.5-2.4c-0.5,0-1,0.1-1.6,0.3
					c-1.1-0.7-2.3-0.6-4-0.2c-6.4,1.6-12.3,5-18.9,6.3c-4.9,1-9.8,1.6-14,4.4c-4,2.6-9.8,6.9-12.3,10.8c0,0.1,0,0.1,0,0.2
					c0.3,2.6-0.3,4.8-1.8,6.6c-1.6,0.2-3.2,0.4-4.7,0.6c0.1-0.7-0.2-2.9-0.1-2.7c-0.3-0.9-0.8-1.3-1.8-1.7c-3.9-1.4-5.1,3.7-5.8,6.2
					c-1.4,4.9-4.8,8.6-9.6,8.6c-0.8-0.1-1.6-0.2-2.4-0.2c-0.3-0.1-0.6-0.1-1-0.2c-2.8,0.9-3.8-0.7-2.8-4.7c0.5-0.1,1.1-0.1,1.6-0.2
					c1.2-0.6,2.7-0.2,3.9-1c1.6-1.1,3.1-3.4,1.6-5.3c-0.8-0.9-1.5-0.8-2.4-0.7c-7.8,6.6-15,13.8-21.7,21.7
					c-15.8,18.7-27.5,40.1-34.8,63.6c-0.9,2.9-1.7,5.7-2.4,8.6c0.3,0.3,0.5,0.5,0.8,0.8c0.1,0.1,0.3,0.1,0.3-0.1c0,0,0-0.2,0.1-0.3
					c0.4-0.6,0.4-1.4,0.2-2.1c0-0.4,0-0.7,0-0.6c2.2-3.7,2.8-1,2.8,1.4c0,1.3-0.3,3.8-0.4,4.7c-0.3,2.1-0.9,4.2,1,5.7
					c2.8,2.1,8.2,1.1,11.3,2.2c3.7,1.4,5.5,3.8,8.7,5.6c2.3,1.3,4.3,1.6,6.7,3c4.4,2.5,2.3,1.8,4,4.8c0.4,0.8,0.8,1.5,1.6,1.9
					c0.2,0.1,0.4,0.2,0.5,0.2c0.3,0.4,0.9,0.6,1.1,0.9c1.2,2,0.3,0.1,0.6,0.4c0.9,1,7,8.5,6.4,10.4c0,0.2-0.1,0.3-0.2,0.5
					c-0.3,0.3-0.6,0.5-0.9,0.8c-0.3,0.3-0.6,0.6-0.9,1c-0.4,0.3-0.7,0.7-0.9,1c-0.8,1.3-1.2,2.7-1.4,4.2c-1.3,9,5.6,16,8.5,23.9
					c1.1,3,0.9,6.2,3.2,8.5c1.8,1.8,4.6,2.4,6.2,4.5c3,3.9,2.9,8,2.7,12.6c-0.2,4.3,0.8,8.2,1.8,12.3c1.7,7,0.7,13.1,0.2,20.1
					c-0.8,10,3.1,19.4,6.1,28.8c2.1,6.6,3.4,18.2,9.3,22.6c1.3,1,2.7,1.4,4.2,2.1c2.6,1.2,2.9,1.2,6.2,3.6c0.1,0.1,0.9,1.3,1,1.3
					c1.3,0.4,1.3,1.3,2.6,0.4c1.1-0.8,0.9-2.6,0.5-3.6s-1.7-1.6-2.3-2.4c-2.7-3.3-2.5-5.9-2.1-9.9c0.1-1.2,0.1-2.2,0.1-3.1
					c0-1.3-0.1-2.6-0.5-3.8c-0.1-0.3-0.1-0.6-0.2-0.9c-0.4-2.2,0-4.2,0.2-6.3c0.3-0.6,0.4-1.3,0.3-1.9c-0.1-0.3-0.2-0.6-0.3-0.9
					c0-0.2,0-0.3-0.1-0.5c-0.5-2.5-3.9-5.7-1.9-8.8c0.7-1.1,3.8-3.4,5.4-3.6c0.4-0.1,1,0.6,1.4,0.5c0.2-0.1,0.4-0.1,0.6-0.1
					c0.2,0,0.3,0,0.5,0c0.4,0,0.7,0,1.3-0.6c0.2-0.2,0.2-1.7,0.2-1.9c0.1-0.8,0.3-1.6,0.4-2.4c-0.4-2.3,0.2-2.9,1.6-1.8h0.1
					c0.1-0.1,0.2-0.1,0.3-0.2c1,0.1,1.8-0.6,2.4-1.4c0.2-0.2,0.4-0.5,0.7-0.9c1.2-1.9,1.2-4.8,2.7-6.8c0.6-0.8,1.8-1.5,2.5-2.2
					c0.8-0.8,1.6-1.7,2-2.8c0.2-0.7,0.3-1.3,0.2-2c0-0.2,0-0.4-0.1-0.6c-0.3-2.1-1.3-4.2-0.1-6.1c3-4.5,8.2-3.1,12.5-3.4
					c0.4,0,0.8,0,1.1,0c0.8-0.1,1.5-0.4,2.2-0.8c1.3-0.7,2.4-1.9,3.1-3.9c0-0.1,0.1-0.2,0.1-0.4c0.1-0.6,0.4-2.9,0.3-4.2
					c-0.1-1.3-0.8-3.7-0.9-5.2c0-0.2,0-0.4-0.1-0.6c-0.2-3.4-0.3-6,1.7-8.8c1.1-1.5,2.3-2.5,3.4-3.9c0.7-0.9,1.5-1.6,1.9-2.7
					c2.1-5.5-4.3-12.6-8.5-15.4c-4.4-2.9-9.6-4.8-14.3-6.9c-0.8-0.3-1.9-0.8-3.2-1.2c-2.3-1-4.5-2.1-6.8-3.1
					c-0.2-0.1-0.4-0.2-0.6-0.3c-0.2-0.2-0.4-0.3-0.6-0.5c-1.6-1.8-1.7-4.5-2.7-6.5c-1.5-3-3.9-4.8-6.9-6.2c-1.6-0.7-3.2-1.2-4.8-1.8
					c-1.7-0.6-3.5-1.3-5-2.2c-3-1.9-2.9-4.4-4.9-7.1c-0.1-0.2-0.2-0.3-0.3-0.5c-0.2-0.5-0.5-0.9-0.9-1.3c-0.1-0.1-0.2-0.1-0.3-0.2
					c0,0,0,0-0.1,0s-0.1-0.1-0.2-0.1c-0.3-0.2-0.8-0.3-1.4-0.4c-1.4-0.2-2.4,1-3.6,1.3c-4.5,0.8-8.1-1.1-12-2.4
					c-2.2-0.7-3.6-0.4-5.6,0.4c-2.2,1-3.3,3.6-7,2.3c-0.3-0.1-0.5-0.2-0.7-0.3c-0.6-0.4-1.3-0.8-2-0.9h-0.1h-0.1
					c-0.3,0-0.6-0.1-1.1,0c0.7-2.8,0.3-8,0-9.5c-0.1-0.6-0.2-1-0.4-1.3c-0.1-0.4-0.3-0.7-0.6-1c-0.4-0.3-0.8-0.5-1.3-0.6
					c-0.1-0.1-0.2-0.2-0.2-0.2c-2-2.1-2.3-4.3-3.1-6.5c-0.2-0.7,0-1.8-0.8-2.3c-1-0.6-1.1-0.5-1.6-0.2c-0.1,0-0.2,0.1-0.2,0.1
					c-0.2,0.1-0.4,0.1-0.6,0.2c0.1,0-2.6,1.5-5,3c-1.8,0.6-3.8,0.9-4.8,0.2c-4.7-3.2-3.3-8.1-1.2-12.2c3-6,7.2-6.7,13.2-6.7
					c6.4,0,8.1,0.9,10.6,7.3c0.1,0.3,0.2,0.6,0.4,0.9c0.1,0.6,0.4,1.1,0.7,1.6c0.1,0.2,0.3,0.3,0.5,0.4c0.8,0.9,1.8,1.2,3.1-0.2
					c1.1-1.1,0-4.4-0.1-5.9c0-1.4-0.2-4.1,0.5-5.4c1.4-2.4,5.1-3.5,7-4.9c0.2-0.1,0.3-0.2,0.4-0.3c0.3-0.1,0.6-0.3,0.9-0.5
					c0.7-0.5,1.1-1.4,1.4-2.2c0.9-1.5,1.5-3.3,2.9-5.5c5.2-8.7,12.2-9.5,21.3-10.7c2.4-0.3,9.9,0,11.2-2.7c0.6-1.2,0.4-1.7,0-2.1
					c-0.3-0.4-0.7-0.7-1.1-0.9c-0.1-0.1-0.2-0.1-0.3-0.2c-0.9-0.7-0.8,0.2-1.7-0.2c-3.1,0.1-1.3-1,5.4-3.3c-0.3,0.4-0.6,0.8-0.8,1.2
					c0,0.1,0,0.2,0,0.3c-0.2,0.3-0.3,0.7-0.4,1c-0.1,0.2-0.1,0.4,0.1,1c0,0.1,0.1,0.2,0.2,0.1c2.7-0.8,8-1.3,10-3.7
					c0.9-1,1-1.6,0.8-2.1c0-0.2-0.1-0.5-0.2-0.8c-0.2-0.4-0.5-0.7-0.8-1c0-0.1-0.1-0.3-0.1-0.4c-0.6-2.3,1.1-5.4-0.4-7.4
					c-0.5-0.7-1.8-0.7-2.3-1.3c-0.1-0.1-1.4-4.9-1.6-5.9c-0.1-0.6,0.2-1.6,0.3-2.3c0-0.2-0.1-0.5-0.2-0.7l-0.1-0.1
					c-0.2-0.5-0.6-0.8-1.6-1.1c-1.2-0.3-2,0.5-3,0.6c-2.8,0.5-0.5,1.6-4.5,0.4c-4.6-1.4-1.3-0.4-2.8-2.7c-0.1-0.2-0.2-0.4-0.3-0.6
					c-0.1-0.4-0.2-0.8-0.4-1.2c-0.2-0.7-0.6-1.3-2-1.6c-3.4-0.6-5.7,4.5-9.1,4.6c-0.2,0-0.3,0.2-0.2,0.3c2.1,2.6-0.9,5.6-3.5,8.1
					c-0.7,0.5-1.3,1.1-1.8,1.7c-0.1,0.1-0.1,0.1-0.1,0.2c-0.4,0.5-0.8,0.9-1,1.3c0.1-0.1-1.4,3.6-1.3,3.5c-2.1-0.2-4.3-0.5-6.4-0.7
					c0.2-0.5,0.3-1,0.4-1.5c-0.1-0.1-0.2-0.3-0.3-0.6v-0.1c-0.1-0.3-0.2-0.6-0.3-0.7c-0.7-0.9-2.3-0.5-3.2-1
					c-2.1-0.1-3.3-1.4-3.7-3.8c-1.2-0.8-1.8-1.7-2-2.6c4.9-1.5,8-6.9,12.9-8.7c2-0.7,4.2-1.2,6-2.3c2.5-1.5,4-3.9,6.3-5.7
					c2.6-2,4.9-2.1,7.5-3.7c0.4-0.3,1-1.2,1.3-1.6c0.4-0.7,0.8-1.4,1.1-1.9l0.2-0.3l0.2-0.3c0.2-0.2,0.3-0.3,0.5-0.5
					c0.3-0.3,0.7-0.5,1.1-0.7c0.8,0,1.3,1.2,1.5,3.7c2.1,2.3,2.5,3.5,1.2,3.6c-0.1,0.1-0.2,0.2-0.3,0.2c-1,0.1-2,0.2-2.9,0.7L199,55
					c-0.5,0.2-1,0.4-1.3,0.9c-1,1.5-0.7,1.6-0.4,3.2c0,0.1,0.1,0.2,0.2,0.1c3.9-0.4,11.9,7.3,16,3.2c0.3-0.3,0.5-0.8,0.8-1.1
					c0.2-0.6,0.3-1.1,0.4-1.7c1.2-2.3,2.7-3.5,4.7-3.7c0.2-0.1,0.3-0.2,0.4-0.3c0.3-0.1,0.5-0.2,0.8-0.3c0.2-0.1,0.4-0.3,0.6-0.5
					c0.3-0.3,0.5-0.6,0.7-1.3c0.4-1.4-0.2-2.8-1.1-3.9c-1.3-1.7-3.8-2.3-5.5-3.4c-5.7-3.6-7.6-8.8,0.6-13.9c0.3-0.2,0.6-0.3,0.9-0.5
					c1.2-0.5,2.4-1.1,3.6-1.7c3.8-1.9,7.5-3.8,11.3-5.8c2.2,0.4,3.5,0.9,3.9,1.4c0.4,0.6-0.6,1.4-1.1,1.7c-0.5,0.3-2.3,0.9-2.3,0.9
					c-0.1,0-0.2,0.1-0.3,0.1c-0.6,0.4-1.3,0.7-1.8,1.2c-1.1,1.1-1.4,1.4-1.6,3c0,0.1,0,0.1,0.1,0.2c0.1,0.1,0.2,0.1,0.3,0.1
					c0.3,0.2,0.6,0.3,1,0.3c1,0,1.6-0.7,3.3-1c3.6-2.1,6.4-0.2,8.4,5.8c-0.4,0.5-0.7,0.9-1,1.5c0.1-1.8-0.7,2.9-0.5,2.4
					c-1.2,3.1-2.7,6.1-4.1,9c-0.7,1.4-1.1,2.2-1.5,3.8c-0.5,2.1-0.8,5.1-0.4,7.3c0.7,4,2.7,4.8,5.2,4.1c0.8-0.2,1.6-0.5,2.3-1
					c0.6-0.2,1.2-0.7,1.9-1.2c0,0,0.4-0.3,0.3-0.3c0,0,1.7-1.5,2.1-1.9c4.7-4.1,9.2-9.6,10.6-10.6c4-2.8,9.2-2.4,13.9-3.2
					c3.9-0.7,7-1.8,10.3-4c3.9-2.6,7.3-4.6,11.4-6.8c1.9-1,1.4-0.5,2.7-1.9c1.1-1.3,0.7-1.8,0.1-2.2c0-0.1,0-0.2-0.1-0.2
					c-0.2-0.3-0.5-0.6-0.6-0.9c0.3-0.6,1.5-1.5,4.3-3.1c0.2-0.1,0.3-0.2,0.4-0.2c0.4,0,0.8-0.1,1.1-0.1c0.3,0.2,0.3,0.6,1.7-0.5
					c1.3-1,0.9-1.8,1.8-3c2.7-3.7,3.3-4.1,6.6-5.5c2.5-1.1,4.4-1.9,6-4C316.9,16,316.9,15.8,316.8,15.8z"/>
			</g>
		</g>
		<g>
			<g>
				<defs>
					<circle id="SVGID_00000129894385198561902790000004063223222243888057_" cx="285.2" cy="186.8" r="184.2"/>
				</defs>
				<clipPath id="SVGID_00000079482531627846307080000000000471168608563368_">
					<use xlink:href="#SVGID_00000129894385198561902790000004063223222243888057_"  style="overflow:visible;"/>
				</clipPath>

					<path style="clip-path:url(#SVGID_00000079482531627846307080000000000471168608563368_);fill:none;stroke:#FFFFFF;stroke-width:2.1024;stroke-miterlimit:10;" d="
					M187.4,21.9c0,0,147.6-37,278.1,84.4"/>
			</g>
			<g>
				<defs>
					<circle id="SVGID_00000028305102289564281480000003298594629555807407_" cx="285.2" cy="186.8" r="184.2"/>
				</defs>
				<clipPath id="SVGID_00000176732837479894162180000004205742871020510135_">
					<use xlink:href="#SVGID_00000028305102289564281480000003298594629555807407_"  style="overflow:visible;"/>
				</clipPath>

					<path style="clip-path:url(#SVGID_00000176732837479894162180000004205742871020510135_);fill:none;stroke:#FFFFFF;stroke-width:2.1024;stroke-linejoin:bevel;stroke-miterlimit:10;" d="
					M479.1,166C413,52.4,252,39.8,252,39.8l17.5-22.5L290,47.8l32.2-21.1L335.9,57L362,39.8l8.8,32.8L396,57l13.3,37.5l38.8-1.9"/>
			</g>
			<g>
				<defs>
					<circle id="SVGID_00000009568169324118260950000010941887794549363606_" cx="285.2" cy="186.8" r="184.2"/>
				</defs>
				<clipPath id="SVGID_00000175290595379640624670000007597605784427048871_">
					<use xlink:href="#SVGID_00000009568169324118260950000010941887794549363606_"  style="overflow:visible;"/>
				</clipPath>

					<path style="clip-path:url(#SVGID_00000175290595379640624670000007597605784427048871_);fill:none;stroke:#FFFFFF;stroke-width:2.1024;stroke-miterlimit:10;" d="
					M303.3,76.9c39.8,12.8,149.6,55.9,175.8,148.4"/>
			</g>
			<g>
				<defs>
					<circle id="SVGID_00000020379870105964583920000006088037922276308101_" cx="285.2" cy="186.8" r="184.2"/>
				</defs>
				<clipPath id="SVGID_00000026147559630199397690000010472055263741334181_">
					<use xlink:href="#SVGID_00000020379870105964583920000006088037922276308101_"  style="overflow:visible;"/>
				</clipPath>

					<polyline style="clip-path:url(#SVGID_00000026147559630199397690000010472055263741334181_);fill:none;stroke:#FFFFFF;stroke-width:2.1024;stroke-linejoin:bevel;stroke-miterlimit:10;" points="
					252,-4.4 269.5,17.3 316.9,-4.4 322.2,26.7 352.6,6.6 362,39.8 388.4,24.4 396,57 419.8,50.3 				"/>
			</g>
			<g>
				<defs>
					<circle id="SVGID_00000106845499363482843900000007888173841633582509_" cx="285.2" cy="186.8" r="184.2"/>
				</defs>
				<clipPath id="SVGID_00000045602840541382238600000009507142942310061973_">
					<use xlink:href="#SVGID_00000106845499363482843900000007888173841633582509_"  style="overflow:visible;"/>
				</clipPath>

					<polyline style="clip-path:url(#SVGID_00000045602840541382238600000009507142942310061973_);fill:none;stroke:#FFFFFF;stroke-width:2.1024;stroke-linejoin:bevel;stroke-miterlimit:10;" points="
					469.3,158.5 437.7,155.5 448.3,125.8 405.6,127.7 409.3,94.6 377.2,106.6 370.8,72.6 341.1,90.4 335.9,57 303.3,76.9 290,47.8
									"/>
			</g>
			<g>
				<defs>
					<circle id="SVGID_00000069371553289259145970000006064153222916220813_" cx="285.2" cy="186.8" r="184.2"/>
				</defs>
				<clipPath id="SVGID_00000071525954778824981880000018412535893595548823_">
					<use xlink:href="#SVGID_00000069371553289259145970000006064153222916220813_"  style="overflow:visible;"/>
				</clipPath>

					<path style="clip-path:url(#SVGID_00000071525954778824981880000018412535893595548823_);fill:none;stroke:#FFFFFF;stroke-width:2.1024;stroke-linejoin:bevel;stroke-miterlimit:10;" d="
					M368.9,137.3"/>
			</g>
			<g>
				<defs>
					<circle id="SVGID_00000105427466795701367920000013414153076150512015_" cx="285.2" cy="186.8" r="184.2"/>
				</defs>
				<clipPath id="SVGID_00000047058711942321096560000001265995428501387673_">
					<use xlink:href="#SVGID_00000105427466795701367920000013414153076150512015_"  style="overflow:visible;"/>
				</clipPath>

					<path style="clip-path:url(#SVGID_00000047058711942321096560000001265995428501387673_);fill:none;stroke:#FFFFFF;stroke-width:2.1024;stroke-linejoin:bevel;stroke-miterlimit:10;" d="
					M446.1,228.7l-26.3,39h41.5C463.1,259.5,448.2,237.8,446.1,228.7"/>
			</g>
			<g>
				<defs>
					<circle id="SVGID_00000165210194032596797000000007564878176160287929_" cx="285.2" cy="186.8" r="184.2"/>
				</defs>
				<clipPath id="SVGID_00000130627355825783066210000009361256461413721748_">
					<use xlink:href="#SVGID_00000165210194032596797000000007564878176160287929_"  style="overflow:visible;"/>
				</clipPath>

					<path style="clip-path:url(#SVGID_00000130627355825783066210000009361256461413721748_);fill:none;stroke:#FFFFFF;stroke-width:2.1024;stroke-linejoin:bevel;stroke-miterlimit:10;" d="
					M368.9,137.3"/>
			</g>
			<g>
				<defs>
					<circle id="SVGID_00000039840731112279250610000018311086844954270593_" cx="285.2" cy="186.8" r="184.2"/>
				</defs>
				<clipPath id="SVGID_00000160151858983517571630000001904825964808887733_">
					<use xlink:href="#SVGID_00000039840731112279250610000018311086844954270593_"  style="overflow:visible;"/>
				</clipPath>

					<path style="clip-path:url(#SVGID_00000160151858983517571630000001904825964808887733_);fill:none;stroke:#FFFFFF;stroke-width:2.1024;stroke-linejoin:bevel;stroke-miterlimit:10;" d="
					M408.4,233.8c5.8,12.5,9.4,23.9,11.5,33.9l-40.9-5.2L408.4,233.8"/>
			</g>
			<g>
				<defs>
					<circle id="SVGID_00000150821755400897518780000015218088167887818115_" cx="285.2" cy="186.8" r="184.2"/>
				</defs>
				<clipPath id="SVGID_00000142178265711983105220000016199191024629476506_">
					<use xlink:href="#SVGID_00000150821755400897518780000015218088167887818115_"  style="overflow:visible;"/>
				</clipPath>

					<path style="clip-path:url(#SVGID_00000142178265711983105220000016199191024629476506_);fill:none;stroke:#FFFFFF;stroke-width:2.1024;stroke-linejoin:bevel;stroke-miterlimit:10;" d="
					M392.4,203.2"/>
			</g>
			<g>
				<defs>
					<circle id="SVGID_00000086692830275643902080000017333913930714827170_" cx="285.2" cy="186.8" r="184.2"/>
				</defs>
				<clipPath id="SVGID_00000145020832088248835080000018135232758847354023_">
					<use xlink:href="#SVGID_00000086692830275643902080000017333913930714827170_"  style="overflow:visible;"/>
				</clipPath>

					<polyline style="clip-path:url(#SVGID_00000145020832088248835080000018135232758847354023_);fill:none;stroke:#FFFFFF;stroke-width:2.1024;stroke-linejoin:bevel;stroke-miterlimit:10;" points="
					368.9,137.3 403.8,173.8 392.4,203.2 422.8,199.4 408.4,233.8 446.1,228.7 470.9,203.2 422.8,199.4 437.7,155.5 403.8,173.8
					405.6,127.7 368.9,137.3 377.2,106.6 345.9,117.7 341.1,90.4 				"/>
			</g>
			<g>
				<defs>
					<circle id="SVGID_00000176750625410318113860000018336759510341860261_" cx="285.2" cy="186.8" r="184.2"/>
				</defs>
				<clipPath id="SVGID_00000030458565435075065910000013458785520009555086_">
					<use xlink:href="#SVGID_00000176750625410318113860000018336759510341860261_"  style="overflow:visible;"/>
				</clipPath>

					<path style="clip-path:url(#SVGID_00000030458565435075065910000013458785520009555086_);fill:none;stroke:#FFFFFF;stroke-width:2.1024;stroke-linejoin:bevel;stroke-miterlimit:10;" d="
					M426.6,314.6l-6.7-47c0,0-19.1,20.9-31.8,33.2L426.6,314.6z"/>
			</g>
			<g>
				<defs>
					<circle id="SVGID_00000035523254799844653090000017695471158529114786_" cx="285.2" cy="186.8" r="184.2"/>
				</defs>
				<clipPath id="SVGID_00000056392440906285689630000012045428285475928481_">
					<use xlink:href="#SVGID_00000035523254799844653090000017695471158529114786_"  style="overflow:visible;"/>
				</clipPath>

					<polyline style="clip-path:url(#SVGID_00000056392440906285689630000012045428285475928481_);fill:none;stroke:#FFFFFF;stroke-width:2.1024;stroke-linejoin:bevel;stroke-miterlimit:10;" points="
					403.8,173.8 422.8,199.4 446.1,228.7 				"/>
			</g>
			<g>
				<circle id="SVGID_1_" class="st15" cx="285.2" cy="186.8" r="184.2"/>
			</g>
		</g>
	</g>
</g>
<g>
	<path class="st16" d="M1217.1,714"/>
</g>
<path class="st16" d="M-18.8,6"/>
<g>
	<path class="st1" d="M89.1,398.9v76.5h-17v-9.7c-5.7,7-14.8,10.7-24.7,10.7c-19.6,0-33-10.7-33-33.8v-43.7h17.9v41.3
		c0,13.9,6.6,20.5,17.9,20.5c12.5,0,20.9-7.7,20.9-23.1v-38.7L89.1,398.9L89.1,398.9z"/>
	<path class="st17" d="M161.4,475.4l-19.6-26.5L122,475.4h-19.8l29.8-38.8l-28.5-37.7h19.9l18.8,25.1l18.8-25.1h19.3l-28.7,37.4
		l30,39.1H161.4z"/>
	<path class="st17" d="M257.4,432.4v43h-16.9v-9.3c-4.3,6.6-12.6,10.3-24.1,10.3c-17.5,0-28.5-9.6-28.5-22.9
		c0-12.8,8.6-22.8,31.8-22.8h19.8v-1.1c0-10.5-6.3-16.6-19.1-16.6c-8.6,0-17.5,2.9-23.2,7.6l-7-13c8.5-6.6,21-9.7,33.8-9.4
		C242.6,398.4,257.4,413.8,257.4,432.4z M239.5,451.4v-8.9H221c-12.2,0-15.5,4.6-15.5,10.2c0,6.4,5.4,10.6,14.6,10.6
		C228.9,463.3,236.4,459.3,239.5,451.4z"/>
	<path class="st17" d="M324.6,398v17c-1.6-0.3-2.9-0.4-4.2-0.4c-13.6,0-22.2,8-22.2,23.6v37.1h-17.9v-76.5h17.1V410
		C302.5,402,311.8,398,324.6,398z"/>
	<path class="st17" d="M384.1,398v17c-1.6-0.3-2.9-0.4-4.2-0.4c-13.6,0-22.2,8-22.2,23.6v37.1h-17.9v-76.5h17.1V410
		C362,402,371.3,398,384.1,398z"/>
	<path class="st17" d="M462.9,432.4v43H446v-9.3c-4.3,6.6-12.6,10.3-24.1,10.3c-17.5,0-28.5-9.6-28.5-22.9
		c0-12.8,8.6-22.8,31.8-22.8H445v-1.1c0-10.5-6.3-16.6-19.1-16.6c-8.6,0-17.5,2.9-23.2,7.6l-7-13c8.5-6.6,21-9.7,33.8-9.4
		C448.1,398.4,462.9,413.8,462.9,432.4z M445,451.4v-8.9h-18.5c-12.2,0-15.5,4.6-15.5,10.2c0,6.4,5.4,10.6,14.6,10.6
		C434.4,463.3,442,459.3,445,451.4z"/>
	<path class="st17" d="M556.1,398.9l-35.8,82.7c-7,17.3-16.8,22.6-29.5,22.6c-7.6,0-15.6-2.6-20.5-7l7.2-13.2
		c3.4,3.3,8.3,5.3,13.2,5.3c6.3,0,10-3,13.5-10.6l1.3-3l-33.4-76.8h18.6l24.1,56.6l24.2-56.6L556.1,398.9L556.1,398.9z"/>
</g>
</svg>
