<svg viewBox="0 0 100.353 100.352" xml:space="preserve" xmlns="http://www.w3.org/2000/svg" enable-background="new 0 0 100.353 100.352"><path d="M69.294 11.442c-6.788-5.594-15.724-7.82-24.512-6.109-11.831 2.303-21.333 12.29-23.107 24.287-1.447 9.79 2.031 19.567 9.304 26.155 3.277 2.968 5.254 7.243 5.568 12.039.006.087.023.171.042.254v15.039a1.5 1.5 0 0 0 1.5 1.5h1.495c.609 4.359 3.813 7.697 7.672 7.697h6.81c3.859 0 7.062-3.338 7.671-7.697h1.495a1.5 1.5 0 0 0 1.5-1.5V67.828l.001-.01c0-4.462 2.026-8.771 5.706-12.133a29.341 29.341 0 0 0 9.538-21.61 29.23 29.23 0 0 0-10.683-22.633zM45.357 39.91h-2.305c-1.271 0-2.305-1.034-2.305-2.305s1.034-2.305 2.305-2.305 2.305 1.034 2.305 2.305v2.305zm10.609-2.305a2.308 2.308 0 0 1 2.306-2.305c1.271 0 2.305 1.034 2.305 2.305s-1.034 2.305-2.305 2.305h-2.303l-.003-2.305zm-.903 31.606h6.67v12.396H60.36l-.01-.001-.01.001H40.982l-.01-.001-.01.001H39.59V69.211h14.366m-5.599-3V42.91h4.617l.034 23.301h-4.651zm5.709 23.093h-6.81c-2.238 0-4.117-2.004-4.637-4.697h16.083c-.519 2.693-2.398 4.697-4.636 4.697zm14.35-35.833c-3.872 3.537-6.164 8.013-6.593 12.74h-5.816l-.033-23.301h2.298a5.311 5.311 0 0 0 5.305-5.305 5.311 5.311 0 0 0-5.305-5.305 5.312 5.312 0 0 0-5.306 5.307l.003 2.303h-4.612v-2.305a5.311 5.311 0 0 0-5.305-5.305 5.311 5.311 0 0 0-5.305 5.305 5.311 5.311 0 0 0 5.305 5.305h2.305v23.301h-5.972c-.636-5.005-2.864-9.465-6.393-12.66-6.528-5.914-9.65-14.696-8.35-23.493 1.591-10.76 10.108-19.716 20.712-21.781 7.908-1.538 15.938.458 22.03 5.48a26.245 26.245 0 0 1 9.592 20.319 26.328 26.328 0 0 1-8.56 19.395z" fill="#ebebeb" class="fill-000000"></path></svg>