<svg viewBox="0 0 32 32" xml:space="preserve" xmlns="http://www.w3.org/2000/svg" enable-background="new 0 0 32 32"><path d="M16 31c7.612 0 13.806-6.193 13.806-13.806 0-5.81-3.664-11.03-9.119-12.988a1 1 0 0 0-.675 1.883c4.662 1.673 7.794 6.136 7.794 11.105C27.806 23.704 22.51 29 16 29S4.194 23.704 4.194 17.194c0-4.97 3.132-9.432 7.794-11.105a1 1 0 0 0-.675-1.883c-5.455 1.958-9.119 7.177-9.119 12.988C2.194 24.807 8.388 31 16 31z" fill="#ebebeb" class="fill-000000"></path><path d="M15 2v8.69a1 1 0 1 0 2 0V2a1 1 0 1 0-2 0z" fill="#ebebeb" class="fill-000000"></path></svg>