<svg id="visual" viewBox="0 0 900 600" width="900" height="600" xmlns="http://www.w3.org/2000/svg" xmlns:xlink="http://www.w3.org/1999/xlink" version="1.1"><g stroke-width="1" stroke-linejoin="bevel"><path d="M512.3 333L621.9 256L498.3 222Z" fill="#f9f9f9" stroke="#ababab"></path><path d="M621.9 256L546.3 132L498.3 222Z" fill="#f3f3f3" stroke="#ababab"></path><path d="M512.3 333L671.9 348L621.9 256Z" fill="#ededed" stroke="#ababab"></path><path d="M546.3 132L415.7 202L498.3 222Z" fill="#f9f9f9" stroke="#ababab"></path><path d="M498.3 222L415.7 202L512.3 333Z" fill="#e1e1e1" stroke="#ababab"></path><path d="M753.4 239L661.9 157L621.9 256Z" fill="#f9f9f9" stroke="#ababab"></path><path d="M621.9 256L661.9 157L546.3 132Z" fill="#e4e4e4" stroke="#ababab"></path><path d="M546.3 132L394.7 159L415.7 202Z" fill="#ffffff" stroke="#ababab"></path><path d="M284.1 242L397.7 391L415.7 202Z" fill="#f0f0f0" stroke="#ababab"></path><path d="M415.7 202L397.7 391L512.3 333Z" fill="#f0f0f0" stroke="#ababab"></path><path d="M512.3 333L611.9 500L671.9 348Z" fill="#eaeaea" stroke="#ababab"></path><path d="M671.9 348L753.4 239L621.9 256Z" fill="#e7e7e7" stroke="#ababab"></path><path d="M755.4 479L746.4 357L671.9 348Z" fill="#ffffff" stroke="#ababab"></path><path d="M671.9 348L746.4 357L753.4 239Z" fill="#f0f0f0" stroke="#ababab"></path><path d="M397.7 391L419.7 445L512.3 333Z" fill="#ffffff" stroke="#ababab"></path><path d="M419.7 445L481.3 497L512.3 333Z" fill="#e1e1e1" stroke="#ababab"></path><path d="M481.3 497L611.9 500L512.3 333Z" fill="#fcfcfc" stroke="#ababab"></path><path d="M753.4 239L742.4 122L661.9 157Z" fill="#ffffff" stroke="#ababab"></path><path d="M652.9 0L534.3 0L546.3 132Z" fill="#e7e7e7" stroke="#ababab"></path><path d="M394.7 159L284.1 242L415.7 202Z" fill="#ededed" stroke="#ababab"></path><path d="M397.7 391L271.1 507L419.7 445Z" fill="#f3f3f3" stroke="#ababab"></path><path d="M652.9 0L546.3 132L661.9 157Z" fill="#ffffff" stroke="#ababab"></path><path d="M546.3 132L408.7 0L394.7 159Z" fill="#eaeaea" stroke="#ababab"></path><path d="M394.7 159L270.1 132L284.1 242Z" fill="#fcfcfc" stroke="#ababab"></path><path d="M742.4 122L652.9 0L661.9 157Z" fill="#e7e7e7" stroke="#ababab"></path><path d="M611.9 500L755.4 479L671.9 348Z" fill="#f3f3f3" stroke="#ababab"></path><path d="M746.4 357L900 247L753.4 239Z" fill="#ededed" stroke="#ababab"></path><path d="M534.3 0L408.7 0L546.3 132Z" fill="#f6f6f6" stroke="#ababab"></path><path d="M284.1 242L260.1 378L397.7 391Z" fill="#e4e4e4" stroke="#ababab"></path><path d="M423.7 600L485.3 600L481.3 497Z" fill="#f9f9f9" stroke="#ababab"></path><path d="M408.7 0L270.1 132L394.7 159Z" fill="#e7e7e7" stroke="#ababab"></path><path d="M284.1 242L141.6 399L260.1 378Z" fill="#e1e1e1" stroke="#ababab"></path><path d="M423.7 600L481.3 497L419.7 445Z" fill="#f0f0f0" stroke="#ababab"></path><path d="M481.3 497L485.3 600L611.9 500Z" fill="#e4e4e4" stroke="#ababab"></path><path d="M611.9 500L657.9 600L755.4 479Z" fill="#e4e4e4" stroke="#ababab"></path><path d="M485.3 600L657.9 600L611.9 500Z" fill="#fcfcfc" stroke="#ababab"></path><path d="M900 359L900 247L746.4 357Z" fill="#e1e1e1" stroke="#ababab"></path><path d="M753.4 239L900 113L742.4 122Z" fill="#e1e1e1" stroke="#ababab"></path><path d="M742.4 122L784.4 0L652.9 0Z" fill="#fcfcfc" stroke="#ababab"></path><path d="M271.1 507L423.7 600L419.7 445Z" fill="#eaeaea" stroke="#ababab"></path><path d="M900 113L784.4 0L742.4 122Z" fill="#ededed" stroke="#ababab"></path><path d="M755.4 479L900 359L746.4 357Z" fill="#f3f3f3" stroke="#ababab"></path><path d="M900 485L900 359L755.4 479Z" fill="#fcfcfc" stroke="#ababab"></path><path d="M260.1 378L271.1 507L397.7 391Z" fill="#e1e1e1" stroke="#ababab"></path><path d="M900 247L900 113L753.4 239Z" fill="#eaeaea" stroke="#ababab"></path><path d="M408.7 0L266.1 0L270.1 132Z" fill="#eaeaea" stroke="#ababab"></path><path d="M92.6 226L141.6 399L284.1 242Z" fill="#f0f0f0" stroke="#ababab"></path><path d="M657.9 600L775.4 600L755.4 479Z" fill="#e1e1e1" stroke="#ababab"></path><path d="M775.4 600L900 485L755.4 479Z" fill="#ffffff" stroke="#ababab"></path><path d="M92.6 226L284.1 242L270.1 132Z" fill="#f6f6f6" stroke="#ababab"></path><path d="M260.1 378L158.6 485L271.1 507Z" fill="#ffffff" stroke="#ababab"></path><path d="M158.6 485L266.1 600L271.1 507Z" fill="#eaeaea" stroke="#ababab"></path><path d="M271.1 507L266.1 600L423.7 600Z" fill="#e7e7e7" stroke="#ababab"></path><path d="M900 113L900 0L784.4 0Z" fill="#e4e4e4" stroke="#ababab"></path><path d="M141.6 399L158.6 485L260.1 378Z" fill="#f0f0f0" stroke="#ababab"></path><path d="M88.6 99L92.6 226L270.1 132Z" fill="#ffffff" stroke="#ababab"></path><path d="M0 519L130.6 600L158.6 485Z" fill="#e4e4e4" stroke="#ababab"></path><path d="M775.4 600L900 600L900 485Z" fill="#f3f3f3" stroke="#ababab"></path><path d="M110.6 0L88.6 99L270.1 132Z" fill="#fcfcfc" stroke="#ababab"></path><path d="M266.1 0L110.6 0L270.1 132Z" fill="#f3f3f3" stroke="#ababab"></path><path d="M0 519L158.6 485L141.6 399Z" fill="#e4e4e4" stroke="#ababab"></path><path d="M158.6 485L130.6 600L266.1 600Z" fill="#ededed" stroke="#ababab"></path><path d="M0 141L0 209L92.6 226Z" fill="#ffffff" stroke="#ababab"></path><path d="M92.6 226L0 351L141.6 399Z" fill="#fcfcfc" stroke="#ababab"></path><path d="M0 141L92.6 226L88.6 99Z" fill="#e7e7e7" stroke="#ababab"></path><path d="M0 209L0 351L92.6 226Z" fill="#ffffff" stroke="#ababab"></path><path d="M0 0L0 141L88.6 99Z" fill="#f3f3f3" stroke="#ababab"></path><path d="M0 351L0 519L141.6 399Z" fill="#fcfcfc" stroke="#ababab"></path><path d="M110.6 0L0 0L88.6 99Z" fill="#ffffff" stroke="#ababab"></path><path d="M0 519L0 600L130.6 600Z" fill="#fcfcfc" stroke="#ababab"></path></g></svg>
